<svg width="8" height="8" viewBox="0 0 8 8" fill="none" xmlns="http://www.w3.org/2000/svg">
<path d="M5.21902 1.94271H1.49568C1.31887 1.94271 1.1493 1.87247 1.02428 1.74745C0.899256 1.62242 0.829018 1.45286 0.829018 1.27604C0.829018 1.09923 0.899256 0.929664 1.02428 0.80464C1.1493 0.679616 1.31887 0.609378 1.49568 0.609378H6.82902C6.91664 0.609114 7.00345 0.626178 7.08445 0.659587C7.16546 0.692997 7.23905 0.742093 7.30101 0.804051C7.36297 0.86601 7.41207 0.939607 7.44548 1.02061C7.47889 1.10161 7.49595 1.18842 7.49568 1.27604V6.60938C7.49568 6.78619 7.42545 6.95576 7.30042 7.08078C7.1754 7.20581 7.00583 7.27604 6.82902 7.27604C6.65221 7.27604 6.48264 7.20581 6.35761 7.08078C6.23259 6.95576 6.16235 6.78619 6.16235 6.60938V2.88538L1.64302 7.40471C1.51792 7.52972 1.3483 7.59991 1.17145 7.59984C0.994602 7.59978 0.825023 7.52947 0.700018 7.40438C0.575012 7.27928 0.50482 7.10965 0.504883 6.93281C0.504945 6.75596 0.575257 6.58638 0.700351 6.46138L5.21902 1.94271Z" fill="#1838BD"/>
</svg>
