<svg width="28" height="28" viewBox="0 0 28 28" fill="none" xmlns="http://www.w3.org/2000/svg">
<path d="M0 4C0 1.79086 1.79086 0 4 0H24C26.2091 0 28 1.79086 28 4V24C28 26.2091 26.2091 28 24 28H4C1.79086 28 0 26.2091 0 24V4Z" fill="#F1F3F6"/>
<path d="M11.8047 19.138L18 12.9427L15.0573 10L8.862 16.1953C8.77671 16.2807 8.71612 16.3876 8.68667 16.5047L8 20L11.4947 19.3133C11.612 19.284 11.7193 19.2233 11.8047 19.138ZM20 10.9427C20.25 10.6926 20.3904 10.3536 20.3904 10C20.3904 9.64645 20.25 9.30737 20 9.05733L18.9427 8C18.6926 7.75004 18.3536 7.60962 18 7.60962C17.6464 7.60962 17.3074 7.75004 17.0573 8L16 9.05733L18.9427 12L20 10.9427Z" fill="#151622"/>
</svg>
