<svg width="14" height="16" viewBox="0 0 14 16" fill="none" xmlns="http://www.w3.org/2000/svg">
<path fill-rule="evenodd" clip-rule="evenodd" d="M10.314 0.952253C10.2796 0.696852 10.0623 0.5 9.79946 0.5C9.5127 0.5 9.28023 0.73427 9.28023 1.02326V1.60176H4.7261V1.02326L4.72136 0.952253C4.68698 0.696852 4.46974 0.5 4.20687 0.5C3.92011 0.5 3.68765 0.73427 3.68765 1.02326V1.61476C1.55991 1.7613 0.25 3.13994 0.25 5.36434V11.678C0.25 14.0654 1.71875 15.5 4.07219 15.5H9.92773C12.284 15.5 13.7499 14.0894 13.7499 11.7308V5.36434C13.7567 3.13915 12.451 1.76089 10.3187 1.6147V1.02326L10.314 0.952253ZM9.28023 2.64828V3.31915L9.28497 3.39015C9.31936 3.64555 9.5366 3.8424 9.79946 3.8424C10.0862 3.8424 10.3187 3.60813 10.3187 3.31915V2.66374C11.8701 2.79282 12.7165 3.72705 12.7115 5.36274V5.66576H1.28846V5.36434C1.28846 3.72969 2.13944 2.79348 3.68765 2.66385V3.31915L3.69239 3.39015C3.72677 3.64555 3.94401 3.8424 4.20687 3.8424C4.49364 3.8424 4.7261 3.60813 4.7261 3.31915V2.64828H9.28023ZM1.28846 6.71227V11.678C1.28846 13.48 2.28514 14.4535 4.07219 14.4535H9.92773C11.7209 14.4535 12.7115 13.5004 12.7115 11.7308L12.7115 6.71227H1.28846ZM10.6009 8.91374C10.6009 8.62475 10.3684 8.39048 10.0817 8.39048L10.0048 8.39526C9.75135 8.42991 9.55602 8.64883 9.55602 8.91374C9.55602 9.20273 9.78848 9.43699 10.0817 9.43699L10.1521 9.43222C10.4056 9.39757 10.6009 9.17864 10.6009 8.91374ZM7.00958 8.39048C7.29634 8.39048 7.52881 8.62475 7.52881 8.91374C7.52881 9.17864 7.33347 9.39757 7.08004 9.43222L7.00958 9.43699C6.71641 9.43699 6.48394 9.20273 6.48394 8.91374C6.48394 8.64883 6.67928 8.42991 6.93271 8.39526L7.00958 8.39048ZM4.45032 8.91374C4.45032 8.62475 4.21785 8.39048 3.93109 8.39048L3.85422 8.39526C3.60079 8.42991 3.40545 8.64883 3.40545 8.91374C3.40545 9.20273 3.63792 9.43699 3.92468 9.43699L4.00155 9.43222C4.25499 9.39757 4.45032 9.17864 4.45032 8.91374ZM10.0817 11.102C10.3684 11.102 10.6009 11.3363 10.6009 11.6253C10.6009 11.8902 10.4056 12.1091 10.1521 12.1437L10.0817 12.1485C9.78848 12.1485 9.55602 11.9143 9.55602 11.6253C9.55602 11.3604 9.75135 11.1414 10.0048 11.1068L10.0817 11.102ZM7.52881 11.6253C7.52881 11.3363 7.29634 11.102 7.00958 11.102L6.93271 11.1068C6.67928 11.1414 6.48394 11.3604 6.48394 11.6253C6.48394 11.9143 6.71641 12.1485 7.00958 12.1485L7.08004 12.1437C7.33347 12.1091 7.52881 11.8902 7.52881 11.6253ZM3.93109 11.102C4.21785 11.102 4.45032 11.3363 4.45032 11.6253C4.45032 11.8902 4.25499 12.1091 4.00155 12.1437L3.92468 12.1485C3.63792 12.1485 3.40545 11.9143 3.40545 11.6253C3.40545 11.3604 3.60079 11.1414 3.85422 11.1068L3.93109 11.102Z" fill="#151622"/>
</svg>
