<svg width="40" height="40" viewBox="0 0 40 40" fill="none" xmlns="http://www.w3.org/2000/svg">
<rect width="40" height="40" rx="8" fill="#F1F3FF"/>
<path fill-rule="evenodd" clip-rule="evenodd" d="M10 24.0801V15.9101C10 12.3801 12.271 10.0001 15.66 10.0001H24.33C27.72 10.0001 30 12.3801 30 15.9101V24.0801C30 27.6201 27.72 30.0001 24.33 30.0001H15.66C12.271 30.0001 10 27.6201 10 24.0801ZM20.75 22.2701V15.9201C20.75 15.5001 20.41 15.1701 20 15.1701C19.58 15.1701 19.25 15.5001 19.25 15.9201V22.2701L16.78 19.7901C16.64 19.6501 16.44 19.5701 16.25 19.5701C16.061 19.5701 15.87 19.6501 15.72 19.7901C15.43 20.0801 15.43 20.5601 15.72 20.8501L19.47 24.6201C19.75 24.9001 20.25 24.9001 20.53 24.6201L24.28 20.8501C24.57 20.5601 24.57 20.0801 24.28 19.7901C23.98 19.5001 23.51 19.5001 23.21 19.7901L20.75 22.2701Z" fill="#486AE2"/>
</svg>
