<svg width="8" height="8" viewBox="0 0 8 8" fill="none" xmlns="http://www.w3.org/2000/svg">
<path d="M5.21902 1.94268H1.49568C1.31887 1.94268 1.1493 1.87244 1.02428 1.74742C0.899256 1.62239 0.829018 1.45283 0.829018 1.27601C0.829018 1.0992 0.899256 0.929634 1.02428 0.80461C1.1493 0.679585 1.31887 0.609348 1.49568 0.609348H6.82902C6.91664 0.609083 7.00345 0.626147 7.08445 0.659557C7.16546 0.692966 7.23905 0.742062 7.30101 0.804021C7.36297 0.865979 7.41207 0.939577 7.44548 1.02058C7.47889 1.10158 7.49595 1.18839 7.49568 1.27601V6.60935C7.49568 6.78616 7.42545 6.95573 7.30042 7.08075C7.1754 7.20578 7.00583 7.27601 6.82902 7.27601C6.65221 7.27601 6.48264 7.20578 6.35761 7.08075C6.23259 6.95573 6.16235 6.78616 6.16235 6.60935V2.88535L1.64302 7.40468C1.51792 7.52969 1.3483 7.59988 1.17145 7.59981C0.994602 7.59975 0.825023 7.52944 0.700018 7.40435C0.575012 7.27925 0.50482 7.10962 0.504883 6.93278C0.504945 6.75593 0.575257 6.58635 0.700351 6.46135L5.21902 1.94268Z" fill="#1838BD"/>
</svg>
