<svg width="40" height="40" viewBox="0 0 40 40" fill="none" xmlns="http://www.w3.org/2000/svg">
<rect width="40" height="40" rx="8" fill="#F1F3F6"/>
<path d="M20.0013 21.3008C19.8713 21.3008 19.7413 21.2709 19.6213 21.2009L10.7913 16.0909C10.4313 15.8809 10.3113 15.4208 10.5213 15.0608C10.7313 14.7008 11.1813 14.5808 11.5513 14.7908L20.0013 19.6808L28.4013 14.8209C28.7613 14.6109 29.2213 14.7409 29.4313 15.0909C29.6413 15.4509 29.5113 15.9108 29.1613 16.1208L20.3913 21.2009C20.2613 21.2609 20.1313 21.3008 20.0013 21.3008Z" fill="#151622"/>
<path d="M20 30.3591C19.59 30.3591 19.25 30.0191 19.25 29.6091V20.5391C19.25 20.1291 19.59 19.7891 20 19.7891C20.41 19.7891 20.75 20.1291 20.75 20.5391V29.6091C20.75 30.0191 20.41 30.3591 20 30.3591Z" fill="#151622"/>
<path d="M19.9989 30.7483C19.0889 30.7483 18.2189 30.5383 17.5589 30.1683L12.2189 27.2083C10.7689 26.4083 9.62891 24.4783 9.62891 22.8183V17.1583C9.62891 15.4983 10.7689 13.5783 12.2189 12.7683L17.5589 9.80828C18.9189 9.04828 21.0589 9.04828 22.4289 9.80828L27.7689 12.7683C29.2189 13.5683 30.3589 15.4983 30.3589 17.1583V20.8183C30.3589 21.2283 30.0189 21.5683 29.6089 21.5683C29.1989 21.5683 28.8589 21.2283 28.8589 20.8183V17.1583C28.8589 16.0583 28.0089 14.6183 27.0489 14.0883L21.7089 11.1283C20.7989 10.6183 19.2089 10.6183 18.2989 11.1283L12.9589 14.0883C11.9889 14.6283 11.1489 16.0583 11.1489 17.1583V22.8183C11.1489 23.9183 11.9989 25.3583 12.9589 25.8883L18.2989 28.8483C19.1789 29.3383 20.8389 29.3383 21.7089 28.8483C22.0689 28.6483 22.5289 28.7783 22.7289 29.1383C22.9289 29.4983 22.7989 29.9583 22.4389 30.1583C21.7789 30.5383 20.9089 30.7483 19.9989 30.7483Z" fill="#151622"/>
<path d="M27.2 30.15C25.02 30.15 23.25 28.38 23.25 26.2C23.25 24.02 25.02 22.25 27.2 22.25C29.38 22.25 31.15 24.02 31.15 26.2C31.15 28.38 29.38 30.15 27.2 30.15ZM27.2 23.75C25.85 23.75 24.75 24.85 24.75 26.2C24.75 27.55 25.85 28.65 27.2 28.65C28.55 28.65 29.65 27.55 29.65 26.2C29.65 24.85 28.55 23.75 27.2 23.75Z" fill="#151622"/>
<path d="M31.0014 30.7514C30.8114 30.7514 30.6214 30.6815 30.4714 30.5315L29.4714 29.5315C29.1814 29.2415 29.1814 28.7614 29.4714 28.4714C29.7614 28.1814 30.2414 28.1814 30.5314 28.4714L31.5314 29.4714C31.8214 29.7614 31.8214 30.2415 31.5314 30.5315C31.3814 30.6815 31.1914 30.7514 31.0014 30.7514Z" fill="#151622"/>
</svg>
