<svg width="40" height="40" viewBox="0 0 40 40" fill="none" xmlns="http://www.w3.org/2000/svg">
<rect width="40" height="40" rx="8" fill="#FFE7E7"/>
<path fill-rule="evenodd" clip-rule="evenodd" d="M30 15.92V24.09C30 27.62 27.729 30 24.34 30H15.67C12.28 30 10 27.62 10 24.09V15.92C10 12.38 12.28 10 15.67 10H24.34C27.729 10 30 12.38 30 15.92ZM19.25 17.73V24.08C19.25 24.5 19.59 24.83 20 24.83C20.42 24.83 20.75 24.5 20.75 24.08V17.73L23.22 20.21C23.36 20.35 23.56 20.43 23.75 20.43C23.939 20.43 24.13 20.35 24.28 20.21C24.57 19.92 24.57 19.44 24.28 19.15L20.53 15.38C20.25 15.1 19.75 15.1 19.47 15.38L15.72 19.15C15.43 19.44 15.43 19.92 15.72 20.21C16.02 20.5 16.49 20.5 16.79 20.21L19.25 17.73Z" fill="#FF4E4E"/>
</svg>
