<svg width="8" height="8" viewBox="0 0 8 8" fill="none" xmlns="http://www.w3.org/2000/svg">
<path d="M5.21902 1.94265H1.49568C1.31887 1.94265 1.1493 1.87241 1.02428 1.74739C0.899256 1.62236 0.829018 1.45279 0.829018 1.27598C0.829018 1.09917 0.899256 0.929603 1.02428 0.804579C1.1493 0.679555 1.31887 0.609317 1.49568 0.609317H6.82902C6.91664 0.609053 7.00345 0.626117 7.08445 0.659526C7.16546 0.692936 7.23905 0.742032 7.30101 0.80399C7.36297 0.865949 7.41207 0.939546 7.44548 1.02055C7.47889 1.10155 7.49595 1.18836 7.49568 1.27598V6.60932C7.49568 6.78613 7.42545 6.9557 7.30042 7.08072C7.1754 7.20574 7.00583 7.27598 6.82902 7.27598C6.65221 7.27598 6.48264 7.20574 6.35761 7.08072C6.23259 6.9557 6.16235 6.78613 6.16235 6.60932V2.88532L1.64302 7.40465C1.51792 7.52965 1.3483 7.59985 1.17145 7.59978C0.994602 7.59972 0.825023 7.52941 0.700018 7.40432C0.575012 7.27922 0.50482 7.10959 0.504883 6.93275C0.504945 6.7559 0.575257 6.58632 0.700351 6.46132L5.21902 1.94265Z" fill="#151622"/>
</svg>
