<svg width="18" height="18" viewBox="0 0 18 18" fill="none" xmlns="http://www.w3.org/2000/svg">
<path fill-rule="evenodd" clip-rule="evenodd" d="M0.25 1C0.25 0.585786 0.585786 0.25 1 0.25H5C5.35751 0.25 5.66532 0.502345 5.73544 0.852913L6.73544 5.85291C6.78461 6.09881 6.70765 6.35301 6.53033 6.53033L3.6696 9.39106C4.25184 10.4537 4.95892 11.3983 5.78033 12.2197C6.60174 13.0411 7.54628 13.7482 8.60894 14.3304L11.4697 11.4697C11.647 11.2924 11.9012 11.2154 12.1471 11.2646L17.1471 12.2646C17.4977 12.3347 17.75 12.6425 17.75 13V13.0078V13.0156V13.0234V13.0312V13.0391V13.0469V13.0547V13.0625V13.0703V13.0781V13.0859V13.0938V13.1016V13.1094V13.1172V13.125V13.1328V13.1406V13.1484V13.1562V13.1641V13.1719V13.1797V13.1875V13.1953V13.2031V13.2109V13.2188V13.2266V13.2344V13.2422V13.25V13.2578V13.2656V13.2734V13.2812V13.2891V13.2969V13.3047V13.3125V13.3203V13.3281V13.3359V13.3438V13.3516V13.3594V13.3672V13.375V13.3828V13.3906V13.3984V13.4062V13.4141V13.4219V13.4297V13.4375V13.4453V13.4531V13.4609V13.4688V13.4766V13.4844V13.4922V13.5V13.5078V13.5156V13.5234V13.5312V13.5391V13.5469V13.5547V13.5625V13.5703V13.5781V13.5859V13.5938V13.6016V13.6094V13.6172V13.625V13.6328V13.6406V13.6484V13.6562V13.6641V13.6719V13.6797V13.6875V13.6953V13.7031V13.7109V13.7188V13.7266V13.7344V13.7422V13.75V13.7578V13.7656V13.7734V13.7812V13.7891V13.7969V13.8047V13.8125V13.8203V13.8281V13.8359V13.8438V13.8516V13.8594V13.8672V13.875V13.8828V13.8906V13.8984V13.9062V13.9141V13.9219V13.9297V13.9375V13.9453V13.9531V13.9609V13.9688V13.9766V13.9844V13.9922V14V14.0078V14.0156V14.0234V14.0312V14.0391V14.0469V14.0547V14.0625V14.0703V14.0781V14.0859V14.0938V14.1016V14.1094V14.1172V14.125V14.1328V14.1406V14.1484V14.1562V14.1641V14.1719V14.1797V14.1875V14.1953V14.2031V14.2109V14.2188V14.2266V14.2344V14.2422V14.25V14.2578V14.2656V14.2734V14.2812V14.2891V14.2969V14.3047V14.3125V14.3203V14.3281V14.3359V14.3438V14.3516V14.3594V14.3672V14.375V14.3828V14.3906V14.3984V14.4062V14.4141V14.4219V14.4297V14.4375V14.4453V14.4531V14.4609V14.4688V14.4766V14.4844V14.4922V14.5V14.5078V14.5156V14.5234V14.5312V14.5391V14.5469V14.5547V14.5625V14.5703V14.5781V14.5859V14.5938V14.6016V14.6094V14.6172V14.625V14.6328V14.6406V14.6484V14.6562V14.6641V14.6719V14.6797V14.6875V14.6953V14.7031V14.7109V14.7188V14.7266V14.7344V14.7422V14.75V14.7578V14.7656V14.7734V14.7812V14.7891V14.7969V14.8047V14.8125V14.8203V14.8281V14.8359V14.8438V14.8516V14.8594V14.8672V14.875V14.8828V14.8906V14.8984V14.9062V14.9141V14.9219V14.9297V14.9375V14.9453V14.9531V14.9609V14.9688V14.9766V14.9844V14.9922V15V15.0078V15.0156V15.0234V15.0312V15.0391V15.0469V15.0547V15.0625V15.0703V15.0781V15.0859V15.0938V15.1016V15.1094V15.1172V15.125V15.1328V15.1406V15.1484V15.1562V15.1641V15.1719V15.1797V15.1875V15.1953V15.2031V15.2109V15.2188V15.2266V15.2344V15.2422V15.25V15.2578V15.2656V15.2734V15.2812V15.2891V15.2969V15.3047V15.3125V15.3203V15.3281V15.3359V15.3438V15.3516V15.3594V15.3672V15.375V15.3828V15.3906V15.3984V15.4062V15.4141V15.4219V15.4297V15.4375V15.4453V15.4531V15.4609V15.4688V15.4766V15.4844V15.4922V15.5V15.5078V15.5156V15.5234V15.5312V15.5391V15.5469V15.5547V15.5625V15.5703V15.5781V15.5859V15.5938V15.6016V15.6094V15.6172V15.625V15.6328V15.6406V15.6484V15.6562V15.6641V15.6719V15.6797V15.6875V15.6953V15.7031V15.7109V15.7188V15.7266V15.7344V15.7422V15.75V15.7578V15.7656V15.7734V15.7812V15.7891V15.7969V15.8047V15.8125V15.8203V15.8281V15.8359V15.8438V15.8516V15.8594V15.8672V15.875V15.8828V15.8906V15.8984V15.9062V15.9141V15.9219V15.9297V15.9375V15.9453V15.9531V15.9609V15.9688V15.9766V15.9844V15.9922V16V16.0078V16.0156V16.0234V16.0312V16.0391V16.0469V16.0547V16.0625V16.0703V16.0781V16.0859V16.0938V16.1016V16.1094V16.1172V16.125V16.1328V16.1406V16.1484V16.1562V16.1641V16.1719V16.1797V16.1875V16.1953V16.2031V16.2109V16.2188V16.2266V16.2344V16.2422V16.25V16.2578V16.2656V16.2734V16.2812V16.2891V16.2969V16.3047V16.3125V16.3203V16.3281V16.3359V16.3438V16.3516V16.3594V16.3672V16.375V16.3828V16.3906V16.3984V16.4062V16.4141V16.4219V16.4297V16.4375V16.4453V16.4531V16.4609V16.4688V16.4766V16.4844V16.4922V16.5V16.5078V16.5156V16.5234V16.5312V16.5391V16.5469V16.5547V16.5625V16.5703V16.5781V16.5859V16.5938V16.6016V16.6094V16.6172V16.625V16.6328V16.6406V16.6484V16.6562V16.6641V16.6719V16.6797V16.6875V16.6953V16.7031V16.7109V16.7188V16.7266V16.7344V16.7422V16.75V16.7578V16.7656V16.7734V16.7812V16.7891V16.7969V16.8047V16.8125V16.8203V16.8281V16.8359V16.8438V16.8516V16.8594V16.8672V16.875V16.8828V16.8906V16.8984V16.9062V16.9141V16.9219V16.9297V16.9375V16.9453V16.9531V16.9609V16.9688V16.9766V16.9844V16.9922V17C17.75 17.4142 17.4142 17.75 17 17.75C11.8496 17.75 7.64128 16.2019 4.71967 13.2803C1.79806 10.3587 0.25 6.15038 0.25 1ZM10.048 15.0127C11.8449 15.7427 13.9184 16.1641 16.25 16.2382V16.2344V16.2266V16.2188V16.2109V16.2031V16.1953V16.1875V16.1797V16.1719V16.1641V16.1562V16.1484V16.1406V16.1328V16.125V16.1172V16.1094V16.1016V16.0938V16.0859V16.0781V16.0703V16.0625V16.0547V16.0469V16.0391V16.0312V16.0234V16.0156V16.0078V16V15.9922V15.9844V15.9766V15.9688V15.9609V15.9531V15.9453V15.9375V15.9297V15.9219V15.9141V15.9062V15.8984V15.8906V15.8828V15.875V15.8672V15.8594V15.8516V15.8438V15.8359V15.8281V15.8203V15.8125V15.8047V15.7969V15.7891V15.7812V15.7734V15.7656V15.7578V15.75V15.7422V15.7344V15.7266V15.7188V15.7109V15.7031V15.6953V15.6875V15.6797V15.6719V15.6641V15.6562V15.6484V15.6406V15.6328V15.625V15.6172V15.6094V15.6016V15.5938V15.5859V15.5781V15.5703V15.5625V15.5547V15.5469V15.5391V15.5312V15.5234V15.5156V15.5078V15.5V15.4922V15.4844V15.4766V15.4688V15.4609V15.4531V15.4453V15.4375V15.4297V15.4219V15.4141V15.4062V15.3984V15.3906V15.3828V15.375V15.3672V15.3594V15.3516V15.3438V15.3359V15.3281V15.3203V15.3125V15.3047V15.2969V15.2891V15.2812V15.2734V15.2656V15.2578V15.25V15.2422V15.2344V15.2266V15.2188V15.2109V15.2031V15.1953V15.1875V15.1797V15.1719V15.1641V15.1562V15.1484V15.1406V15.1328V15.125V15.1172V15.1094V15.1016V15.0938V15.0859V15.0781V15.0703V15.0625V15.0547V15.0469V15.0391V15.0312V15.0234V15.0156V15.0078V15V14.9922V14.9844V14.9766V14.9688V14.9609V14.9531V14.9453V14.9375V14.9297V14.9219V14.9141V14.9062V14.8984V14.8906V14.8828V14.875V14.8672V14.8594V14.8516V14.8438V14.8359V14.8281V14.8203V14.8125V14.8047V14.7969V14.7891V14.7812V14.7734V14.7656V14.7578V14.75V14.7422V14.7344V14.7266V14.7188V14.7109V14.7031V14.6953V14.6875V14.6797V14.6719V14.6641V14.6562V14.6484V14.6406V14.6328V14.625V14.6172V14.6094V14.6016V14.5938V14.5859V14.5781V14.5703V14.5625V14.5547V14.5469V14.5391V14.5312V14.5234V14.5156V14.5078V14.5V14.4922V14.4844V14.4766V14.4688V14.4609V14.4531V14.4453V14.4375V14.4297V14.4219V14.4141V14.4062V14.3984V14.3906V14.3828V14.375V14.3672V14.3594V14.3516V14.3438V14.3359V14.3281V14.3203V14.3125V14.3047V14.2969V14.2891V14.2812V14.2734V14.2656V14.2578V14.25V14.2422V14.2344V14.2266V14.2188V14.2109V14.2031V14.1953V14.1875V14.1797V14.1719V14.1641V14.1562V14.1484V14.1406V14.1328V14.125V14.1172V14.1094V14.1016V14.0938V14.0859V14.0781V14.0703V14.0625V14.0547V14.0469V14.0391V14.0312V14.0234V14.0156V14.0078V14V13.9922V13.9844V13.9766V13.9688V13.9609V13.9531V13.9453V13.9375V13.9297V13.9219V13.9141V13.9062V13.8984V13.8906V13.8828V13.875V13.8672V13.8594V13.8516V13.8438V13.8359V13.8281V13.8203V13.8125V13.8047V13.7969V13.7891V13.7812V13.7734V13.7656V13.7578V13.75V13.7422V13.7344V13.7266V13.7188V13.7109V13.7031V13.6953V13.6875V13.6797V13.6719V13.6641V13.6562V13.6484V13.6406V13.6328V13.625V13.6172V13.6149L12.2465 12.8142L10.048 15.0127ZM2.98733 7.95201L5.18585 5.75349L4.38515 1.75H1.7618C1.83586 4.08157 2.2573 6.15507 2.98733 7.95201Z" fill="#1838BD"/>
</svg>
