<svg width="16" height="16" viewBox="0 0 16 16" fill="none" xmlns="http://www.w3.org/2000/svg">
<path d="M6.3796 3.45261C6.50626 3.45261 6.63293 3.49927 6.73293 3.59927C6.92626 3.79261 6.92626 4.11261 6.73293 4.30594L3.0396 7.99927L6.73293 11.6926C6.92626 11.8859 6.92626 12.2059 6.73293 12.3993C6.5396 12.5926 6.2196 12.5926 6.02626 12.3993L1.9796 8.35261C1.78626 8.15927 1.78626 7.83927 1.9796 7.64594L6.02626 3.59927C6.12626 3.49927 6.25293 3.45261 6.3796 3.45261Z" fill="#151622"/>
<path d="M2.44699 7.5L13.667 7.5C13.9403 7.5 14.167 7.72667 14.167 8C14.167 8.27333 13.9403 8.5 13.667 8.5L2.44699 8.5C2.17366 8.5 1.94699 8.27333 1.94699 8C1.94699 7.72667 2.17366 7.5 2.44699 7.5Z" fill="#151622"/>
</svg>
