<svg width="11" height="7" viewBox="0 0 11 7" fill="none" xmlns="http://www.w3.org/2000/svg">
<path d="M5.05324 2.74601L1.34074 6.45851C1.19928 6.59513 1.00983 6.67072 0.813185 6.66901C0.616538 6.66731 0.428428 6.58843 0.289372 6.44937C0.150316 6.31032 0.0714393 6.12221 0.0697305 5.92556C0.0680217 5.72891 0.143618 5.53946 0.280236 5.39801L4.52299 1.15526C4.66363 1.01466 4.85436 0.935669 5.05324 0.935669C5.25211 0.935669 5.44284 1.01466 5.58349 1.15526L9.82624 5.39801C9.96286 5.53946 10.0385 5.72891 10.0367 5.92556C10.035 6.12221 9.95616 6.31032 9.8171 6.44937C9.67804 6.58843 9.48994 6.66731 9.29329 6.66901C9.09664 6.67072 8.90719 6.59513 8.76574 6.45851L5.05324 2.74601Z" fill="#1838BD"/>
</svg>
