<svg width="18" height="18" viewBox="0 0 18 18" fill="none" xmlns="http://www.w3.org/2000/svg">
<path d="M10.05 8.55005V4.80005C10.05 4.60114 9.97103 4.41037 9.83038 4.26972C9.68973 4.12907 9.49896 4.05005 9.30005 4.05005C9.10114 4.05005 8.91037 4.12907 8.76972 4.26972C8.62907 4.41037 8.55005 4.60114 8.55005 4.80005V8.55005H4.80005C4.60114 8.55005 4.41037 8.62907 4.26972 8.76972C4.12907 8.91037 4.05005 9.10114 4.05005 9.30005C4.05005 9.49896 4.12907 9.68973 4.26972 9.83038C4.41037 9.97103 4.60114 10.05 4.80005 10.05H8.55005V13.8C8.55005 13.999 8.62907 14.1897 8.76972 14.3304C8.91037 14.471 9.10114 14.55 9.30005 14.55C9.49896 14.55 9.68973 14.471 9.83038 14.3304C9.97103 14.1897 10.05 13.999 10.05 13.8V10.05H13.8C13.999 10.05 14.1897 9.97103 14.3304 9.83038C14.471 9.68973 14.55 9.49896 14.55 9.30005C14.55 9.10114 14.471 8.91037 14.3304 8.76972C14.1897 8.62907 13.999 8.55005 13.8 8.55005H10.05Z" fill="white"/>
</svg>
