<svg width="16" height="16" viewBox="0 0 16 16" fill="none" xmlns="http://www.w3.org/2000/svg">
<path d="M6.3796 3.45252C6.50626 3.45252 6.63293 3.49918 6.73293 3.59918C6.92626 3.79251 6.92626 4.11252 6.73293 4.30585L3.0396 7.99918L6.73293 11.6925C6.92626 11.8859 6.92626 12.2059 6.73293 12.3992C6.5396 12.5925 6.2196 12.5925 6.02626 12.3992L1.9796 8.35252C1.78626 8.15918 1.78626 7.83918 1.9796 7.64585L6.02626 3.59918C6.12626 3.49918 6.25293 3.45252 6.3796 3.45252Z" fill="#1838BD"/>
<path d="M2.28 7.66675L13.5 7.66675C13.7733 7.66675 14 7.89342 14 8.16675C14 8.44008 13.7733 8.66675 13.5 8.66675L2.28 8.66675C2.00667 8.66675 1.78 8.44008 1.78 8.16675C1.78 7.89341 2.00667 7.66675 2.28 7.66675Z" fill="#1838BD"/>
</svg>
