<svg width="18" height="18" viewBox="0 0 18 18" fill="none" xmlns="http://www.w3.org/2000/svg">
<path d="M9 16.5C4.85775 16.5 1.5 13.1423 1.5 9C1.5 4.85775 4.85775 1.5 9 1.5C13.1423 1.5 16.5 4.85775 16.5 9C16.5 13.1423 13.1423 16.5 9 16.5ZM9 15C10.5913 15 12.1174 14.3679 13.2426 13.2426C14.3679 12.1174 15 10.5913 15 9C15 7.4087 14.3679 5.88258 13.2426 4.75736C12.1174 3.63214 10.5913 3 9 3C7.4087 3 5.88258 3.63214 4.75736 4.75736C3.63214 5.88258 3 7.4087 3 9C3 10.5913 3.63214 12.1174 4.75736 13.2426C5.88258 14.3679 7.4087 15 9 15ZM10.371 8.6895L7.4085 11.652C7.33882 11.7216 7.2561 11.7769 7.16508 11.8145C7.07405 11.8522 6.9765 11.8716 6.87799 11.8715C6.77947 11.8715 6.68193 11.8521 6.59093 11.8143C6.49994 11.7766 6.41726 11.7213 6.34762 11.6516C6.27799 11.5819 6.22276 11.4992 6.1851 11.4082C6.14743 11.3172 6.12806 11.2196 6.1281 11.1211C6.12817 10.9222 6.20727 10.7314 6.348 10.5907L9.3105 7.62825H6.621C6.42209 7.62825 6.23132 7.54923 6.09067 7.40858C5.95002 7.26793 5.871 7.07716 5.871 6.87825C5.871 6.67934 5.95002 6.48857 6.09067 6.34792C6.23132 6.20727 6.42209 6.12825 6.621 6.12825H11.121C11.2196 6.12795 11.3172 6.14715 11.4084 6.18474C11.4995 6.22232 11.5823 6.27755 11.652 6.34726C11.7217 6.41696 11.7769 6.49976 11.8145 6.59089C11.8521 6.68201 11.8713 6.77968 11.871 6.87825V11.3783C11.871 11.5772 11.792 11.7679 11.6513 11.9086C11.5107 12.0492 11.3199 12.1283 11.121 12.1283C10.9221 12.1283 10.7313 12.0492 10.5907 11.9086C10.45 11.7679 10.371 11.5772 10.371 11.3783V8.69025V8.6895Z" fill="#1838BD"/>
</svg>
