<svg width="16" height="16" viewBox="0 0 16 16" fill="none" xmlns="http://www.w3.org/2000/svg">
<path d="M9.21902 5.94271H5.49568C5.31887 5.94271 5.1493 5.87247 5.02428 5.74745C4.89926 5.62242 4.82902 5.45286 4.82902 5.27604C4.82902 5.09923 4.89926 4.92966 5.02428 4.80464C5.1493 4.67962 5.31887 4.60938 5.49568 4.60938H10.829C10.9166 4.60911 11.0034 4.62618 11.0845 4.65959C11.1655 4.693 11.2391 4.74209 11.301 4.80405C11.363 4.86601 11.4121 4.93961 11.4455 5.02061C11.4789 5.10161 11.4959 5.18842 11.4957 5.27604V10.6094C11.4957 10.7862 11.4254 10.9558 11.3004 11.0808C11.1754 11.2058 11.0058 11.276 10.829 11.276C10.6522 11.276 10.4826 11.2058 10.3576 11.0808C10.2326 10.9558 10.1624 10.7862 10.1624 10.6094V6.88538L5.64302 11.4047C5.51792 11.5297 5.3483 11.5999 5.17145 11.5998C4.9946 11.5998 4.82502 11.5295 4.70002 11.4044C4.57501 11.2793 4.50482 11.1097 4.50488 10.9328C4.50495 10.756 4.57526 10.5864 4.70035 10.4614L9.21902 5.94271Z" fill="#1838BD"/>
</svg>
