<svg width="18" height="18" viewBox="0 0 11 6" fill="none" xmlns="http://www.w3.org/2000/svg">
<path d="M5.30317 3.98553L9.01567 0.273034C9.08486 0.201401 9.16762 0.144264 9.25912 0.104957C9.35062 0.0656507 9.44904 0.0449611 9.54862 0.0440957C9.64821 0.0432303 9.74697 0.0622066 9.83914 0.0999173C9.93131 0.137628 10.0151 0.193318 10.0855 0.263737C10.1559 0.334157 10.2116 0.417896 10.2493 0.510068C10.287 0.60224 10.306 0.701 10.3051 0.800584C10.3042 0.900169 10.2836 0.998584 10.2443 1.09009C10.2049 1.18159 10.1478 1.26435 10.0762 1.33353L5.83342 5.57628C5.69278 5.71689 5.50205 5.79587 5.30317 5.79587C5.1043 5.79587 4.91357 5.71689 4.77292 5.57628L0.530175 1.33353C0.458542 1.26435 0.401405 1.18159 0.362099 1.09009C0.322792 0.998584 0.302102 0.900169 0.301237 0.800584C0.300371 0.701 0.319348 0.60224 0.357058 0.510068C0.394769 0.417896 0.450459 0.334157 0.520878 0.263737C0.591298 0.193318 0.675037 0.137628 0.767209 0.0999173C0.859381 0.0622066 0.958141 0.0432303 1.05773 0.0440957C1.15731 0.0449611 1.25572 0.0656507 1.34723 0.104957C1.43873 0.144264 1.52149 0.201401 1.59067 0.273034L5.30317 3.98553Z" fill="#151622"/>
</svg>
