<svg width="40" height="40" viewBox="0 0 40 40" fill="none" xmlns="http://www.w3.org/2000/svg">
<rect width="40" height="40" rx="8" fill="#F1F3FF"/>
<path d="M19.9991 21.3008C19.8691 21.3008 19.7391 21.2708 19.6191 21.2008L10.7891 16.0908C10.4391 15.8808 10.3091 15.4208 10.5191 15.0608C10.7291 14.7008 11.1891 14.5808 11.5491 14.7908L19.9991 19.6808L28.3991 14.8208C28.7591 14.6108 29.2191 14.7408 29.4291 15.0908C29.6391 15.4508 29.5091 15.9108 29.1591 16.1208L20.3891 21.2008C20.2591 21.2608 20.1291 21.3008 19.9991 21.3008Z" fill="#1838BD"/>
<path d="M20 30.3591C19.59 30.3591 19.25 30.0191 19.25 29.6091V20.5391C19.25 20.1291 19.59 19.7891 20 19.7891C20.41 19.7891 20.75 20.1291 20.75 20.5391V29.6091C20.75 30.0191 20.41 30.3591 20 30.3591Z" fill="#1838BD"/>
<path d="M20.0006 30.75C19.1206 30.75 18.2506 30.56 17.5606 30.18L12.2206 27.21C10.7706 26.41 9.64062 24.48 9.64062 22.82V17.17C9.64062 15.51 10.7706 13.59 12.2206 12.78L17.5606 9.82C18.9306 9.06 21.0706 9.06 22.4406 9.82L27.7806 12.79C29.2306 13.59 30.3606 15.52 30.3606 17.18V22.83C30.3606 24.49 29.2306 26.41 27.7806 27.22L22.4406 30.18C21.7506 30.56 20.8806 30.75 20.0006 30.75ZM20.0006 10.75C19.3706 10.75 18.7506 10.88 18.2906 11.13L12.9506 14.1C11.9906 14.63 11.1406 16.07 11.1406 17.17V22.82C11.1406 23.92 11.9906 25.36 12.9506 25.9L18.2906 28.87C19.2006 29.38 20.8006 29.38 21.7106 28.87L27.0506 25.9C28.0106 25.36 28.8606 23.93 28.8606 22.82V17.17C28.8606 16.07 28.0106 14.63 27.0506 14.09L21.7106 11.12C21.2506 10.88 20.6306 10.75 20.0006 10.75Z" fill="#1838BD"/>
</svg>
