<svg width="18" height="18" viewBox="0 0 18 18" fill="none" xmlns="http://www.w3.org/2000/svg">
<path opacity="0.4" d="M15.7807 5.3925L9.00067 9.315L2.2207 5.3925C2.5207 4.8375 2.9557 4.35 3.4432 4.08L7.4482 1.86C8.30317 1.38 9.69817 1.38 10.5532 1.86L14.5582 4.08C15.0457 4.35 15.4807 4.8375 15.7807 5.3925Z" fill="#486AE2"/>
<path opacity="0.6" d="M9.00045 9.31605V16.501C8.43795 16.501 7.87545 16.381 7.44797 16.141L3.44298 13.921C2.53548 13.4185 1.79297 12.1585 1.79297 11.1235V6.87855C1.79297 6.39855 1.95797 5.87355 2.22047 5.39355L9.00045 9.31605Z" fill="#486AE2"/>
<path d="M16.2075 6.87855V11.1235C16.2075 12.1585 15.465 13.4185 14.5575 13.921L10.5525 16.141C10.125 16.381 9.5625 16.501 9 16.501V9.31605L15.78 5.39355C16.0425 5.87355 16.2075 6.39855 16.2075 6.87855Z" fill="#486AE2"/>
</svg>
