<svg width="34" height="34" viewBox="0 0 34 34" fill="none" xmlns="http://www.w3.org/2000/svg">
<path d="M0 4C0 1.79086 1.79086 0 4 0H30C32.2091 0 34 1.79086 34 4V30C34 32.2091 32.2091 34 30 34H4C1.79086 34 0 32.2091 0 30V4Z" fill="#F1F3F6"/>
<path d="M14.5302 22.7802L21.5 15.8105L18.1895 12.5L11.2198 19.4697C11.1238 19.5658 11.0556 19.686 11.0225 19.8177L10.25 23.75L14.1815 22.9775C14.3135 22.9445 14.4342 22.8762 14.5302 22.7802ZM23.75 13.5605C24.0312 13.2792 24.1892 12.8977 24.1892 12.5C24.1892 12.1022 24.0312 11.7208 23.75 11.4395L22.5605 10.25C22.2792 9.96876 21.8977 9.81079 21.5 9.81079C21.1023 9.81079 20.7208 9.96876 20.4395 10.25L19.25 11.4395L22.5605 14.75L23.75 13.5605Z" fill="#151622"/>
</svg>
