<svg width="15" height="15" viewBox="0 0 15 15" fill="none" xmlns="http://www.w3.org/2000/svg">
<path d="M4.53025 13.7802L11.5 6.81047L8.1895 3.49997L1.21975 10.4697C1.1238 10.5658 1.05564 10.686 1.0225 10.8177L0.25 14.75L4.1815 13.9775C4.3135 13.9445 4.43425 13.8762 4.53025 13.7802V13.7802ZM13.75 4.56047C14.0312 4.27918 14.1892 3.89772 14.1892 3.49997C14.1892 3.10222 14.0312 2.72076 13.75 2.43947L12.5605 1.24997C12.2792 0.968764 11.8977 0.810791 11.5 0.810791C11.1023 0.810791 10.7208 0.968764 10.4395 1.24997L9.25 2.43947L12.5605 5.74997L13.75 4.56047Z" fill="#151622"/>
</svg>
