<svg width="34" height="34" viewBox="0 0 34 34" fill="none" xmlns="http://www.w3.org/2000/svg">
<path d="M0 4C0 1.79086 1.79086 0 4 0H30C32.2091 0 34 1.79086 34 4V30C34 32.2091 32.2091 34 30 34H4C1.79086 34 0 32.2091 0 30V4Z" fill="#F1F3F6"/>
<path d="M23.8023 11.9225C22.5948 11.8025 21.3873 11.7125 20.1723 11.645V11.6375L20.0073 10.6625C19.8948 9.9725 19.7298 8.9375 17.9748 8.9375H16.0098C14.2623 8.9375 14.0973 9.9275 13.9773 10.655L13.8198 11.615C13.1223 11.66 12.4248 11.705 11.7273 11.7725L10.1973 11.9225C9.88225 11.9525 9.65725 12.23 9.68725 12.5375C9.71725 12.845 9.98725 13.07 10.3023 13.04L11.8323 12.89C15.7623 12.5 19.7223 12.65 23.6973 13.0475C23.7198 13.0475 23.7348 13.0475 23.7573 13.0475C24.0423 13.0475 24.2898 12.83 24.3198 12.5375C24.3423 12.23 24.1173 11.9525 23.8023 11.9225Z" fill="#151622"/>
<path opacity="0.3991" d="M22.4223 14.105C22.2423 13.9175 21.9948 13.8125 21.7398 13.8125H12.2598C12.0048 13.8125 11.7498 13.9175 11.5773 14.105C11.4048 14.2925 11.3073 14.5475 11.3223 14.81L11.7873 22.505C11.8698 23.645 11.9748 25.07 14.5923 25.07H19.4073C22.0248 25.07 22.1298 23.6525 22.2123 22.505L22.6773 14.8175C22.6923 14.5475 22.5948 14.2925 22.4223 14.105Z" fill="#151622"/>
<path fill-rule="evenodd" clip-rule="evenodd" d="M15.1851 20.75C15.1851 20.4394 15.4369 20.1875 15.7476 20.1875H18.2451C18.5557 20.1875 18.8076 20.4394 18.8076 20.75C18.8076 21.0606 18.5557 21.3125 18.2451 21.3125H15.7476C15.4369 21.3125 15.1851 21.0606 15.1851 20.75Z" fill="#151622"/>
<path fill-rule="evenodd" clip-rule="evenodd" d="M14.5625 17.75C14.5625 17.4394 14.8143 17.1875 15.125 17.1875H18.875C19.1856 17.1875 19.4375 17.4394 19.4375 17.75C19.4375 18.0606 19.1856 18.3125 18.875 18.3125H15.125C14.8143 18.3125 14.5625 18.0606 14.5625 17.75Z" fill="#151622"/>
</svg>
