<svg width="16" height="16" viewBox="0 0 16 16" fill="none" xmlns="http://www.w3.org/2000/svg">
<path d="M6.3796 3.45264C6.50626 3.45264 6.63293 3.4993 6.73293 3.5993C6.92626 3.79264 6.92626 4.11264 6.73293 4.30597L3.0396 7.9993L6.73293 11.6926C6.92626 11.886 6.92626 12.206 6.73293 12.3993C6.5396 12.5926 6.2196 12.5926 6.02626 12.3993L1.9796 8.35264C1.78626 8.1593 1.78626 7.8393 1.9796 7.64597L6.02626 3.5993C6.12626 3.4993 6.25293 3.45264 6.3796 3.45264Z" fill="#1838BD"/>
<path d="M2.28 7.66663L13.5 7.66663C13.7733 7.66663 14 7.89329 14 8.16663C14 8.43996 13.7733 8.66663 13.5 8.66663L2.28 8.66662C2.00667 8.66662 1.78 8.43996 1.78 8.16663C1.78 7.89329 2.00667 7.66663 2.28 7.66663Z" fill="#1838BD"/>
</svg>
