<svg width="16" height="16" viewBox="0 0 16 16" fill="none" xmlns="http://www.w3.org/2000/svg">
<path d="M4.66699 9.33398H6.00033V10.6673H4.66699V9.33398Z" fill="#1838BD"/>
<path d="M12.6667 1.33301H7.33333C6.97971 1.33301 6.64057 1.47348 6.39052 1.72353C6.14048 1.97358 6 2.31272 6 2.66634V6.66634H3.33333C2.598 6.66634 2 7.26434 2 7.99967V13.9997C2 14.1765 2.07024 14.3461 2.19526 14.4711C2.32029 14.5961 2.48986 14.6663 2.66667 14.6663H13.3333C13.5101 14.6663 13.6797 14.5961 13.8047 14.4711C13.9298 14.3461 14 14.1765 14 13.9997V2.66634C14 2.31272 13.8595 1.97358 13.6095 1.72353C13.3594 1.47348 13.0203 1.33301 12.6667 1.33301ZM3.33333 13.333V7.99967H7.33333V13.333H3.33333ZM9.33333 5.33301H8V3.99967H9.33333V5.33301ZM12 10.6663H10.6667V9.33301H12V10.6663ZM12 7.99967H10.6667V6.66634H12V7.99967ZM12 5.33301H10.6667V3.99967H12V5.33301Z" fill="#1838BD"/>
</svg>
