<svg width="18" height="18" viewBox="0 0 18 18" fill="none" xmlns="http://www.w3.org/2000/svg">
<path fill-rule="evenodd" clip-rule="evenodd" d="M12.314 1.95225C12.2796 1.69685 12.0623 1.5 11.7995 1.5C11.5127 1.5 11.2802 1.73427 11.2802 2.02326V2.60176H6.7261V2.02326L6.72136 1.95225C6.68698 1.69685 6.46974 1.5 6.20687 1.5C5.92011 1.5 5.68765 1.73427 5.68765 2.02326V2.61476C3.55991 2.7613 2.25 4.13994 2.25 6.36434V12.678C2.25 15.0654 3.71875 16.5 6.07219 16.5H11.9277C14.284 16.5 15.7499 15.0894 15.7499 12.7308V6.36434C15.7567 4.13915 14.451 2.76089 12.3187 2.6147V2.02326L12.314 1.95225ZM11.2802 3.64828V4.31915L11.285 4.39015C11.3194 4.64555 11.5366 4.8424 11.7995 4.8424C12.0862 4.8424 12.3187 4.60813 12.3187 4.31915V3.66374C13.8701 3.79282 14.7165 4.72705 14.7115 6.36274V6.66576H3.28846V6.36434C3.28846 4.72969 4.13944 3.79348 5.68765 3.66385V4.31915L5.69239 4.39015C5.72677 4.64555 5.94401 4.8424 6.20687 4.8424C6.49364 4.8424 6.7261 4.60813 6.7261 4.31915V3.64828H11.2802ZM3.28846 7.71227V12.678C3.28846 14.48 4.28514 15.4535 6.07219 15.4535H11.9277C13.7209 15.4535 14.7115 14.5004 14.7115 12.7308L14.7115 7.71227H3.28846ZM12.6009 9.91374C12.6009 9.62475 12.3684 9.39048 12.0817 9.39048L12.0048 9.39526C11.7514 9.42991 11.556 9.64883 11.556 9.91374C11.556 10.2027 11.7885 10.437 12.0817 10.437L12.1521 10.4322C12.4056 10.3976 12.6009 10.1786 12.6009 9.91374ZM9.00958 9.39048C9.29634 9.39048 9.52881 9.62475 9.52881 9.91374C9.52881 10.1786 9.33347 10.3976 9.08004 10.4322L9.00958 10.437C8.71641 10.437 8.48394 10.2027 8.48394 9.91374C8.48394 9.64883 8.67928 9.42991 8.93271 9.39526L9.00958 9.39048ZM6.45032 9.91374C6.45032 9.62475 6.21785 9.39048 5.93109 9.39048L5.85422 9.39526C5.60079 9.42991 5.40545 9.64883 5.40545 9.91374C5.40545 10.2027 5.63792 10.437 5.92468 10.437L6.00155 10.4322C6.25498 10.3976 6.45032 10.1786 6.45032 9.91374ZM12.0817 12.102C12.3684 12.102 12.6009 12.3363 12.6009 12.6253C12.6009 12.8902 12.4056 13.1091 12.1521 13.1437L12.0817 13.1485C11.7885 13.1485 11.556 12.9143 11.556 12.6253C11.556 12.3604 11.7514 12.1414 12.0048 12.1068L12.0817 12.102ZM9.52881 12.6253C9.52881 12.3363 9.29634 12.102 9.00958 12.102L8.93271 12.1068C8.67928 12.1414 8.48394 12.3604 8.48394 12.6253C8.48394 12.9143 8.71641 13.1485 9.00958 13.1485L9.08004 13.1437C9.33347 13.1091 9.52881 12.8902 9.52881 12.6253ZM5.93109 12.102C6.21785 12.102 6.45032 12.3363 6.45032 12.6253C6.45032 12.8902 6.25498 13.1091 6.00155 13.1437L5.92468 13.1485C5.63792 13.1485 5.40545 12.9143 5.40545 12.6253C5.40545 12.3604 5.60079 12.1414 5.85422 12.1068L5.93109 12.102Z" fill="#151622"/>
</svg>
