<svg width="24" height="24" viewBox="0 0 24 24" fill="none" xmlns="http://www.w3.org/2000/svg">
<path fill-rule="evenodd" clip-rule="evenodd" d="M8.75005 1C8.75005 0.585786 8.41426 0.25 8.00005 0.25C7.58584 0.25 7.25005 0.585786 7.25005 1V2.25912C6.53073 2.27754 5.97879 2.33259 5.49054 2.49624C4.07817 2.96962 2.96966 4.07812 2.49629 5.49049C2.24947 6.22688 2.24969 7.10812 2.25002 8.48999L2.25005 8.64706V14.6L2.25005 14.633C2.25004 15.7251 2.25004 16.5906 2.30704 17.2883C2.36532 18.0017 2.48693 18.6053 2.76777 19.1565C3.22317 20.0502 3.94982 20.7769 4.84359 21.2323C5.39477 21.5131 5.99839 21.6347 6.71178 21.693C7.4094 21.75 8.27489 21.75 9.36703 21.75H9.40005H14.6H14.6331C15.7252 21.75 16.5907 21.75 17.2883 21.693C18.0017 21.6347 18.6053 21.5131 19.1565 21.2323C20.0503 20.7769 20.7769 20.0502 21.2323 19.1565C21.5132 18.6053 21.6348 18.0017 21.6931 17.2883C21.7501 16.5906 21.7501 15.7252 21.75 14.633V14.6V9.4V9.36698C21.7501 8.27485 21.7501 7.40935 21.6931 6.71173C21.6348 5.99834 21.5132 5.39472 21.2323 4.84354C20.7769 3.94978 20.0503 3.22312 19.1565 2.76772C18.6053 2.48688 18.0017 2.36527 17.2883 2.30699C17.1191 2.29316 16.9399 2.28269 16.75 2.27475V1C16.75 0.585786 16.4143 0.25 16 0.25C15.5858 0.25 15.25 0.585786 15.25 1V2.25043C15.0528 2.25 14.8473 2.25 14.6331 2.25H14.6331L14.6 2.25H8.75005V1ZM15.25 4V3.75049C15.046 3.75002 14.8298 3.75 14.6 3.75H8.75005V4C8.75005 4.41421 8.41426 4.75 8.00005 4.75C7.58584 4.75 7.25005 4.41421 7.25005 4V3.76077C6.6236 3.77713 6.26733 3.81789 5.96723 3.91848C5.00087 4.24237 4.24242 5.00082 3.91853 5.96718C3.75985 6.44061 3.75005 7.05384 3.75005 8.64706V14.6C3.75005 15.7325 3.75063 16.5367 3.80206 17.1661C3.85276 17.7867 3.94914 18.171 4.10428 18.4755C4.41587 19.087 4.91305 19.5842 5.52458 19.8958C5.82905 20.0509 6.2133 20.1473 6.83393 20.198C7.46331 20.2494 8.26757 20.25 9.40005 20.25H14.6C15.7325 20.25 16.5368 20.2494 17.1662 20.198C17.7868 20.1473 18.171 20.0509 18.4755 19.8958C19.087 19.5842 19.5842 19.087 19.8958 18.4755C20.051 18.171 20.1473 17.7867 20.198 17.1661C20.2495 16.5367 20.25 15.7325 20.25 14.6V9.4C20.25 8.26752 20.2495 7.46326 20.198 6.83388C20.1473 6.21325 20.051 5.829 19.8958 5.52453C19.5842 4.913 19.087 4.41582 18.4755 4.10423C18.171 3.94909 17.7868 3.85271 17.1662 3.80201C17.0355 3.79133 16.8972 3.78284 16.75 3.7761V4C16.75 4.41421 16.4143 4.75 16 4.75C15.5858 4.75 15.25 4.41421 15.25 4ZM12.75 8C12.75 7.58579 12.4142 7.25 12 7.25C11.5858 7.25 11.25 7.58579 11.25 8V11.25H8C7.58579 11.25 7.25 11.5858 7.25 12C7.25 12.4142 7.58579 12.75 8 12.75H11.25V16C11.25 16.4142 11.5858 16.75 12 16.75C12.4142 16.75 12.75 16.4142 12.75 16V12.75H16C16.4142 12.75 16.75 12.4142 16.75 12C16.75 11.5858 16.4142 11.25 16 11.25H12.75V8Z" fill="#1838BD"/>
</svg>
