<svg width="16" height="17" viewBox="0 0 16 17" fill="none" xmlns="http://www.w3.org/2000/svg">
<path fill-rule="evenodd" clip-rule="evenodd" d="M5.75 0.75C5.75 0.335786 5.41421 0 5 0C4.58579 0 4.25 0.335786 4.25 0.75V1.60588C2.1749 2.05083 0.606057 3.84629 0.505069 6.03063C0.499989 6.14051 0.499994 6.2658 0.5 6.46287V6.46289V6.48529V9.35V9.383V9.38304C0.499995 10.4752 0.499991 11.3407 0.556989 12.0383C0.615275 12.7517 0.736883 13.3553 1.01772 13.9065C1.47312 14.8002 2.19978 15.5269 3.09355 15.9823C3.64472 16.2631 4.24835 16.3847 4.96173 16.443C5.65935 16.5 6.52484 16.5 7.61696 16.5H7.61703H7.65H8.35H8.38297H8.38304C9.47517 16.5 10.3407 16.5 11.0383 16.443C11.7517 16.3847 12.3553 16.2631 12.9065 15.9823C13.8002 15.5269 14.5269 14.8002 14.9823 13.9065C15.2631 13.3553 15.3847 12.7517 15.443 12.0383C15.5 11.3407 15.5 10.4752 15.5 9.38315V9.38313V9.38312V9.38311V9.38309V9.38308V9.38306V9.38305V9.38303V9.38302V9.35V8.65V8.61698V8.61697V8.61695V8.61694V8.61692V8.61691V8.61689V8.61688V8.61687V8.61685C15.5 7.52478 15.5 6.65933 15.443 5.96173C15.3847 5.24834 15.2631 4.64472 14.9823 4.09354C14.5269 3.19978 13.8002 2.47312 12.9065 2.01772C12.5484 1.83526 12.1681 1.72001 11.75 1.64567V0.75C11.75 0.335786 11.4142 0 11 0C10.5858 0 10.25 0.335786 10.25 0.75V1.51589C9.71351 1.49999 9.09665 1.5 8.38302 1.5H8.383L8.35 1.5H5.75V0.75ZM11 3.75C10.5913 3.75 10.259 3.4231 10.2502 3.01652C9.73601 3.00027 9.1186 3 8.35 3H5.75C5.75 3.41421 5.41421 3.75 5 3.75C4.6379 3.75 4.33574 3.4934 4.26544 3.15211C2.99696 3.55475 2.0676 4.71271 2.00347 6.09991C2.0002 6.17055 2 6.25844 2 6.48529V9.35C2 10.4825 2.00058 11.2867 2.05201 11.9161C2.10271 12.5367 2.19909 12.921 2.35423 13.2255C2.66582 13.837 3.163 14.3342 3.77453 14.6458C4.079 14.8009 4.46325 14.8973 5.08388 14.948C5.71327 14.9994 6.51752 15 7.65 15H8.35C9.48248 15 10.2867 14.9994 10.9161 14.948C11.5367 14.8973 11.921 14.8009 12.2255 14.6458C12.837 14.3342 13.3342 13.837 13.6458 13.2255C13.8009 12.921 13.8973 12.5367 13.948 11.9161C13.9994 11.2867 14 10.4825 14 9.35V8.65C14 7.51752 13.9994 6.71326 13.948 6.08388C13.8973 5.46325 13.8009 5.079 13.6458 4.77453C13.3342 4.163 12.837 3.66582 12.2255 3.35423C12.083 3.28166 11.9232 3.22194 11.7298 3.17375C11.6514 3.50418 11.3544 3.75 11 3.75ZM4.25001 5.25C3.8358 5.25 3.50001 5.58579 3.50001 6C3.50001 6.41421 3.8358 6.75 4.25001 6.75H11.75C12.1642 6.75 12.5 6.41421 12.5 6C12.5 5.58579 12.1642 5.25 11.75 5.25H4.25001ZM5.75001 9C5.75001 9.41421 5.41422 9.75 5.00001 9.75C4.5858 9.75 4.25001 9.41421 4.25001 9C4.25001 8.58579 4.5858 8.25 5.00001 8.25C5.41422 8.25 5.75001 8.58579 5.75001 9ZM5.00001 12.75C5.41422 12.75 5.75001 12.4142 5.75001 12C5.75001 11.5858 5.41422 11.25 5.00001 11.25C4.5858 11.25 4.25001 11.5858 4.25001 12C4.25001 12.4142 4.5858 12.75 5.00001 12.75ZM8.75001 12C8.75001 12.4142 8.41422 12.75 8.00001 12.75C7.5858 12.75 7.25001 12.4142 7.25001 12C7.25001 11.5858 7.5858 11.25 8.00001 11.25C8.41422 11.25 8.75001 11.5858 8.75001 12ZM11 12.75C11.4142 12.75 11.75 12.4142 11.75 12C11.75 11.5858 11.4142 11.25 11 11.25C10.5858 11.25 10.25 11.5858 10.25 12C10.25 12.4142 10.5858 12.75 11 12.75ZM8.75001 9C8.75001 9.41421 8.41422 9.75 8.00001 9.75C7.5858 9.75 7.25001 9.41421 7.25001 9C7.25001 8.58579 7.5858 8.25 8.00001 8.25C8.41422 8.25 8.75001 8.58579 8.75001 9ZM11 9.75C11.4142 9.75 11.75 9.41421 11.75 9C11.75 8.58579 11.4142 8.25 11 8.25C10.5858 8.25 10.25 8.58579 10.25 9C10.25 9.41421 10.5858 9.75 11 9.75Z" fill="#151622"/>
</svg>
