<svg width="16" height="16" viewBox="0 0 16 16" fill="none" xmlns="http://www.w3.org/2000/svg">
<path d="M11.1671 2.37301V1.33301C11.1671 1.05967 10.9405 0.833008 10.6671 0.833008C10.3938 0.833008 10.1671 1.05967 10.1671 1.33301V2.33301H5.83381V1.33301C5.83381 1.05967 5.60714 0.833008 5.33381 0.833008C5.06048 0.833008 4.83381 1.05967 4.83381 1.33301V2.37301C3.03381 2.53967 2.16048 3.61301 2.02714 5.20634C2.01381 5.39967 2.17381 5.55967 2.36048 5.55967H13.6405C13.8338 5.55967 13.9938 5.39301 13.9738 5.20634C13.8405 3.61301 12.9671 2.53967 11.1671 2.37301Z" fill="#1838BD"/>
<path d="M13.3333 6.55957H2.66667C2.3 6.55957 2 6.85954 2 7.22621V11.3329C2 13.3329 3 14.6662 5.33333 14.6662H10.6667C13 14.6662 14 13.3329 14 11.3329V7.22621C14 6.85954 13.7 6.55957 13.3333 6.55957ZM6.14 12.1395C6.10667 12.1662 6.07333 12.1995 6.04 12.2195C6 12.2462 5.96 12.2662 5.92 12.2795C5.88 12.2995 5.84 12.3129 5.8 12.3195C5.75333 12.3262 5.71333 12.3329 5.66667 12.3329C5.58 12.3329 5.49333 12.3129 5.41333 12.2795C5.32667 12.2462 5.26 12.1995 5.19333 12.1395C5.07333 12.0129 5 11.8395 5 11.6662C5 11.4929 5.07333 11.3195 5.19333 11.1929C5.26 11.1329 5.32667 11.0862 5.41333 11.0529C5.53333 10.9995 5.66667 10.9862 5.8 11.0129C5.84 11.0195 5.88 11.0329 5.92 11.0529C5.96 11.0662 6 11.0862 6.04 11.1129C6.07333 11.1395 6.10667 11.1662 6.14 11.1929C6.26 11.3195 6.33333 11.4929 6.33333 11.6662C6.33333 11.8395 6.26 12.0129 6.14 12.1395ZM6.14 9.80621C6.01333 9.92621 5.84 9.99954 5.66667 9.99954C5.49333 9.99954 5.32 9.92621 5.19333 9.80621C5.07333 9.67954 5 9.50621 5 9.33288C5 9.15954 5.07333 8.98621 5.19333 8.85954C5.38 8.67288 5.67333 8.61288 5.92 8.71954C6.00667 8.75288 6.08 8.79954 6.14 8.85954C6.26 8.98621 6.33333 9.15954 6.33333 9.33288C6.33333 9.50621 6.26 9.67954 6.14 9.80621ZM8.47333 12.1395C8.34667 12.2595 8.17333 12.3329 8 12.3329C7.82667 12.3329 7.65333 12.2595 7.52667 12.1395C7.40667 12.0129 7.33333 11.8395 7.33333 11.6662C7.33333 11.4929 7.40667 11.3195 7.52667 11.1929C7.77333 10.9462 8.22667 10.9462 8.47333 11.1929C8.59333 11.3195 8.66667 11.4929 8.66667 11.6662C8.66667 11.8395 8.59333 12.0129 8.47333 12.1395ZM8.47333 9.80621C8.44 9.83288 8.40667 9.85954 8.37333 9.88621C8.33333 9.91288 8.29333 9.93288 8.25333 9.94621C8.21333 9.96621 8.17333 9.97954 8.13333 9.98621C8.08667 9.99288 8.04667 9.99954 8 9.99954C7.82667 9.99954 7.65333 9.92621 7.52667 9.80621C7.40667 9.67954 7.33333 9.50621 7.33333 9.33288C7.33333 9.15954 7.40667 8.98621 7.52667 8.85954C7.58667 8.79954 7.66 8.75288 7.74667 8.71954C7.99333 8.61288 8.28667 8.67288 8.47333 8.85954C8.59333 8.98621 8.66667 9.15954 8.66667 9.33288C8.66667 9.50621 8.59333 9.67954 8.47333 9.80621ZM10.8067 12.1395C10.68 12.2595 10.5067 12.3329 10.3333 12.3329C10.16 12.3329 9.98667 12.2595 9.86 12.1395C9.74 12.0129 9.66667 11.8395 9.66667 11.6662C9.66667 11.4929 9.74 11.3195 9.86 11.1929C10.1067 10.9462 10.56 10.9462 10.8067 11.1929C10.9267 11.3195 11 11.4929 11 11.6662C11 11.8395 10.9267 12.0129 10.8067 12.1395ZM10.8067 9.80621C10.7733 9.83288 10.74 9.85954 10.7067 9.88621C10.6667 9.91288 10.6267 9.93288 10.5867 9.94621C10.5467 9.96621 10.5067 9.97954 10.4667 9.98621C10.42 9.99288 10.3733 9.99954 10.3333 9.99954C10.16 9.99954 9.98667 9.92621 9.86 9.80621C9.74 9.67954 9.66667 9.50621 9.66667 9.33288C9.66667 9.15954 9.74 8.98621 9.86 8.85954C9.92667 8.79954 9.99333 8.75288 10.08 8.71954C10.2 8.66621 10.3333 8.65288 10.4667 8.67954C10.5067 8.68621 10.5467 8.69954 10.5867 8.71954C10.6267 8.73288 10.6667 8.75288 10.7067 8.77954C10.74 8.80621 10.7733 8.83288 10.8067 8.85954C10.9267 8.98621 11 9.15954 11 9.33288C11 9.50621 10.9267 9.67954 10.8067 9.80621Z" fill="#1838BD"/>
</svg>
