<svg width="18" height="18" viewBox="0 0 18 18" fill="none" xmlns="http://www.w3.org/2000/svg">
<path fill-rule="evenodd" clip-rule="evenodd" d="M3 9C3 5.68629 5.68629 3 9 3C12.3137 3 15 5.68629 15 9C15 12.3137 12.3137 15 9 15C5.68629 15 3 12.3137 3 9ZM9 1.5C4.85786 1.5 1.5 4.85786 1.5 9C1.5 13.1421 4.85786 16.5 9 16.5C13.1421 16.5 16.5 13.1421 16.5 9C16.5 4.85786 13.1421 1.5 9 1.5ZM12.5303 7.28033C12.8232 6.98744 12.8232 6.51256 12.5303 6.21967C12.2374 5.92678 11.7626 5.92678 11.4697 6.21967L8.25 9.43934L7.28033 8.46967C6.98744 8.17678 6.51256 8.17678 6.21967 8.46967C5.92678 8.76256 5.92678 9.23744 6.21967 9.53033L7.71967 11.0303C7.86032 11.171 8.05109 11.25 8.25 11.25C8.44891 11.25 8.63968 11.171 8.78033 11.0303L12.5303 7.28033Z" fill="#979AA4"/>
</svg>
