<svg width="16" height="16" viewBox="0 0 16 16" fill="none" xmlns="http://www.w3.org/2000/svg">
<path d="M13.069 4.21993C13.1372 4.1503 13.2187 4.09498 13.3086 4.05722C13.3985 4.01945 13.495 4 13.5925 4C13.69 4 13.7865 4.01945 13.8764 4.05722C13.9663 4.09498 14.0477 4.1503 14.116 4.21993C14.402 4.50893 14.406 4.97593 14.126 5.26993L8.21299 12.2599C8.14585 12.3337 8.06439 12.3929 7.97357 12.4341C7.88275 12.4752 7.78449 12.4974 7.68479 12.4993C7.5851 12.5011 7.48608 12.4827 7.39378 12.4449C7.30148 12.4072 7.21784 12.3511 7.14799 12.2799L3.54999 8.63393C3.41123 8.49242 3.3335 8.30213 3.3335 8.10393C3.3335 7.90574 3.41123 7.71545 3.54999 7.57393C3.61823 7.5043 3.69969 7.44898 3.78958 7.41122C3.87947 7.37345 3.97599 7.354 4.07349 7.354C4.17099 7.354 4.26751 7.37345 4.3574 7.41122C4.44729 7.44898 4.52874 7.5043 4.59699 7.57393L7.64899 10.6669L13.049 4.24193C13.0552 4.23421 13.0619 4.22686 13.069 4.21993Z" fill="white"/>
</svg>
