<svg width="16" height="16" viewBox="0 0 16 16" fill="none" xmlns="http://www.w3.org/2000/svg">
<path d="M8.04775 8.87596L11.3478 5.57596C11.4093 5.51229 11.4828 5.4615 11.5642 5.42656C11.6455 5.39162 11.733 5.37323 11.8215 5.37246C11.91 5.37169 11.9978 5.38856 12.0797 5.42208C12.1617 5.4556 12.2361 5.5051 12.2987 5.5677C12.3613 5.63029 12.4108 5.70473 12.4443 5.78666C12.4778 5.86859 12.4947 5.95638 12.4939 6.0449C12.4932 6.13342 12.4748 6.2209 12.4398 6.30223C12.4049 6.38357 12.3541 6.45713 12.2904 6.51863L8.51909 10.29C8.39407 10.4149 8.22453 10.4852 8.04775 10.4852C7.87098 10.4852 7.70144 10.4149 7.57642 10.29L3.80509 6.51863C3.74141 6.45713 3.69063 6.38357 3.65569 6.30223C3.62075 6.2209 3.60236 6.13342 3.60159 6.0449C3.60082 5.95638 3.61769 5.86859 3.65121 5.78666C3.68473 5.70473 3.73423 5.63029 3.79682 5.5677C3.85942 5.5051 3.93385 5.4556 4.01579 5.42208C4.09772 5.38856 4.1855 5.37169 4.27402 5.37246C4.36254 5.37323 4.45002 5.39162 4.53136 5.42656C4.61269 5.4615 4.68626 5.51229 4.74775 5.57596L8.04775 8.87596Z" fill="#151622"/>
</svg>
