<svg width="18" height="18" viewBox="0 0 18 18" fill="none" xmlns="http://www.w3.org/2000/svg">
<path d="M9.05287 7.74601L5.34037 11.4585C5.19892 11.5951 5.00947 11.6707 4.81282 11.669C4.61617 11.6673 4.42806 11.5884 4.28901 11.4494C4.14995 11.3103 4.07107 11.1222 4.06936 10.9256C4.06766 10.7289 4.14325 10.5395 4.27987 10.398L8.52262 6.15526C8.66327 6.01466 8.854 5.93567 9.05287 5.93567C9.25174 5.93567 9.44247 6.01466 9.58312 6.15526L13.8259 10.398C13.9625 10.5395 14.0381 10.7289 14.0364 10.9256C14.0347 11.1222 13.9558 11.3103 13.8167 11.4494C13.6777 11.5884 13.4896 11.6673 13.2929 11.669C13.0963 11.6707 12.9068 11.5951 12.7654 11.4585L9.05287 7.74601V7.74601Z" fill="#1838BD"/>
</svg>
