<svg width="18" height="18" viewBox="0 0 18 18" fill="none" xmlns="http://www.w3.org/2000/svg">
<path d="M9.05275 9.98541L12.7652 6.27291C12.8344 6.20128 12.9172 6.14414 13.0087 6.10484C13.1002 6.06553 13.1986 6.04484 13.2982 6.04397C13.3978 6.04311 13.4965 6.06208 13.5887 6.0998C13.6809 6.13751 13.7646 6.1932 13.835 6.26362C13.9055 6.33403 13.9612 6.41777 13.9989 6.50995C14.0366 6.60212 14.0556 6.70088 14.0547 6.80046C14.0538 6.90005 14.0331 6.99846 13.9938 7.08996C13.9545 7.18147 13.8974 7.26423 13.8257 7.33341L9.583 11.5762C9.44235 11.7168 9.25162 11.7958 9.05275 11.7958C8.85387 11.7958 8.66314 11.7168 8.5225 11.5762L4.27975 7.33341C4.20811 7.26423 4.15098 7.18147 4.11167 7.08996C4.07236 6.99846 4.05167 6.90005 4.05081 6.80046C4.04994 6.70088 4.06892 6.60212 4.10663 6.50995C4.14434 6.41777 4.20003 6.33403 4.27045 6.26362C4.34087 6.1932 4.42461 6.13751 4.51678 6.0998C4.60895 6.06208 4.70771 6.04311 4.8073 6.04397C4.90688 6.04484 5.0053 6.06553 5.0968 6.10484C5.1883 6.14414 5.27106 6.20128 5.34025 6.27291L9.05275 9.98541Z" fill="#151622"/>
</svg>
