<svg width="18" height="18" viewBox="0 0 18 18" fill="none" xmlns="http://www.w3.org/2000/svg">
<path d="M9.05287 7.74589L5.34037 11.4584C5.19892 11.595 5.00947 11.6706 4.81282 11.6689C4.61617 11.6672 4.42806 11.5883 4.28901 11.4493C4.14995 11.3102 4.07107 11.1221 4.06936 10.9254C4.06766 10.7288 4.14325 10.5393 4.27987 10.3979L8.52262 6.15514C8.66327 6.01453 8.854 5.93555 9.05287 5.93555C9.25174 5.93555 9.44247 6.01453 9.58312 6.15514L13.8259 10.3979C13.9625 10.5393 14.0381 10.7288 14.0364 10.9254C14.0347 11.1221 13.9558 11.3102 13.8167 11.4493C13.6777 11.5883 13.4896 11.6672 13.2929 11.6689C13.0963 11.6706 12.9068 11.595 12.7654 11.4584L9.05287 7.74589Z" fill="#1838BD"/>
</svg>
