<svg width="10" height="6" viewBox="0 0 10 6" fill="none" xmlns="http://www.w3.org/2000/svg">
<path d="M5.04775 3.8756L8.34775 0.575596C8.40925 0.511922 8.48282 0.461134 8.56415 0.426195C8.64549 0.391256 8.73297 0.372865 8.82149 0.372095C8.91001 0.371326 8.99779 0.388194 9.07972 0.421715C9.16165 0.455235 9.23609 0.504737 9.29868 0.567332C9.36128 0.629928 9.41078 0.704362 9.4443 0.786293C9.47782 0.868224 9.49469 0.95601 9.49392 1.04453C9.49315 1.13305 9.47476 1.22053 9.43982 1.30187C9.40488 1.3832 9.35409 1.45676 9.29042 1.51826L5.51909 5.2896C5.39407 5.41458 5.22453 5.48479 5.04775 5.48479C4.87098 5.48479 4.70144 5.41458 4.57642 5.2896L0.805088 1.51826C0.741415 1.45676 0.690626 1.3832 0.655687 1.30187C0.620748 1.22053 0.602357 1.13305 0.601588 1.04453C0.600818 0.95601 0.617686 0.868224 0.651207 0.786293C0.684727 0.704362 0.734229 0.629928 0.796825 0.567332C0.85942 0.504737 0.933854 0.455235 1.01579 0.421715C1.09772 0.388194 1.1855 0.371326 1.27402 0.372095C1.36254 0.372865 1.45002 0.391256 1.53136 0.426195C1.61269 0.461134 1.68626 0.511922 1.74775 0.575596L5.04775 3.8756Z" fill="#F9F9FC"/>
</svg>
