<svg width="19" height="18" viewBox="0 0 19 18" fill="none" xmlns="http://www.w3.org/2000/svg">
<path d="M9.30324 9.98553L13.0157 6.27303C13.0849 6.2014 13.1677 6.14426 13.2592 6.10496C13.3507 6.06565 13.4491 6.04496 13.5487 6.0441C13.6483 6.04323 13.747 6.06221 13.8392 6.09992C13.9314 6.13763 14.0151 6.19332 14.0855 6.26374C14.156 6.33416 14.2116 6.4179 14.2494 6.51007C14.2871 6.60224 14.306 6.701 14.3052 6.80058C14.3043 6.90017 14.2836 6.99858 14.2443 7.09009C14.205 7.18159 14.1479 7.26435 14.0762 7.33353L9.83349 11.5763C9.69284 11.7169 9.50211 11.7959 9.30324 11.7959C9.10436 11.7959 8.91363 11.7169 8.77299 11.5763L4.53024 7.33353C4.4586 7.26435 4.40147 7.18159 4.36216 7.09009C4.32285 6.99858 4.30216 6.90017 4.3013 6.80058C4.30043 6.701 4.31941 6.60224 4.35712 6.51007C4.39483 6.4179 4.45052 6.33416 4.52094 6.26374C4.59136 6.19332 4.6751 6.13763 4.76727 6.09992C4.85944 6.06221 4.9582 6.04323 5.05779 6.0441C5.15737 6.04496 5.25579 6.06565 5.34729 6.10496C5.43879 6.14426 5.52155 6.2014 5.59074 6.27303L9.30324 9.98553Z" fill="#151622"/>
</svg>
