<svg width="18" height="18" viewBox="0 0 18 18" fill="none" xmlns="http://www.w3.org/2000/svg">
<path d="M9.05324 7.74601L5.34074 11.4585C5.19928 11.5951 5.00983 11.6707 4.81319 11.669C4.61654 11.6673 4.42843 11.5884 4.28937 11.4494C4.15032 11.3103 4.07144 11.1222 4.06973 10.9256C4.06802 10.7289 4.14362 10.5395 4.28024 10.398L8.52299 6.15526C8.66363 6.01466 8.85436 5.93567 9.05324 5.93567C9.25211 5.93567 9.44284 6.01466 9.58349 6.15526L13.8262 10.398C13.9629 10.5395 14.0385 10.7289 14.0367 10.9256C14.035 11.1222 13.9562 11.3103 13.8171 11.4494C13.678 11.5884 13.4899 11.6673 13.2933 11.669C13.0966 11.6707 12.9072 11.5951 12.7657 11.4585L9.05324 7.74601Z" fill="#1838BD"/>
</svg>
