<svg width="18" height="18" viewBox="0 0 18 18" fill="none" xmlns="http://www.w3.org/2000/svg">
<path d="M15.8023 3.9225C14.5948 3.8025 13.3873 3.7125 12.1723 3.645V3.6375L12.0073 2.6625C11.8948 1.9725 11.7298 0.9375 9.97477 0.9375H8.00977C6.26225 0.9375 6.09725 1.9275 5.97725 2.655L5.81975 3.615C5.12225 3.66 4.42475 3.705 3.72725 3.7725L2.19725 3.9225C1.88225 3.9525 1.65725 4.23 1.68725 4.5375C1.71725 4.845 1.98725 5.07 2.30225 5.04L3.83225 4.89C7.76227 4.5 11.7223 4.65 15.6973 5.0475C15.7198 5.0475 15.7348 5.0475 15.7573 5.0475C16.0423 5.0475 16.2898 4.83 16.3198 4.5375C16.3423 4.23 16.1173 3.9525 15.8023 3.9225Z" fill="#151622"/>
<path opacity="0.3991" d="M14.4228 6.105C14.2428 5.9175 13.9953 5.8125 13.7403 5.8125H4.2603C4.0053 5.8125 3.7503 5.9175 3.5778 6.105C3.4053 6.2925 3.3078 6.5475 3.3228 6.81L3.7878 14.505C3.8703 15.645 3.9753 17.07 6.5928 17.07H11.4078C14.0253 17.07 14.1303 15.6525 14.2128 14.505L14.6778 6.8175C14.6928 6.5475 14.5953 6.2925 14.4228 6.105Z" fill="#151622"/>
<path fill-rule="evenodd" clip-rule="evenodd" d="M7.18555 12.75C7.18555 12.4394 7.43738 12.1875 7.74806 12.1875H10.2456C10.5562 12.1875 10.8081 12.4394 10.8081 12.75C10.8081 13.0606 10.5562 13.3125 10.2456 13.3125H7.74806C7.43738 13.3125 7.18555 13.0606 7.18555 12.75Z" fill="#151622"/>
<path fill-rule="evenodd" clip-rule="evenodd" d="M6.5625 9.75C6.5625 9.43935 6.81434 9.1875 7.125 9.1875H10.875C11.1856 9.1875 11.4375 9.43935 11.4375 9.75C11.4375 10.0606 11.1856 10.3125 10.875 10.3125H7.125C6.81434 10.3125 6.5625 10.0606 6.5625 9.75Z" fill="#151622"/>
</svg>
