<svg width="24" height="24" viewBox="0 0 24 24" fill="none" xmlns="http://www.w3.org/2000/svg">
<path d="M22 9.25C21.8661 9.25 21.75 9.13386 21.75 9V7C21.75 5.60011 21.2947 4.40264 20.4461 3.55395C19.5974 2.70525 18.3999 2.25 17 2.25H7C5.60011 2.25 4.40264 2.70525 3.55395 3.55395C2.70525 4.40264 2.25 5.60011 2.25 7V9C2.25 9.13386 2.13386 9.25 2 9.25C1.86614 9.25 1.75 9.13386 1.75 9V7C1.75 5.39454 2.28687 4.09024 3.18855 3.18855C4.09024 2.28687 5.39454 1.75 7 1.75H17C18.6055 1.75 19.9098 2.28687 20.8114 3.18855C21.7131 4.09024 22.25 5.39454 22.25 7V9C22.25 9.13386 22.1339 9.25 22 9.25Z" stroke="#1838BD"/>
<path d="M17 22.25H7C5.39454 22.25 4.09024 21.7131 3.18855 20.8114C2.28687 19.9098 1.75 18.6055 1.75 17V15C1.75 14.8661 1.86614 14.75 2 14.75C2.13386 14.75 2.25 14.8661 2.25 15V17C2.25 18.3999 2.70525 19.5974 3.55395 20.4461C4.40264 21.2947 5.60011 21.75 7 21.75H17C18.3999 21.75 19.5974 21.2947 20.4461 20.4461C21.2947 19.5974 21.75 18.3999 21.75 17V15C21.75 14.8661 21.8661 14.75 22 14.75C22.1339 14.75 22.25 14.8661 22.25 15V17C22.25 18.6055 21.7131 19.9098 20.8114 20.8114C19.9098 21.7131 18.6055 22.25 17 22.25Z" stroke="#1838BD"/>
<path d="M11.8705 12.547L11.8686 12.5459L6.57059 9.48705C6.57035 9.48691 6.57011 9.48677 6.56987 9.48664C6.45001 9.4162 6.4092 9.2632 6.48053 9.14091C6.55331 9.01615 6.70556 8.98419 6.81141 9.0477L6.81137 9.04775L6.81803 9.05161L11.738 11.9016L11.9885 12.0467L12.239 11.9017L17.129 9.07173L17.1305 9.07086C17.2488 9.0019 17.4014 9.04653 17.4645 9.157L17.4645 9.15701L17.4667 9.16087C17.5331 9.27468 17.4961 9.43343 17.3739 9.50864L12.1249 12.5423C12.075 12.5687 12.0285 12.579 11.9986 12.579C11.9472 12.579 11.9059 12.5676 11.8705 12.547Z" fill="black" stroke="#1838BD"/>
<path d="M12 18.0181C11.8661 18.0181 11.75 17.902 11.75 17.7681V12.3281C11.75 12.1943 11.8661 12.0781 12 12.0781C12.1339 12.0781 12.25 12.1943 12.25 12.3281V17.7681C12.25 17.902 12.1339 18.0181 12 18.0181Z" fill="black" stroke="#1838BD"/>
<path d="M7.43523 16.1538L7.43384 16.1531C7.04869 15.9404 6.68351 15.5631 6.41373 15.102C6.14406 14.6412 5.99219 14.135 5.99219 13.6908V10.3008C5.99219 9.86372 6.14526 9.36039 6.41703 8.89783C6.68824 8.43623 7.05443 8.05481 7.43736 7.83658L10.6346 6.05808C10.6347 6.05802 10.6348 6.05796 10.635 6.05789C11.4041 5.63173 12.6004 5.63174 13.3695 6.05793C13.3696 6.05798 13.3697 6.05803 13.3698 6.05808L16.5691 7.83776L16.5705 7.83853C16.9557 8.05117 17.3209 8.42852 17.5906 8.88956C17.8603 9.35043 18.0122 9.85663 18.0122 10.3008V13.6908C18.0122 14.1279 17.8591 14.6312 17.5873 15.0938C17.3161 15.5554 16.9499 15.9368 16.567 16.1551L13.3714 17.9326C12.9961 18.136 12.5115 18.2508 12.0022 18.2508C11.4929 18.2508 11.0084 18.136 10.633 17.9326L7.43523 16.1538ZM10.8834 6.50148L10.8834 6.50146L10.8791 6.50384L7.68088 8.28284C7.68055 8.28302 7.68022 8.2832 7.67989 8.28338C7.33057 8.4762 7.04089 8.81333 6.84194 9.15315C6.64279 9.49332 6.49219 9.90856 6.49219 10.3008V13.6908C6.49219 14.0873 6.64228 14.5026 6.84242 14.843C7.04224 15.1828 7.332 15.5161 7.67977 15.7081C7.68014 15.7083 7.68051 15.7085 7.68088 15.7087L10.8791 17.4878L10.8791 17.4878L10.8834 17.4901C11.2112 17.6682 11.6269 17.7383 12.0022 17.7383C12.3774 17.7383 12.7932 17.6682 13.121 17.4901L13.121 17.4901L13.1253 17.4878L16.3235 15.7087C16.3239 15.7085 16.3242 15.7083 16.3246 15.7081C16.6738 15.5153 16.9635 15.1782 17.1624 14.8384C17.3616 14.4983 17.5122 14.083 17.5122 13.6908V10.3008C17.5122 9.90427 17.3621 9.48899 17.162 9.1486C16.9621 8.80869 16.6723 8.47536 16.3245 8.28338C16.3241 8.2832 16.3238 8.28302 16.3235 8.28284L13.1252 6.50384L13.1253 6.50382L13.121 6.50148C12.7932 6.32336 12.3774 6.25329 12.0022 6.25329C11.6269 6.25329 11.2112 6.32336 10.8834 6.50148Z" fill="black" stroke="#1838BD"/>
</svg>
