<svg width="24" height="24" viewBox="0 0 24 24" fill="none" xmlns="http://www.w3.org/2000/svg">
<path d="M13.9366 12.9466L13.9364 12.9465L9.90632 11.5265L9.90632 11.5265L9.90371 11.5256C9.54816 11.4025 9.1832 11.2254 8.90534 10.9148C8.63767 10.6155 8.41016 10.1466 8.41016 9.35812C8.41016 8.07988 9.41047 7.07812 10.6002 7.07812H13.1102C14.457 7.07812 15.5802 8.21689 15.5802 9.65812C15.5802 9.79195 15.4641 9.9081 15.3302 9.9081C15.1963 9.9081 15.0802 9.79195 15.0802 9.65812C15.0802 8.54672 14.2298 7.57812 13.1102 7.57812H10.6002C9.64052 7.57812 8.91016 8.41671 8.91016 9.35812C8.91016 9.84107 8.99399 10.2385 9.24095 10.5423C9.48026 10.8366 9.81258 10.9609 10.0638 11.0496L10.064 11.0497L14.094 12.4697L14.094 12.4697L14.0966 12.4706C14.4522 12.5937 14.8171 12.7708 15.095 13.0814C15.3625 13.3805 15.5899 13.849 15.5902 14.6364C15.581 15.9107 14.5854 16.9181 13.4002 16.9181H10.8902C9.54335 16.9181 8.42016 15.7793 8.42016 14.3381C8.42016 14.2042 8.5363 14.0881 8.67016 14.0881C8.80401 14.0881 8.92016 14.2042 8.92016 14.3381C8.92016 15.4495 9.77058 16.4181 10.8902 16.4181H13.4002C14.3598 16.4181 15.0902 15.5795 15.0902 14.6381C15.0902 14.1551 15.0064 13.7577 14.7594 13.454C14.5201 13.1596 14.1878 13.0353 13.9366 12.9466Z" stroke="#1838BD"/>
<path d="M12 18.25C11.8661 18.25 11.75 18.1339 11.75 18V6C11.75 5.86614 11.8661 5.75 12 5.75C12.1339 5.75 12.25 5.86614 12.25 6V18C12.25 18.1339 12.1339 18.25 12 18.25Z" stroke="#1838BD"/>
<path d="M15 22.25H9C6.3424 22.25 4.56492 21.6803 3.4423 20.5577C2.31968 19.4351 1.75 17.6576 1.75 15V9C1.75 6.3424 2.31968 4.56492 3.4423 3.4423C4.56492 2.31968 6.3424 1.75 9 1.75H15C17.6576 1.75 19.4351 2.31968 20.5577 3.4423C21.6803 4.56492 22.25 6.3424 22.25 9V15C22.25 17.6576 21.6803 19.4351 20.5577 20.5577C19.4351 21.6803 17.6576 22.25 15 22.25ZM9 2.25C6.65972 2.25 4.92432 2.66107 3.7927 3.7927C2.66107 4.92432 2.25 6.65972 2.25 9V15C2.25 17.3403 2.66107 19.0757 3.7927 20.2073C4.92432 21.3389 6.65972 21.75 9 21.75H15C17.3403 21.75 19.0757 21.3389 20.2073 20.2073C21.3389 19.0757 21.75 17.3403 21.75 15V9C21.75 6.65972 21.3389 4.92432 20.2073 3.7927C19.0757 2.66107 17.3403 2.25 15 2.25H9Z" stroke="#1838BD"/>
</svg>
