<svg width="18" height="18" viewBox="0 0 18 18" fill="none" xmlns="http://www.w3.org/2000/svg">
<path d="M6.53025 14.7802L13.5 7.81047L10.1895 4.49997L3.21975 11.4697C3.1238 11.5658 3.05564 11.686 3.0225 11.8177L2.25 15.75L6.1815 14.9775C6.3135 14.9445 6.43425 14.8762 6.53025 14.7802ZM15.75 5.56047C16.0312 5.27918 16.1892 4.89772 16.1892 4.49997C16.1892 4.10222 16.0312 3.72076 15.75 3.43947L14.5605 2.24997C14.2792 1.96876 13.8977 1.81079 13.5 1.81079C13.1023 1.81079 12.7208 1.96876 12.4395 2.24997L11.25 3.43947L14.5605 6.74997L15.75 5.56047Z" fill="#151622"/>
</svg>
