<svg width="16" height="16" viewBox="0 0 16 16" fill="none" xmlns="http://www.w3.org/2000/svg">
<path d="M5.80467 13.138L12 6.94267L9.05733 4L2.862 10.1953C2.77671 10.2807 2.71612 10.3876 2.68667 10.5047L2 14L5.49467 13.3133C5.612 13.284 5.71933 13.2233 5.80467 13.138ZM14 4.94267C14.25 4.69263 14.3904 4.35355 14.3904 4C14.3904 3.64645 14.25 3.30737 14 3.05733L12.9427 2C12.6926 1.75004 12.3536 1.60962 12 1.60962C11.6464 1.60962 11.3074 1.75004 11.0573 2L10 3.05733L12.9427 6L14 4.94267Z" fill="#151622"/>
</svg>
