<svg width="248" height="185" viewBox="0 0 248 185" fill="none" xmlns="http://www.w3.org/2000/svg">
<path d="M247.798 162.449H0V162.573H247.798V162.449Z" fill="#EBEBEB"/>
<path d="M222.969 170.426H215.584V170.55H222.969V170.426Z" fill="#EBEBEB"/>
<path d="M164.151 171.771H159.843V171.895H164.151V171.771Z" fill="#EBEBEB"/>
<path d="M213.491 165.824H196.546V165.948H213.491V165.824Z" fill="#EBEBEB"/>
<path d="M54.3318 168.381H32.9258V168.505H54.3318V168.381Z" fill="#EBEBEB"/>
<path d="M66.4651 168.381H58.7451V168.505H66.4651V168.381Z" fill="#EBEBEB"/>
<path d="M126.255 166.718H79.8301V166.842H126.255V166.718Z" fill="#EBEBEB"/>
<path d="M117.463 140.346H21.7626C21.0125 140.345 20.2934 140.047 19.7631 139.516C19.2327 138.986 18.9344 138.267 18.9336 137.517V2.99597C18.9347 2.24609 19.2331 1.52724 19.7634 0.997089C20.2938 0.466937 21.0127 0.168762 21.7626 0.167969H117.463C118.212 0.169027 118.931 0.467317 119.461 0.99744C119.991 1.52756 120.29 2.24626 120.291 2.99597V137.515C120.29 138.265 119.992 138.985 119.462 139.515C118.932 140.046 118.213 140.345 117.463 140.346ZM21.7636 0.291969C21.0482 0.29408 20.3626 0.579222 19.8567 1.08511C19.3508 1.591 19.0657 2.27653 19.0636 2.99197V137.515C19.0657 138.23 19.3508 138.916 19.8567 139.422C20.3626 139.928 21.0482 140.213 21.7636 140.215H117.464C118.179 140.213 118.865 139.928 119.37 139.422C119.876 138.916 120.161 138.23 120.164 137.515V2.99597C120.161 2.28053 119.876 1.595 119.37 1.08911C118.865 0.58322 118.179 0.298081 117.464 0.295971L21.7636 0.291969Z" fill="#EBEBEB"/>
<path d="M224.659 140.346H128.959C128.209 140.345 127.49 140.046 126.96 139.516C126.43 138.986 126.132 138.267 126.131 137.517V2.99597C126.132 2.24618 126.43 1.52733 126.96 0.99715C127.49 0.46697 128.209 0.168763 128.959 0.167969H224.659C225.409 0.168762 226.128 0.466937 226.658 0.997089C227.188 1.52724 227.487 2.24609 227.488 2.99597V137.515C227.488 138.265 227.19 138.985 226.659 139.516C226.129 140.047 225.409 140.345 224.659 140.346ZM128.959 0.291969C128.243 0.29408 127.558 0.579222 127.052 1.08511C126.546 1.591 126.261 2.27653 126.259 2.99197V137.515C126.261 138.23 126.546 138.916 127.052 139.422C127.558 139.928 128.243 140.213 128.959 140.215H224.659C225.375 140.214 226.062 139.93 226.569 139.424C227.076 138.918 227.362 138.231 227.364 137.515V2.99597C227.362 2.27967 227.076 1.59339 226.569 1.08735C226.062 0.581319 225.375 0.296761 224.659 0.295971L128.959 0.291969Z" fill="#EBEBEB"/>
<path d="M106.292 162.448H115.521L115.521 99.0762H106.292V162.448Z" fill="#E6E6E6"/>
<path d="M109.542 162.448H106.293V150.408H112.948L109.542 162.448Z" fill="#F0F0F0"/>
<path d="M203.887 162.448H213.116V99.0762H203.887V162.448Z" fill="#E6E6E6"/>
<path d="M106.293 159.161H206.722V99.0761L106.293 99.0761L106.293 159.161Z" fill="#F0F0F0"/>
<path d="M203.477 162.448H206.726V150.408H200.067L203.477 162.448Z" fill="#F0F0F0"/>
<path d="M173.612 104.051V153.755H203.383V104.051H173.612Z" fill="#E6E6E6"/>
<path d="M185.553 105.799H191.443C193.936 105.825 196.348 104.918 198.207 103.257H178.79C180.649 104.918 183.061 105.824 185.553 105.799V105.799Z" fill="#F0F0F0"/>
<path d="M141.622 104.051V153.755H171.393V104.051H141.622Z" fill="#E6E6E6"/>
<path d="M153.262 105.799H159.152C161.644 105.824 164.056 104.918 165.915 103.257H146.498C148.357 104.918 150.769 105.825 153.262 105.799V105.799Z" fill="#F0F0F0"/>
<path d="M109.632 104.051V153.755H139.403V104.051H109.632Z" fill="#E6E6E6"/>
<path d="M121.272 105.799H127.162C129.654 105.825 132.067 104.918 133.926 103.257H114.508C116.367 104.918 118.779 105.825 121.272 105.799V105.799Z" fill="#F0F0F0"/>
<path d="M34.6814 162.448H97.6514L97.6514 20.8962H34.6814L34.6814 162.448Z" fill="#F0F0F0"/>
<path d="M34.6813 162.448H96.3223L96.3223 20.8962H34.6813L34.6813 162.448Z" fill="#F5F5F5"/>
<path d="M92.5664 159.236L92.5664 24.1079L38.4374 24.1079L38.4374 159.236H92.5664Z" fill="#F0F0F0"/>
<path d="M87.2478 49.2389C87.2478 47.301 86.8661 45.3821 86.1245 43.5917C85.3829 41.8013 84.2959 40.1745 82.9256 38.8042C81.5553 37.4338 79.9285 36.3468 78.1381 35.6052C76.3477 34.8636 74.4287 34.4819 72.4908 34.4819H58.5148C54.601 34.4819 50.8475 36.0367 48.08 38.8042C45.3126 41.5716 43.7578 45.3251 43.7578 49.2389H87.2478Z" fill="#FAFAFA"/>
<path d="M87.248 150.837V118.555H43.758V150.837H87.248Z" fill="#F5F5F5"/>
<path d="M87.2475 58.3408H68.0645V114.39H87.2475V58.3408Z" fill="#F5F5F5"/>
<path d="M62.9408 58.3408H43.7578V114.39H62.9408V58.3408Z" fill="#F5F5F5"/>
<path d="M50.7147 86.1128H42.8577C42.5346 86.112 42.225 85.9833 41.9966 85.7549C41.7682 85.5264 41.6395 85.2169 41.6387 84.8938V84.8938C41.6397 84.5708 41.7685 84.2614 41.9969 84.033C42.2253 83.8046 42.5347 83.6759 42.8577 83.6748H50.7147C51.0377 83.6759 51.3471 83.8046 51.5755 84.033C51.8038 84.2614 51.9326 84.5708 51.9337 84.8938V84.8938C51.9329 85.2169 51.8042 85.5264 51.5758 85.7549C51.3473 85.9833 51.0377 86.112 50.7147 86.1128Z" fill="#E0E0E0"/>
<path d="M39.4131 159.236L39.4131 24.1079H38.4391L38.4391 159.236H39.4131Z" fill="#F0F0F0"/>
<path d="M137.482 83.54L204.261 83.54V20.896L137.482 20.896V83.54Z" fill="#E6E6E6"/>
<path d="M135.799 83.54L202.578 83.54V20.896L135.799 20.896V83.54Z" fill="#F5F5F5"/>
<path d="M131.9 87.166L204.261 87.166V83.54L131.9 83.54V87.166Z" fill="#E6E6E6"/>
<path d="M130.005 87.166L198.639 87.166V83.54L130.005 83.54V87.166Z" fill="#F5F5F5"/>
<path d="M199.556 80.2818V24.1548L138.82 24.1548V80.2818H199.556Z" fill="white"/>
<path d="M170.871 80.2818V24.1548H167.504V80.2818H170.871Z" fill="#F5F5F5"/>
<path d="M140.093 80.2818V24.1548H138.82V80.2818H140.093Z" fill="#E6E6E6"/>
<path d="M172.144 80.2818V24.1548H170.871V80.2818H172.144Z" fill="#E6E6E6"/>
<path d="M146.459 85.2011C145.231 72.4761 144.376 51.8271 145.04 44.9211C145.052 44.8024 145.088 44.6876 145.148 44.5841C145.207 44.4807 145.287 44.391 145.384 44.3211C145.512 44.2272 145.665 44.1711 145.823 44.1595C145.982 44.1479 146.141 44.181 146.282 44.2553C146.422 44.3295 146.539 44.4418 146.619 44.5793C146.699 44.7168 146.739 44.8741 146.734 45.0331C146.617 48.4551 146.482 57.0081 147.211 71.7631C147.574 79.1081 148.097 84.1381 147.738 85.1991L146.459 85.2011Z" fill="#E6E6E6"/>
<path d="M141.881 55.8722C138.381 51.9892 131.242 49.2282 123.964 49.2422C121.107 49.2482 132.657 53.7592 137.464 58.7422C141.305 62.8802 144.467 67.6003 146.833 72.7272C145.905 65.1222 145.378 59.7532 141.881 55.8722Z" fill="#E6E6E6"/>
<path d="M148.812 57.0542C151.712 53.0102 158.419 49.9002 165.672 49.5482C168.519 49.4102 157.686 54.4852 153.643 59.6872C150.418 64.035 147.967 68.9064 146.396 74.0872C146.184 66.4742 145.908 61.0992 148.812 57.0542Z" fill="#E6E6E6"/>
<path d="M141.725 41.6902C138.764 38.4022 132.716 36.0642 126.553 36.0762C124.134 36.0762 133.914 39.9022 137.981 44.1172C141.234 47.6211 143.912 51.6179 145.915 55.9592C145.133 49.5252 144.684 44.9782 141.725 41.6902Z" fill="#E6E6E6"/>
<path d="M147.594 46.5532C150.053 43.1282 155.73 40.4952 161.871 40.1972C164.282 40.0802 155.109 44.3772 151.685 48.7822C148.953 52.4657 146.877 56.5929 145.548 60.9822C145.37 54.5302 145.135 49.9762 147.594 46.5532Z" fill="#E6E6E6"/>
<path d="M146.954 99.0762C145.108 99.0762 143.333 98.3704 141.991 97.1035C140.649 95.8367 139.843 94.1046 139.737 92.2622L139.099 81.1992H154.809L154.171 92.2622C154.065 94.1046 153.258 95.8367 151.916 97.1035C150.575 98.3704 148.799 99.0762 146.954 99.0762Z" fill="#E6E6E6"/>
<path d="M155.825 83.7142H138.084L137.576 79.1143H156.337L155.825 83.7142Z" fill="#E6E6E6"/>
<path d="M123.899 184.832C176.968 184.832 219.99 182.319 219.99 179.22C219.99 176.12 176.968 173.608 123.899 173.608C70.829 173.608 27.8076 176.12 27.8076 179.22C27.8076 182.319 70.829 184.832 123.899 184.832Z" fill="#F5F5F5"/>
<path d="M125.838 173.857L121.7 174.323L120.174 164.939L124.312 164.473L125.838 173.857Z" fill="#FFC3BD"/>
<path d="M144.364 174.761H140.232L139.203 165.192H143.335L144.364 174.761Z" fill="#FFC3BD"/>
<path d="M139.892 174.28H144.929C145.011 174.28 145.091 174.308 145.155 174.359C145.219 174.41 145.263 174.482 145.281 174.562L146.097 178.235C146.116 178.324 146.115 178.417 146.093 178.506C146.072 178.595 146.03 178.678 145.972 178.748C145.914 178.819 145.84 178.876 145.757 178.914C145.674 178.952 145.584 178.971 145.492 178.97C143.871 178.942 142.692 178.847 140.648 178.847C139.392 178.847 135.604 178.977 133.87 178.977C132.17 178.977 131.909 177.262 132.619 177.107C135.803 176.407 138.202 175.45 139.219 174.534C139.404 174.369 139.644 174.278 139.892 174.28Z" fill="#263238"/>
<path d="M121.632 173.614L126.116 173.106C126.198 173.096 126.28 173.115 126.35 173.159C126.419 173.202 126.471 173.268 126.498 173.346L127.723 176.903C127.754 176.989 127.765 177.081 127.755 177.172C127.745 177.263 127.714 177.35 127.665 177.427C127.616 177.504 127.55 177.569 127.472 177.617C127.394 177.665 127.306 177.694 127.215 177.703C125.595 177.859 123.247 178.029 121.215 178.26C118.838 178.53 118.442 179.166 115.638 179.101C113.938 179.061 113.512 177.336 114.225 177.201C117.473 176.57 118.101 176.079 120.682 174.053C120.952 173.821 121.281 173.669 121.632 173.614V173.614Z" fill="#263238"/>
<path d="M125.282 53.345C123.894 54.491 122.528 55.487 121.115 56.507C119.702 57.527 118.259 58.474 116.774 59.393C115.289 60.312 113.765 61.193 112.167 61.993C110.533 62.8393 108.833 63.5491 107.082 64.115C106.619 64.263 106.168 64.385 105.648 64.515C105.14 64.6252 104.626 64.7077 104.108 64.762C103.177 64.862 102.301 64.907 101.428 64.947C99.6881 65.027 97.9811 65.025 96.2761 65.013C92.8661 64.972 89.4851 64.808 86.0891 64.508L86.0381 61.408C89.3731 60.979 92.7231 60.608 96.0381 60.235C97.6951 60.055 99.3481 59.853 100.963 59.642C101.763 59.533 102.563 59.405 103.301 59.268C103.618 59.212 103.932 59.1382 104.241 59.047C104.532 58.947 104.889 58.833 105.219 58.7C106.636 58.1246 108.012 57.4517 109.336 56.686C110.707 55.899 112.079 55.054 113.427 54.156C114.775 53.258 116.117 52.328 117.447 51.379C118.777 50.43 120.106 49.425 121.354 48.479L125.282 53.345Z" fill="#FFC3BD"/>
<path d="M129.321 49.8128C128.727 53.7188 120.503 59.6938 120.503 59.6938L114.603 52.3708C117.187 49.6125 119.928 47.0046 122.811 44.5598C125.466 42.3898 129.967 45.5628 129.321 49.8128Z" fill="#407BFF"/>
<path d="M87.1763 61.7349L84.8302 60.0649L84.5732 65.3409C84.9279 65.3419 85.2773 65.256 85.5911 65.0907C85.9049 64.9255 86.1734 64.6859 86.3732 64.3929L87.1763 61.7349Z" fill="#FFC3BD"/>
<path d="M82.7105 58.5288L82.2305 63.6998L84.5745 65.3408L84.8315 60.0648L82.7105 58.5288Z" fill="#FFC3BD"/>
<path opacity="0.2" d="M120.176 164.942L120.962 169.779L125.101 169.313L124.315 164.476L120.176 164.942Z" fill="black"/>
<path opacity="0.2" d="M143.337 165.193H139.203L139.735 170.125H143.869L143.337 165.193Z" fill="black"/>
<path d="M143.396 44.6851C143.704 44.7541 143.995 44.884 144.252 45.0671C144.508 45.2502 144.726 45.4828 144.892 45.7513C145.057 46.0197 145.167 46.3186 145.216 46.6302C145.264 46.9419 145.25 47.2601 145.173 47.5661C144.277 51.2876 143.601 55.0588 143.149 58.8601C142.758 62.0601 142.524 65.1171 142.378 67.8881C142.035 74.3831 142.178 79.3341 141.984 81.0121C138.753 80.7881 126.577 79.9411 119.938 79.4771C117.697 61.9331 120.323 50.7371 121.798 46.1881C122.024 45.4793 122.447 44.8492 123.017 44.3712C123.587 43.8932 124.281 43.5869 125.018 43.4881C125.864 43.3771 126.876 43.2701 127.944 43.2071C128.318 43.1831 128.697 43.1701 129.083 43.1621C132.217 43.1992 135.347 43.4169 138.456 43.8141C139.046 43.8841 139.642 43.9711 140.222 44.0641C141.381 44.2581 142.483 44.4811 143.396 44.6851Z" fill="#346AE1"/>
<path d="M138.265 33.2012C137.465 36.1752 136.487 41.6592 138.457 43.8192C133.347 47.2562 130.085 52.0952 129.144 51.0442C128.651 50.4942 128.437 44.1292 129.085 43.1652C132.504 42.5972 132.591 40.0962 132.169 37.7122L138.265 33.2012Z" fill="#FFC3BD"/>
<path d="M138.061 42.5859C138.061 42.5859 129.734 46.2709 128.63 54.5109C130.924 51.8549 135.991 48.9649 135.991 48.9649L133.756 48.3229C135.177 47.7835 136.649 47.3875 138.149 47.1409C137.901 46.0029 139.223 43.7329 139.223 43.7329L138.061 42.5859Z" fill="#407BFF"/>
<path d="M130.548 42.4531C130.548 42.4531 131.658 47.1591 128.631 54.5111C128.034 51.9451 127.215 49.4356 126.185 47.0111L128.224 47.5661C128.224 47.5661 128.124 46.6171 126.473 45.3551C127.161 44.3558 128.019 43.485 129.008 42.7821L130.548 42.4531Z" fill="#407BFF"/>
<path opacity="0.2" d="M135.78 35.042L132.172 37.71C132.279 38.2652 132.337 38.8287 132.345 39.394C133.645 39.294 135.505 38.011 135.736 36.676C135.849 36.1385 135.864 35.5848 135.78 35.042V35.042Z" fill="black"/>
<path d="M127.683 24.589C125.668 24.676 124.556 28.15 126.601 31.011C128.646 33.872 130.398 24.472 127.683 24.589Z" fill="#263238"/>
<path d="M137.621 27.6458C137.86 31.7398 138.208 34.1228 136.406 36.4558C133.696 39.9648 128.456 38.7069 126.999 34.7669C125.688 31.2209 125.517 25.1218 129.299 23.0268C130.131 22.5604 131.069 22.3145 132.022 22.3125C132.976 22.3105 133.915 22.5524 134.748 23.0153C135.582 23.4781 136.284 24.1466 136.787 24.957C137.29 25.7675 137.577 26.6931 137.621 27.6458V27.6458Z" fill="#FFC3BD"/>
<path d="M138.222 30.792C137.127 30.1503 136.171 29.2972 135.409 28.2824C134.647 27.2675 134.095 26.1113 133.785 24.881C132.585 25.165 126.604 27.917 124.765 24.881C122.926 21.845 125.24 20.064 128.681 21.933C127.159 19.247 128.543 17.933 133.325 17.817C138.107 17.701 137.464 20.473 137.464 20.473C137.464 20.473 141.084 18.897 142.364 21.673C143.847 24.863 141.111 30.31 138.222 30.792Z" fill="#263238"/>
<path d="M136.646 19.7402C136.69 19.7402 138.456 20.1652 140.492 18.1162C140.127 19.8642 136.966 21.0282 136.966 21.0282L136.646 19.7402Z" fill="#263238"/>
<path d="M139.022 25.7289C137.115 25.0699 134.806 27.8949 135.659 31.3059C136.512 34.7169 141.591 26.6169 139.022 25.7289Z" fill="#263238"/>
<path d="M140.101 31.0508C139.926 32.0675 139.356 32.9737 138.515 33.5708C137.394 34.3528 136.384 33.4588 136.315 32.1648C136.257 31.0008 136.769 29.1908 138.076 28.9238C138.363 28.8702 138.658 28.8892 138.936 28.9789C139.214 29.0686 139.465 29.2263 139.666 29.4377C139.867 29.649 140.012 29.9073 140.088 30.189C140.164 30.4707 140.169 30.767 140.101 31.0508V31.0508Z" fill="#FFC3BD"/>
<path d="M126.151 126.031C127.144 113.945 134.428 80.4881 134.428 80.4881L119.934 79.4771C119.934 79.4771 114.345 112.688 113.917 125.292C113.471 138.397 118.742 167.523 118.742 167.523L125.693 166.732C125.693 166.732 125.154 138.167 126.151 126.031Z" fill="#407BFF"/>
<path opacity="0.5" d="M126.151 126.031C127.144 113.945 134.428 80.4881 134.428 80.4881L119.934 79.4771C119.934 79.4771 114.345 112.688 113.917 125.292C113.471 138.397 118.742 167.523 118.742 167.523L125.693 166.732C125.693 166.732 125.154 138.167 126.151 126.031Z" fill="white"/>
<path opacity="0.2" d="M128.969 91.8179C126.047 95.5539 125.995 108.675 127.125 118.369C128.202 111.376 129.899 102.495 131.386 95.0919L128.969 91.8179Z" fill="black"/>
<path d="M127.756 80.022C127.756 80.022 129.32 115.397 131.065 127.377C132.975 140.496 137.826 169.169 137.826 169.169H145.394C145.394 169.169 144.149 142.163 143.15 129.274C142.013 114.593 141.982 81.014 141.982 81.014L127.756 80.022Z" fill="#407BFF"/>
<path opacity="0.5" d="M127.756 80.022C127.756 80.022 129.32 115.397 131.065 127.377C132.975 140.496 137.826 169.169 137.826 169.169H145.394C145.394 169.169 144.149 142.163 143.15 129.274C142.013 114.593 141.982 81.014 141.982 81.014L127.756 80.022Z" fill="white"/>
<path d="M136.916 169.33H145.827V166.668L135.866 166.495L136.916 169.33Z" fill="#407BFF"/>
<path d="M118.439 168.306L126.723 167.367L126.423 164.69L117.146 165.599L118.439 168.306Z" fill="#407BFF"/>
<path d="M131.593 29.5231C131.633 29.8541 131.493 30.1431 131.273 30.1691C131.053 30.1951 130.849 29.9481 130.81 29.6171C130.771 29.2861 130.91 28.9971 131.13 28.9711C131.35 28.9451 131.554 29.1921 131.593 29.5231Z" fill="#263238"/>
<path d="M127.854 29.9718C127.894 30.3028 127.754 30.5918 127.534 30.6178C127.314 30.6438 127.11 30.3968 127.07 30.0658C127.03 29.7348 127.17 29.4458 127.39 29.4198C127.61 29.3938 127.814 29.6448 127.854 29.9718Z" fill="#263238"/>
<path d="M129.062 29.9941C128.789 31.0529 128.372 32.069 127.822 33.0141C128.068 33.1486 128.339 33.2278 128.618 33.2463C128.898 33.2647 129.177 33.222 129.438 33.1211L129.062 29.9941Z" fill="#ED847E"/>
<path d="M132.609 28.1743C132.575 28.1847 132.538 28.1855 132.502 28.1766C132.467 28.1676 132.435 28.1491 132.409 28.1233C132.244 27.9414 132.038 27.8013 131.808 27.7144C131.578 27.6275 131.331 27.5962 131.086 27.6233C131.036 27.6319 130.983 27.6204 130.941 27.5913C130.898 27.5623 130.868 27.5178 130.857 27.4673C130.852 27.4419 130.852 27.4158 130.857 27.3905C130.862 27.3652 130.872 27.3411 130.887 27.3197C130.902 27.2984 130.92 27.2802 130.942 27.2662C130.964 27.2522 130.988 27.2427 131.013 27.2383C131.322 27.1983 131.635 27.233 131.928 27.3395C132.22 27.446 132.482 27.6212 132.692 27.8503C132.728 27.8875 132.748 27.9371 132.748 27.9888C132.748 28.0404 132.728 28.09 132.692 28.1273C132.669 28.1496 132.641 28.1658 132.609 28.1743V28.1743Z" fill="#263238"/>
<path d="M131.173 34.4409C131.645 34.3416 132.086 34.1302 132.459 33.8246C132.832 33.519 133.126 33.1281 133.316 32.6849C133.325 32.6584 133.323 32.6292 133.311 32.6039C133.299 32.5786 133.277 32.5592 133.251 32.5499C133.224 32.5406 133.195 32.5422 133.17 32.5544C133.144 32.5666 133.125 32.5884 133.116 32.6149C132.934 33.0225 132.658 33.3817 132.312 33.6634C131.966 33.9452 131.558 34.1416 131.122 34.2369C131.108 34.24 131.096 34.2457 131.084 34.2537C131.073 34.2617 131.063 34.2718 131.056 34.2835C131.049 34.2952 131.044 34.3083 131.042 34.3219C131.039 34.3355 131.04 34.3494 131.043 34.3629C131.046 34.3764 131.052 34.3891 131.06 34.4003C131.068 34.4116 131.078 34.4212 131.089 34.4285C131.101 34.4358 131.114 34.4408 131.128 34.4431C131.141 34.4454 131.155 34.445 131.169 34.4419L131.173 34.4409Z" fill="#263238"/>
<path d="M126.094 28.8782C126.055 28.8914 126.013 28.8914 125.973 28.8782C125.925 28.8604 125.885 28.8245 125.863 28.7781C125.84 28.7317 125.837 28.6783 125.852 28.6292C125.946 28.3326 126.11 28.063 126.33 27.8433C126.551 27.6236 126.821 27.4603 127.117 27.3672C127.168 27.3559 127.22 27.3643 127.264 27.3907C127.309 27.4172 127.341 27.4596 127.354 27.5092C127.366 27.5593 127.358 27.6118 127.331 27.6559C127.305 27.7 127.263 27.7324 127.213 27.7462V27.7462C126.98 27.8241 126.769 27.9562 126.596 28.1318C126.424 28.3074 126.296 28.5214 126.222 28.7562C126.212 28.785 126.195 28.811 126.173 28.8322C126.15 28.8533 126.124 28.8691 126.094 28.8782Z" fill="#263238"/>
<path d="M138.531 175.002C138.248 175.024 137.966 174.95 137.731 174.791C137.657 174.728 137.601 174.648 137.566 174.558C137.531 174.467 137.519 174.37 137.531 174.274C137.531 174.217 137.546 174.161 137.576 174.112C137.605 174.063 137.648 174.023 137.699 173.997C138.158 173.761 139.489 174.581 139.639 174.675C139.655 174.686 139.668 174.701 139.676 174.718C139.684 174.736 139.687 174.756 139.684 174.775C139.68 174.794 139.672 174.812 139.659 174.826C139.645 174.84 139.628 174.85 139.61 174.855C139.257 174.944 138.895 174.993 138.531 175.002V175.002ZM137.917 174.147C137.873 174.145 137.83 174.153 137.79 174.171C137.769 174.182 137.753 174.199 137.742 174.219C137.731 174.24 137.726 174.263 137.728 174.286C137.719 174.352 137.726 174.418 137.749 174.48C137.773 174.542 137.811 174.597 137.861 174.641C138.322 174.852 138.847 174.878 139.328 174.715C138.897 174.436 138.416 174.243 137.912 174.147H137.917Z" fill="#407BFF"/>
<path d="M139.584 174.857C139.567 174.857 139.551 174.853 139.537 174.845C139.11 174.613 138.283 173.707 138.37 173.245C138.384 173.173 138.423 173.108 138.479 173.061C138.536 173.014 138.607 172.988 138.681 172.988C138.755 172.979 138.831 172.985 138.902 173.007C138.974 173.029 139.041 173.065 139.098 173.114C139.578 173.507 139.677 174.699 139.68 174.749C139.681 174.766 139.677 174.784 139.67 174.8C139.662 174.816 139.65 174.829 139.636 174.839C139.62 174.85 139.602 174.856 139.584 174.857ZM138.75 173.182H138.705C138.578 173.198 138.567 173.256 138.562 173.282C138.51 173.554 139.037 174.238 139.462 174.561C139.434 174.088 139.263 173.635 138.974 173.261C138.911 173.209 138.831 173.181 138.75 173.182V173.182Z" fill="#407BFF"/>
<path d="M121.296 174.225L121.28 174.232C120.633 174.439 119.475 174.732 118.98 174.386C118.907 174.336 118.847 174.268 118.806 174.189C118.765 174.11 118.744 174.023 118.744 173.934C118.74 173.88 118.75 173.827 118.773 173.778C118.796 173.73 118.831 173.688 118.875 173.657C119.34 173.33 121.087 173.973 121.285 174.048C121.302 174.055 121.317 174.067 121.327 174.082C121.338 174.097 121.344 174.115 121.345 174.134C121.346 174.152 121.342 174.17 121.334 174.187C121.325 174.203 121.312 174.217 121.296 174.226V174.225ZM119.013 173.801L118.99 173.815C118.972 173.827 118.958 173.844 118.949 173.863C118.94 173.883 118.937 173.905 118.94 173.926C118.939 173.985 118.952 174.043 118.978 174.095C119.005 174.147 119.044 174.192 119.092 174.226C119.7 174.416 120.356 174.38 120.94 174.126C120.335 173.858 119.672 173.746 119.012 173.801H119.013Z" fill="#407BFF"/>
<path d="M121.296 174.225C121.272 174.237 121.245 174.239 121.22 174.231C120.7 174.065 119.62 173.288 119.64 172.816C119.645 172.705 119.708 172.56 119.972 172.503C120.067 172.482 120.166 172.48 120.262 172.498C120.358 172.517 120.449 172.554 120.53 172.609C120.954 173.014 121.239 173.542 121.346 174.119C121.349 174.136 121.348 174.153 121.343 174.169C121.338 174.186 121.328 174.2 121.316 174.212C121.31 174.217 121.303 174.221 121.296 174.225V174.225ZM119.905 172.735C119.838 172.771 119.836 172.813 119.835 172.829C119.821 173.113 120.567 173.735 121.108 173.981C121.008 173.52 120.769 173.101 120.423 172.781C120.364 172.74 120.297 172.712 120.226 172.698C120.156 172.685 120.083 172.686 120.013 172.702C119.976 172.708 119.939 172.719 119.905 172.735Z" fill="#407BFF"/>
<path d="M146.882 50.6446C146.777 52.2586 146.587 53.7616 146.39 55.3136C146.193 56.8656 145.928 58.3866 145.637 59.9216C145.061 63.0568 144.211 66.1353 143.096 69.1216L142.605 70.2786L142.481 70.5676L142.45 70.6396L142.399 70.7496L142.255 71.0346C142.065 71.3809 141.836 71.7049 141.574 72.0006C141.143 72.4857 140.639 72.9007 140.08 73.2306C139.628 73.5 139.153 73.7305 138.661 73.9196C137.023 74.5104 135.311 74.8679 133.573 74.9816C130.419 75.2173 127.247 75.0989 124.119 74.6286L124.232 71.5286L126.418 71.2816C127.151 71.1946 127.88 71.0816 128.605 70.9816C130.052 70.7686 131.484 70.5306 132.849 70.2136C134.112 69.9566 135.339 69.5497 136.505 69.0016C136.82 68.8695 137.095 68.6592 137.305 68.3906C137.318 68.3196 137.16 68.6306 137.346 68.1336L137.673 67.1776C138.474 64.4369 139.087 61.6448 139.507 58.8206C139.742 57.3826 139.943 55.9316 140.137 54.4766C140.331 53.0216 140.491 51.5366 140.644 50.1416L146.882 50.6446Z" fill="#FFC3BD"/>
<path d="M147.242 47.6488C149.265 51.0418 147.542 61.7058 147.542 61.7058L136.942 59.7468C136.942 59.7468 136.368 53.6468 138.386 48.9528C140.577 43.8438 144.791 43.5378 147.242 47.6488Z" fill="#407BFF"/>
<path d="M121.264 81.1198L115.639 54.9558C115.369 53.8385 114.743 52.8393 113.856 52.1087C112.968 51.3782 111.867 50.956 110.719 50.9058H89.166C90.3145 50.9558 91.4156 51.3779 92.3033 52.1085C93.1909 52.839 93.817 53.8383 94.087 54.9558L99.712 81.1198C99.982 82.237 100.608 83.2363 101.495 83.9668C102.383 84.6973 103.484 85.1195 104.632 85.1698H126.184C125.036 85.1195 123.935 84.6973 123.047 83.9668C122.16 83.2363 121.534 82.237 121.264 81.1198V81.1198Z" fill="#263238"/>
<path opacity="0.7" d="M121.264 81.1198L115.639 54.9558C115.369 53.8385 114.743 52.8393 113.856 52.1087C112.968 51.3782 111.867 50.956 110.719 50.9058H89.166C90.3145 50.9558 91.4156 51.3779 92.3033 52.1085C93.1909 52.839 93.817 53.8383 94.087 54.9558L99.712 81.1198C99.982 82.237 100.608 83.2363 101.495 83.9668C102.383 84.6973 103.484 85.1195 104.632 85.1698H126.184C125.036 85.1195 123.935 84.6973 123.047 83.9668C122.16 83.2363 121.534 82.237 121.264 81.1198V81.1198Z" fill="#407BFF"/>
<path d="M89.1663 50.9058H110.718C109.615 50.9264 108.557 51.3494 107.743 52.0952C106.93 52.841 106.417 53.8582 106.3 54.9558L100.709 115.756C100.593 116.853 100.08 117.87 99.266 118.616C98.4525 119.362 97.3947 119.785 96.2913 119.806H82.8393C82.3211 119.815 81.8069 119.714 81.331 119.509C80.8551 119.304 80.4286 118.999 80.0799 118.616C79.7313 118.232 79.4687 117.779 79.3095 117.285C79.1504 116.792 79.0985 116.271 79.1573 115.756L84.7493 54.9558C84.8656 53.8584 85.3786 52.8413 86.1919 52.0955C87.0053 51.3498 88.063 50.9267 89.1663 50.9058Z" fill="#407BFF"/>
<path d="M92.6088 115.755C92.55 116.27 92.6019 116.791 92.7611 117.285C92.9202 117.778 93.1829 118.231 93.5315 118.615C93.8801 118.998 94.3066 119.303 94.7825 119.508C95.2584 119.713 95.7726 119.814 96.2908 119.805H74.7388C74.2206 119.815 73.7063 119.714 73.2303 119.508C72.7544 119.303 72.3278 118.999 71.9791 118.615C71.6304 118.232 71.3678 117.778 71.2087 117.285C71.0497 116.791 70.9979 116.27 71.0568 115.755H92.6088Z" fill="#263238"/>
<path opacity="0.7" d="M92.6088 115.755C92.55 116.27 92.6019 116.791 92.7611 117.285C92.9202 117.778 93.1829 118.231 93.5315 118.615C93.8801 118.998 94.3066 119.303 94.7825 119.508C95.2584 119.713 95.7726 119.814 96.2908 119.805H74.7388C74.2206 119.815 73.7063 119.714 73.2303 119.508C72.7544 119.303 72.3278 118.999 71.9791 118.615C71.6304 118.232 71.3678 117.778 71.2087 117.285C71.0497 116.791 70.9979 116.27 71.0568 115.755H92.6088Z" fill="#407BFF"/>
<g opacity="0.5">
<path opacity="0.5" d="M102.566 57.7177H87.9816C87.869 57.7192 87.7574 57.6968 87.6541 57.6519C87.5508 57.607 87.4583 57.5406 87.3826 57.4572C87.307 57.3738 87.2499 57.2752 87.2153 57.1681C87.1806 57.0609 87.1692 56.9476 87.1817 56.8357V56.8357C87.2076 56.5969 87.3195 56.3758 87.4965 56.2135C87.6735 56.0512 87.9035 55.9588 88.1436 55.9537H102.726C102.838 55.9521 102.95 55.9746 103.053 56.0195C103.156 56.0644 103.249 56.1308 103.325 56.2142C103.4 56.2976 103.457 56.3962 103.492 56.5033C103.527 56.6105 103.538 56.7238 103.526 56.8357V56.8357C103.5 57.0741 103.388 57.295 103.212 57.4573C103.035 57.6195 102.805 57.7121 102.566 57.7177V57.7177Z" fill="white"/>
<path opacity="0.5" d="M102.131 62.4887H87.5471C87.4345 62.4902 87.3228 62.4678 87.2196 62.4229C87.1163 62.378 87.0237 62.3116 86.9481 62.2282C86.8724 62.1448 86.8154 62.0462 86.7807 61.9391C86.7461 61.8319 86.7346 61.7186 86.7471 61.6067C86.773 61.3679 86.8849 61.1468 87.062 60.9845C87.239 60.8222 87.469 60.7298 87.7091 60.7247H102.293C102.406 60.7231 102.517 60.7456 102.621 60.7905C102.724 60.8354 102.816 60.9017 102.892 60.9852C102.968 61.0686 103.025 61.1671 103.059 61.2743C103.094 61.3814 103.106 61.4947 103.093 61.6067V61.6067C103.067 61.8455 102.956 62.0668 102.778 62.2291C102.601 62.3915 102.371 62.4837 102.131 62.4887V62.4887Z" fill="white"/>
<path opacity="0.5" d="M98.1225 67.2597H87.1135C87.0009 67.2612 86.8892 67.2388 86.786 67.1939C86.6827 67.149 86.5901 67.0826 86.5145 66.9992C86.4388 66.9158 86.3818 66.8172 86.3471 66.7101C86.3125 66.6029 86.301 66.4896 86.3135 66.3777V66.3777C86.3394 66.1389 86.4513 65.9178 86.6284 65.7555C86.8054 65.5932 87.0354 65.5008 87.2755 65.4957H98.2845C98.3971 65.4941 98.5088 65.5166 98.612 65.5615C98.7153 65.6064 98.8079 65.6727 98.8835 65.7562C98.9592 65.8396 99.0162 65.9381 99.0509 66.0453C99.0855 66.1525 99.097 66.2657 99.0845 66.3777V66.3777C99.0586 66.6164 98.9467 66.8376 98.7696 66.9999C98.5926 67.1622 98.3626 67.2545 98.1225 67.2597V67.2597Z" fill="white"/>
<path opacity="0.5" d="M90.4129 72.0297H86.6799C86.5673 72.0313 86.4557 72.0088 86.3524 71.9639C86.2491 71.919 86.1566 71.8526 86.0809 71.7692C86.0052 71.6858 85.9482 71.5872 85.9135 71.4801C85.8789 71.3729 85.8674 71.2596 85.8799 71.1477V71.1477C85.9056 70.909 86.0173 70.6879 86.1942 70.5256C86.371 70.3633 86.6009 70.2709 86.8409 70.2657H90.5749C90.6875 70.2642 90.7992 70.2866 90.9024 70.3315C91.0057 70.3764 91.0983 70.4428 91.1739 70.5262C91.2496 70.6096 91.3066 70.7082 91.3413 70.8153C91.3759 70.9225 91.3874 71.0358 91.3749 71.1477V71.1477C91.349 71.3865 91.2371 71.6076 91.06 71.7699C90.883 71.9322 90.653 72.0246 90.4129 72.0297V72.0297Z" fill="white"/>
<path opacity="0.5" d="M100.829 76.8007H86.2414C86.1288 76.8022 86.0172 76.7798 85.9139 76.7349C85.8106 76.69 85.7181 76.6236 85.6424 76.5402C85.5667 76.4568 85.5097 76.3582 85.4751 76.2511C85.4404 76.1439 85.4289 76.0306 85.4414 75.9187V75.9187C85.4673 75.6799 85.5793 75.4588 85.7563 75.2965C85.9333 75.1342 86.1633 75.0418 86.4034 75.0367H100.987C101.1 75.0351 101.212 75.0576 101.315 75.1025C101.418 75.1474 101.511 75.2138 101.586 75.2972C101.662 75.3806 101.719 75.4792 101.754 75.5863C101.788 75.6935 101.8 75.8068 101.787 75.9187V75.9187C101.762 76.1568 101.65 76.3774 101.474 76.5396C101.298 76.7018 101.069 76.7946 100.829 76.8007V76.8007Z" fill="white"/>
<path opacity="0.5" d="M94.6527 81.5717H85.8127C85.7001 81.5732 85.5884 81.5508 85.4852 81.5059C85.3819 81.461 85.2893 81.3946 85.2137 81.3112C85.138 81.2278 85.081 81.1292 85.0463 81.0221C85.0117 80.9149 85.0002 80.8016 85.0127 80.6897V80.6897C85.0384 80.451 85.1501 80.2299 85.327 80.0676C85.5038 79.9053 85.7337 79.8129 85.9737 79.8077H94.8137C94.9263 79.8061 95.038 79.8286 95.1412 79.8735C95.2445 79.9184 95.3371 79.9848 95.4127 80.0682C95.4884 80.1516 95.5454 80.2502 95.5801 80.3573C95.6147 80.4645 95.6262 80.5778 95.6137 80.6897V80.6897C95.5878 80.9283 95.476 81.1493 95.2992 81.3116C95.1224 81.4739 94.8926 81.5663 94.6527 81.5717V81.5717Z" fill="white"/>
<path opacity="0.5" d="M99.9621 86.3417H85.3781C85.2655 86.3432 85.1539 86.3208 85.0506 86.2759C84.9473 86.231 84.8548 86.1646 84.7791 86.0812C84.7035 85.9978 84.6464 85.8993 84.6118 85.7921C84.5771 85.6849 84.5657 85.5716 84.5781 85.4597V85.4597C84.6041 85.221 84.716 84.9998 84.893 84.8375C85.07 84.6752 85.3 84.5829 85.5401 84.5777H100.125C100.238 84.5762 100.349 84.5986 100.453 84.6435C100.556 84.6884 100.648 84.7548 100.724 84.8382C100.8 84.9216 100.857 85.0202 100.892 85.1273C100.926 85.2345 100.938 85.3478 100.925 85.4597V85.4597C100.899 85.6986 100.787 85.9199 100.61 86.0822C100.433 86.2446 100.202 86.3368 99.9621 86.3417V86.3417Z" fill="white"/>
<path opacity="0.5" d="M95.9536 91.1127H84.9446C84.8319 91.1143 84.7203 91.0918 84.617 91.0469C84.5137 91.002 84.4212 90.9356 84.3455 90.8522C84.2699 90.7688 84.2128 90.6702 84.1782 90.5631C84.1435 90.4559 84.1321 90.3426 84.1445 90.2307V90.2307C84.1705 89.992 84.2824 89.7708 84.4594 89.6085C84.6364 89.4462 84.8665 89.3539 85.1066 89.3487H96.1155C96.2282 89.3472 96.3398 89.3696 96.4431 89.4145C96.5464 89.4594 96.6389 89.5258 96.7146 89.6092C96.7902 89.6926 96.8473 89.7912 96.8819 89.8983C96.9166 90.0055 96.928 90.1188 96.9155 90.2307V90.2307C96.8896 90.4695 96.7777 90.6906 96.6007 90.8529C96.4237 91.0152 96.1937 91.1076 95.9536 91.1127V91.1127Z" fill="white"/>
<path opacity="0.5" d="M88.244 95.8827H84.508C84.3954 95.8843 84.2838 95.8618 84.1805 95.8169C84.0772 95.772 83.9847 95.7057 83.909 95.6222C83.8334 95.5388 83.7763 95.4403 83.7417 95.3331C83.707 95.226 83.6955 95.1127 83.708 95.0007V95.0007C83.734 94.762 83.8459 94.5408 84.0229 94.3785C84.1999 94.2162 84.4299 94.1239 84.67 94.1187H88.408C88.5206 94.1172 88.6323 94.1396 88.7356 94.1845C88.8388 94.2294 88.9314 94.2958 89.007 94.3792C89.0827 94.4626 89.1398 94.5612 89.1744 94.6683C89.2091 94.7755 89.2205 94.8888 89.208 95.0007C89.182 95.2398 89.0699 95.4612 88.8924 95.6236C88.715 95.7859 88.4845 95.878 88.244 95.8827V95.8827Z" fill="white"/>
<path opacity="0.5" d="M98.6604 100.655H84.0764C83.9638 100.656 83.8521 100.634 83.7489 100.589C83.6456 100.544 83.553 100.478 83.4774 100.394C83.4017 100.311 83.3447 100.212 83.31 100.105C83.2754 99.9979 83.2639 99.8846 83.2764 99.7727V99.7727C83.3023 99.534 83.4142 99.3128 83.5912 99.1505C83.7683 98.9882 83.9983 98.8959 84.2384 98.8907H98.8224C98.935 98.8892 99.0466 98.9116 99.1499 98.9565C99.2532 99.0014 99.3457 99.0678 99.4214 99.1512C99.4971 99.2346 99.5541 99.3332 99.5888 99.4403C99.6234 99.5475 99.6349 99.6608 99.6224 99.7727V99.7727C99.5965 100.011 99.4845 100.233 99.3075 100.395C99.1305 100.557 98.9005 100.65 98.6604 100.655V100.655Z" fill="white"/>
<path opacity="0.5" d="M92.4828 105.425H83.6428C83.5302 105.426 83.4185 105.404 83.3153 105.359C83.212 105.314 83.1194 105.248 83.0438 105.164C82.9681 105.081 82.9111 104.982 82.8764 104.875C82.8418 104.768 82.8303 104.655 82.8428 104.543V104.543C82.8685 104.304 82.9804 104.083 83.1574 103.92C83.3345 103.758 83.5646 103.666 83.8048 103.661H92.6438C92.7564 103.659 92.8681 103.682 92.9713 103.727C93.0746 103.771 93.1672 103.838 93.2428 103.921C93.3185 104.005 93.3755 104.103 93.4102 104.21C93.4448 104.317 93.4563 104.431 93.4438 104.543V104.543C93.4179 104.781 93.3061 105.002 93.1293 105.165C92.9525 105.327 92.7227 105.419 92.4828 105.425V105.425Z" fill="white"/>
<path opacity="0.5" d="M97.7922 110.196H83.2082C83.0956 110.197 82.984 110.175 82.8807 110.13C82.7774 110.085 82.6849 110.019 82.6092 109.935C82.5335 109.852 82.4765 109.753 82.4418 109.646C82.4072 109.539 82.3957 109.426 82.4082 109.314V109.314C82.4341 109.075 82.5461 108.854 82.7231 108.692C82.9001 108.529 83.1301 108.437 83.3702 108.432H97.9522C98.0648 108.43 98.1765 108.453 98.2798 108.498C98.383 108.542 98.4756 108.609 98.5512 108.692C98.6269 108.776 98.6839 108.874 98.7186 108.981C98.7533 109.088 98.7647 109.202 98.7522 109.314V109.314C98.7263 109.552 98.6147 109.773 98.4381 109.935C98.2615 110.098 98.032 110.19 97.7922 110.196Z" fill="white"/>
</g>
<path d="M125.503 71.8667L122.337 69.1157L120.853 74.1797C120.853 74.1797 124.069 75.9237 125.183 74.3227L125.503 71.8667Z" fill="#FFC3BD"/>
<path d="M118.887 68.918L117.857 73.162L120.849 74.182L122.333 69.117L118.887 68.918Z" fill="#FFC3BD"/>
</svg>
