<svg width="16" height="16" viewBox="0 0 16 16" fill="none" xmlns="http://www.w3.org/2000/svg">
<path fill-rule="evenodd" clip-rule="evenodd" d="M2.08301 7.99992C2.08301 7.82818 2.15628 7.49118 2.38361 7.0547C2.60394 6.63167 2.94676 6.15918 3.42505 5.71769C4.37264 4.84299 5.85866 4.08325 7.99967 4.08325C10.1407 4.08325 11.6267 4.84299 12.5743 5.71769C13.0526 6.15918 13.3954 6.63167 13.6157 7.0547C13.8431 7.49118 13.9163 7.82818 13.9163 7.99992C13.9163 8.17166 13.8431 8.50866 13.6157 8.94514C13.3954 9.36817 13.0526 9.84066 12.5743 10.2822C11.6267 11.1568 10.1407 11.9166 7.99967 11.9166C5.85866 11.9166 4.37264 11.1568 3.42505 10.2822C2.94676 9.84066 2.60394 9.36817 2.38361 8.94514C2.15628 8.50866 2.08301 8.17166 2.08301 7.99992ZM7.99967 2.58325C5.47402 2.58325 3.62671 3.49018 2.40763 4.61548C1.80258 5.17399 1.35374 5.78484 1.05324 6.3618C0.759736 6.92533 0.583008 7.50499 0.583008 7.99992C0.583008 8.49484 0.759736 9.07451 1.05324 9.63804C1.35374 10.215 1.80258 10.8258 2.40763 11.3844C3.62671 12.5097 5.47402 13.4166 7.99967 13.4166C10.5253 13.4166 12.3726 12.5097 13.5917 11.3844C14.1968 10.8258 14.6456 10.215 14.9461 9.63804C15.2396 9.07451 15.4163 8.49484 15.4163 7.99992C15.4163 7.50499 15.2396 6.92533 14.9461 6.3618C14.6456 5.78484 14.1968 5.17399 13.5917 4.61548C12.3726 3.49018 10.5253 2.58325 7.99967 2.58325ZM6.74961 7.99993C6.74961 7.30958 7.30925 6.74993 7.99961 6.74993C8.68997 6.74993 9.24961 7.30958 9.24961 7.99993C9.24961 8.69029 8.68997 9.24993 7.99961 9.24993C7.30925 9.24993 6.74961 8.69029 6.74961 7.99993ZM7.99961 5.24993C6.48083 5.24993 5.24961 6.48115 5.24961 7.99993C5.24961 9.51872 6.48083 10.7499 7.99961 10.7499C9.51839 10.7499 10.7496 9.51872 10.7496 7.99993C10.7496 6.48115 9.51839 5.24993 7.99961 5.24993Z" fill="#979AA4"/>
</svg>
