<svg width="18" height="18" viewBox="0 0 18 18" fill="none" xmlns="http://www.w3.org/2000/svg">
<path d="M6.75 11.8125C6.75 11.6633 6.80926 11.5202 6.91475 11.4148C7.02024 11.3093 7.16332 11.25 7.3125 11.25H10.6875C10.8367 11.25 10.9798 11.3093 11.0852 11.4148C11.1907 11.5202 11.25 11.6633 11.25 11.8125C11.25 11.9617 11.1907 12.1048 11.0852 12.2102C10.9798 12.3157 10.8367 12.375 10.6875 12.375H7.3125C7.16332 12.375 7.02024 12.3157 6.91475 12.2102C6.80926 12.1048 6.75 11.9617 6.75 11.8125ZM4.5 8.4375C4.5 8.28832 4.55926 8.14524 4.66475 8.03975C4.77024 7.93426 4.91332 7.875 5.0625 7.875H12.9375C13.0867 7.875 13.2298 7.93426 13.3352 8.03975C13.4407 8.14524 13.5 8.28832 13.5 8.4375C13.5 8.58668 13.4407 8.72976 13.3352 8.83525C13.2298 8.94074 13.0867 9 12.9375 9H5.0625C4.91332 9 4.77024 8.94074 4.66475 8.83525C4.55926 8.72976 4.5 8.58668 4.5 8.4375ZM2.25 5.0625C2.25 4.91332 2.30926 4.77024 2.41475 4.66475C2.52024 4.55926 2.66332 4.5 2.8125 4.5H15.1875C15.3367 4.5 15.4798 4.55926 15.5852 4.66475C15.6907 4.77024 15.75 4.91332 15.75 5.0625C15.75 5.21168 15.6907 5.35476 15.5852 5.46025C15.4798 5.56574 15.3367 5.625 15.1875 5.625H2.8125C2.66332 5.625 2.52024 5.56574 2.41475 5.46025C2.30926 5.35476 2.25 5.21168 2.25 5.0625Z" fill="#151622"/>
</svg>
