<svg width="18" height="11" viewBox="0 0 18 11" fill="none" xmlns="http://www.w3.org/2000/svg">
<path d="M0 9.75C0 9.55109 0.0790178 9.36032 0.21967 9.21967C0.360322 9.07902 0.551088 9 0.75 9H5.25C5.44891 9 5.63968 9.07902 5.78033 9.21967C5.92098 9.36032 6 9.55109 6 9.75C6 9.94891 5.92098 10.1397 5.78033 10.2803C5.63968 10.421 5.44891 10.5 5.25 10.5H0.75C0.551088 10.5 0.360322 10.421 0.21967 10.2803C0.0790178 10.1397 0 9.94891 0 9.75ZM0 5.25C0 5.05109 0.0790178 4.86032 0.21967 4.71967C0.360322 4.57902 0.551088 4.5 0.75 4.5H11.25C11.4489 4.5 11.6397 4.57902 11.7803 4.71967C11.921 4.86032 12 5.05109 12 5.25C12 5.44891 11.921 5.63968 11.7803 5.78033C11.6397 5.92098 11.4489 6 11.25 6H0.75C0.551088 6 0.360322 5.92098 0.21967 5.78033C0.0790178 5.63968 0 5.44891 0 5.25ZM0 0.75C0 0.551088 0.0790178 0.360322 0.21967 0.21967C0.360322 0.0790178 0.551088 0 0.75 0H17.25C17.4489 0 17.6397 0.0790178 17.7803 0.21967C17.921 0.360322 18 0.551088 18 0.75C18 0.948912 17.921 1.13968 17.7803 1.28033C17.6397 1.42098 17.4489 1.5 17.25 1.5H0.75C0.551088 1.5 0.360322 1.42098 0.21967 1.28033C0.0790178 1.13968 0 0.948912 0 0.75Z" fill="#D2D2E0"/>
</svg>
