<svg width="20" height="20" viewBox="0 0 20 20" fill="none" xmlns="http://www.w3.org/2000/svg">
<path fill-rule="evenodd" clip-rule="evenodd" d="M10 1.75C7.27743 1.75 5.23838 2.88757 3.89486 4.00717C3.65924 4.20352 3.44431 4.39983 3.25 4.59017V3.33333C3.25 2.91912 2.91421 2.58333 2.5 2.58333C2.08579 2.58333 1.75 2.91912 1.75 3.33333V6.66667C1.75 7.08088 2.08579 7.41667 2.5 7.41667H5.41667C5.83088 7.41667 6.16667 7.08088 6.16667 6.66667C6.16667 6.25245 5.83088 5.91667 5.41667 5.91667H4.04906C4.27601 5.67684 4.54479 5.41812 4.85514 5.1595C6.01162 4.19577 7.72257 3.25 10 3.25C13.7509 3.25 16.75 6.27048 16.75 10C16.75 13.7279 13.7279 16.75 10 16.75C6.27208 16.75 3.25 13.7279 3.25 10C3.25 9.58579 2.91421 9.25 2.5 9.25C2.08579 9.25 1.75 9.58579 1.75 10C1.75 14.5563 5.44365 18.25 10 18.25C14.5563 18.25 18.25 14.5563 18.25 10C18.25 5.44525 14.5825 1.75 10 1.75ZM10.75 6.66667C10.75 6.25245 10.4142 5.91667 10 5.91667C9.58579 5.91667 9.25 6.25245 9.25 6.66667V10C9.25 10.2508 9.37533 10.4849 9.58397 10.624L12.084 12.2907C12.4286 12.5205 12.8943 12.4273 13.124 12.0827C13.3538 11.738 13.2607 11.2724 12.916 11.0426L10.75 9.59861V6.66667Z" fill="#486AE2"/>
</svg>
