<svg width="16" height="16" viewBox="0 0 16 16" fill="none" xmlns="http://www.w3.org/2000/svg">
<path fill-rule="evenodd" clip-rule="evenodd" d="M8 0.5C5.52743 0.5 3.67588 1.5334 2.45736 2.54883C2.29394 2.68502 2.1415 2.82118 2 2.95491V2C2 1.58579 1.66421 1.25 1.25 1.25C0.835786 1.25 0.5 1.58579 0.5 2V5C0.5 5.41421 0.835786 5.75 1.25 5.75H3.875C4.28921 5.75 4.625 5.41421 4.625 5C4.625 4.58579 4.28921 4.25 3.875 4.25H2.82092C2.99567 4.07291 3.19463 3.88701 3.41764 3.70117C4.44912 2.8416 5.97257 2 8 2C11.3342 2 14 4.68469 14 8C14 11.3137 11.3137 14 8 14C4.68629 14 2 11.3137 2 8C2 7.58579 1.66421 7.25 1.25 7.25C0.835786 7.25 0.5 7.58579 0.5 8C0.5 12.1421 3.85786 15.5 8 15.5C12.1421 15.5 15.5 12.1421 15.5 8C15.5 3.85946 12.1658 0.5 8 0.5ZM8.75 5C8.75 4.58579 8.41421 4.25 8 4.25C7.58579 4.25 7.25 4.58579 7.25 5V8C7.25 8.25076 7.37533 8.48494 7.58397 8.62404L9.83397 10.124C10.1786 10.3538 10.6443 10.2607 10.874 9.91603C11.1038 9.57138 11.0107 9.10573 10.666 8.87596L8.75 7.59861V5Z" fill="#486AE2"/>
</svg>
