<svg width="18" height="18" viewBox="0 0 18 18" fill="none" xmlns="http://www.w3.org/2000/svg">
<path fill-rule="evenodd" clip-rule="evenodd" d="M7.5 5.25C7.5 3.59315 8.84315 2.25 10.5 2.25C11.8979 2.25 13.0725 3.20608 13.4055 4.5H15.75C16.1642 4.5 16.5 4.83579 16.5 5.25C16.5 5.66421 16.1642 6 15.75 6H13.4055C13.0725 7.29392 11.8979 8.25 10.5 8.25C8.84315 8.25 7.5 6.90685 7.5 5.25ZM10.5 3.75C11.3284 3.75 12 4.42157 12 5.25C12 6.07843 11.3284 6.75 10.5 6.75C9.67157 6.75 9 6.07843 9 5.25C9 4.42157 9.67157 3.75 10.5 3.75ZM1.5 4.5C1.08579 4.5 0.75 4.83579 0.75 5.25C0.75 5.66421 1.08579 6 1.5 6H6C6.41421 6 6.75 5.66421 6.75 5.25C6.75 4.83579 6.41421 4.5 6 4.5H1.5ZM1.5 12C1.08579 12 0.75 12.3358 0.75 12.75C0.75 13.1642 1.08579 13.5 1.5 13.5H3.84451C4.17755 14.7939 5.35212 15.75 6.75 15.75C8.40685 15.75 9.75 14.4069 9.75 12.75C9.75 11.0931 8.40685 9.75 6.75 9.75C5.35212 9.75 4.17755 10.7061 3.84451 12H1.5ZM5.25 12.75C5.25 13.5784 5.92157 14.25 6.75 14.25C7.57843 14.25 8.25 13.5784 8.25 12.75C8.25 11.9216 7.57843 11.25 6.75 11.25C5.92157 11.25 5.25 11.9216 5.25 12.75ZM11.25 12C10.8358 12 10.5 12.3358 10.5 12.75C10.5 13.1642 10.8358 13.5 11.25 13.5H15.75C16.1642 13.5 16.5 13.1642 16.5 12.75C16.5 12.3358 16.1642 12 15.75 12H11.25Z" fill="#979AA4"/>
</svg>
