<svg width="40" height="40" viewBox="0 0 40 40" fill="none" xmlns="http://www.w3.org/2000/svg">
<rect width="40" height="40" rx="8" fill="#F1F3F6"/>
<path d="M31.0002 25.91C31.0202 26.66 30.8202 27.37 30.4602 27.98C30.2602 28.34 29.9902 28.6701 29.6902 28.9401C29.0002 29.5801 28.0902 29.9701 27.0802 30.0001C25.6202 30.0301 24.3302 29.2801 23.6202 28.1301C23.2402 27.5401 23.0102 26.8301 23.0002 26.0801C22.9702 24.8201 23.5302 23.6801 24.4302 22.9301C25.1102 22.3701 25.9702 22.0201 26.9102 22.0001C29.1202 21.9501 30.9502 23.7 31.0002 25.91Z" stroke="#151622" stroke-width="1.5" stroke-miterlimit="10" stroke-linecap="round" stroke-linejoin="round"/>
<path d="M25.4404 26.03L26.4504 26.99L28.5404 24.97" stroke="#151622" stroke-width="1.5" stroke-linecap="round" stroke-linejoin="round"/>
<path d="M11.1699 15.4399L19.9999 20.5499L28.7699 15.4699" stroke="#151622" stroke-width="1.5" stroke-linecap="round" stroke-linejoin="round"/>
<path d="M20 29.6098V20.5398" stroke="#151622" stroke-width="1.5" stroke-linecap="round" stroke-linejoin="round"/>
<path d="M29.6096 17.17V22.83C29.6096 22.88 29.6096 22.92 29.5996 22.97C28.8996 22.36 27.9996 22 26.9996 22C26.0596 22 25.1896 22.33 24.4996 22.88C23.5796 23.61 22.9996 24.74 22.9996 26C22.9996 26.75 23.2096 27.46 23.5796 28.06C23.6696 28.22 23.7796 28.37 23.8996 28.51L22.0696 29.52C20.9296 30.16 19.0696 30.16 17.9296 29.52L12.5896 26.56C11.3796 25.89 10.3896 24.21 10.3896 22.83V17.17C10.3896 15.79 11.3796 14.11 12.5896 13.44L17.9296 10.48C19.0696 9.84 20.9296 9.84 22.0696 10.48L27.4096 13.44C28.6196 14.11 29.6096 15.79 29.6096 17.17Z" stroke="#151622" stroke-width="1.5" stroke-linecap="round" stroke-linejoin="round"/>
</svg>
