<svg width="16" height="16" viewBox="0 0 16 16" fill="none" xmlns="http://www.w3.org/2000/svg">
<path fill-rule="evenodd" clip-rule="evenodd" d="M5.33325 11.667C5.33325 11.5344 5.38593 11.4072 5.4797 11.3134C5.57347 11.2197 5.70064 11.167 5.83325 11.167L14.8333 11.167C14.9659 11.167 15.093 11.2197 15.1868 11.3134C15.2806 11.4072 15.3333 11.5344 15.3333 11.667C15.3333 11.7996 15.2806 11.9268 15.1868 12.0205C15.093 12.1143 14.9659 12.167 14.8333 12.167L5.83325 12.167C5.70064 12.167 5.57347 12.1143 5.4797 12.0205C5.38593 11.9268 5.33325 11.7996 5.33325 11.667ZM5.33325 7.66699C5.33325 7.53438 5.38593 7.40721 5.4797 7.31344C5.57347 7.21967 5.70064 7.16699 5.83325 7.16699L14.8333 7.16699C14.9659 7.16699 15.093 7.21967 15.1868 7.31344C15.2806 7.40721 15.3333 7.53438 15.3333 7.66699C15.3333 7.7996 15.2806 7.92678 15.1868 8.02055C15.093 8.11431 14.9659 8.16699 14.8333 8.16699L5.83325 8.16699C5.70064 8.16699 5.57347 8.11431 5.4797 8.02055C5.38593 7.92678 5.33325 7.7996 5.33325 7.66699ZM5.33325 3.66699C5.33325 3.53438 5.38593 3.40721 5.4797 3.31344C5.57347 3.21967 5.70064 3.16699 5.83325 3.16699L14.8333 3.16699C14.9659 3.16699 15.093 3.21967 15.1868 3.31344C15.2806 3.40721 15.3333 3.53438 15.3333 3.66699C15.3333 3.7996 15.2806 3.92678 15.1868 4.02055C15.093 4.11431 14.9659 4.16699 14.8333 4.16699L5.83325 4.16699C5.70064 4.16699 5.57347 4.11431 5.4797 4.02055C5.38593 3.92678 5.33325 3.7996 5.33325 3.66699ZM2.33325 4.66699C2.59847 4.66699 2.85282 4.56164 3.04036 4.3741C3.2279 4.18656 3.33325 3.93221 3.33325 3.66699C3.33325 3.40178 3.2279 3.14742 3.04036 2.95989C2.85282 2.77235 2.59847 2.66699 2.33325 2.66699C2.06804 2.66699 1.81368 2.77235 1.62615 2.95989C1.43861 3.14742 1.33325 3.40178 1.33325 3.66699C1.33325 3.93221 1.43861 4.18656 1.62615 4.3741C1.81368 4.56164 2.06804 4.66699 2.33325 4.66699ZM2.33325 8.66699C2.59847 8.66699 2.85282 8.56164 3.04036 8.3741C3.2279 8.18656 3.33325 7.93221 3.33325 7.66699C3.33325 7.40178 3.2279 7.14742 3.04036 6.95989C2.85282 6.77235 2.59847 6.66699 2.33325 6.66699C2.06804 6.66699 1.81368 6.77235 1.62615 6.95989C1.43861 7.14742 1.33325 7.40178 1.33325 7.66699C1.33325 7.93221 1.43861 8.18656 1.62615 8.3741C1.81368 8.56164 2.06804 8.66699 2.33325 8.66699ZM2.33325 12.667C2.59847 12.667 2.85282 12.5616 3.04036 12.3741C3.2279 12.1866 3.33325 11.9322 3.33325 11.667C3.33325 11.4018 3.2279 11.1474 3.04036 10.9599C2.85282 10.7723 2.59847 10.667 2.33325 10.667C2.06804 10.667 1.81368 10.7723 1.62615 10.9599C1.43861 11.1474 1.33325 11.4018 1.33325 11.667C1.33325 11.9322 1.43861 12.1866 1.62615 12.3741C1.81368 12.5616 2.06804 12.667 2.33325 12.667Z" fill="#151622"/>
</svg>
