<svg width="24" height="24" viewBox="0 0 24 24" fill="none" xmlns="http://www.w3.org/2000/svg">
<path d="M9.25 10C9.25 8.48122 10.4812 7.25 12 7.25C13.5188 7.25 14.75 8.48122 14.75 10C14.75 11.5188 13.5188 12.75 12 12.75C10.4812 12.75 9.25 11.5188 9.25 10ZM12 7.75C10.7574 7.75 9.75 8.75736 9.75 10C9.75 11.2426 10.7574 12.25 12 12.25C13.2426 12.25 14.25 11.2426 14.25 10C14.25 8.75736 13.2426 7.75 12 7.75Z" stroke="#1838BD"/>
<mask id="path-2-inside-1_10821_14372" fill="white">
<path fill-rule="evenodd" clip-rule="evenodd" d="M12 2.25C7.71979 2.25 4.25 5.71979 4.25 10C4.25 11.4166 4.74267 12.8518 5.42793 14.1734C6.11657 15.5015 7.02605 16.765 7.92105 17.8518C8.81788 18.9408 9.71262 19.8673 10.3823 20.5211C10.7177 20.8484 10.9977 21.1085 11.195 21.2876C11.2937 21.3772 11.3717 21.4466 11.4256 21.4942C11.4526 21.5179 11.4736 21.5362 11.4881 21.5488C11.4953 21.5552 11.501 21.56 11.505 21.5635L11.5097 21.5676L11.5111 21.5688L11.5116 21.5692C11.5118 21.5693 11.5119 21.5694 12 21L11.5119 21.5694L12 21.9878L12.4881 21.5694L12 21C12.4881 21.5694 12.4882 21.5693 12.4884 21.5692L12.4889 21.5688L12.4903 21.5676L12.495 21.5635C12.499 21.56 12.5047 21.5552 12.5119 21.5488C12.5264 21.5362 12.5474 21.5179 12.5744 21.4942C12.6283 21.4466 12.7064 21.3772 12.805 21.2876C13.0023 21.1085 13.2823 20.8484 13.6177 20.5211C14.2874 19.8673 15.1821 18.9408 16.0789 17.8518C16.9739 16.765 17.8834 15.5015 18.5721 14.1734C19.2573 12.8518 19.75 11.4166 19.75 10C19.75 5.71979 16.2802 2.25 12 2.25ZM12.5698 19.4477C12.3522 19.6602 12.1594 19.8425 12 19.9904C11.8406 19.8425 11.6478 19.6602 11.4302 19.4477C10.7874 18.8202 9.93212 17.9342 9.07895 16.8982C8.22395 15.86 7.38343 14.686 6.75957 13.4829C6.13233 12.2732 5.75 11.0834 5.75 10C5.75 6.54822 8.54822 3.75 12 3.75C15.4518 3.75 18.25 6.54822 18.25 10C18.25 11.0834 17.8677 12.2732 17.2404 13.4829C16.6166 14.686 15.7761 15.86 14.9211 16.8982C14.0679 17.9342 13.2126 18.8202 12.5698 19.4477Z"/>
</mask>
<path d="M5.42793 14.1734L4.54017 14.6337L4.54017 14.6337L5.42793 14.1734ZM7.92105 17.8518L7.14912 18.4875L7.14912 18.4875L7.92105 17.8518ZM10.3823 20.5211L9.68373 21.2366L9.68389 21.2368L10.3823 20.5211ZM11.195 21.2876L11.8671 20.5472L11.8671 20.5472L11.195 21.2876ZM11.4256 21.4942L10.7637 22.2438L10.7659 22.2457L11.4256 21.4942ZM11.4881 21.5488L12.1525 20.8013L12.144 20.794L11.4881 21.5488ZM11.505 21.5635L10.8465 22.3161L10.8475 22.317L11.505 21.5635ZM11.5097 21.5676L10.8522 22.3211L10.859 22.3269L11.5097 21.5676ZM11.5111 21.5688L10.8604 22.3281L10.8729 22.3388L10.8857 22.3491L11.5111 21.5688ZM11.5116 21.5692L10.8862 22.3495L10.9692 22.416L11.0644 22.4636L11.5116 21.5692ZM11.5119 21.5694L10.7527 20.9186L10.1018 21.6778L10.8611 22.3286L11.5119 21.5694ZM12 21.9878L11.3492 22.747L12 23.3049L12.6508 22.747L12 21.9878ZM12.4881 21.5694L13.1389 22.3286L13.8982 21.6778L13.2473 20.9186L12.4881 21.5694ZM12.4884 21.5692L12.9356 22.4636L13.0308 22.416L13.1138 22.3495L12.4884 21.5692ZM12.4889 21.5688L13.1143 22.3491L13.1271 22.3388L13.1396 22.3281L12.4889 21.5688ZM12.4903 21.5676L13.141 22.327L13.1478 22.3211L12.4903 21.5676ZM12.495 21.5635L13.1525 22.317L13.1535 22.3161L12.495 21.5635ZM12.5119 21.5488L11.8559 20.7939L11.8475 20.8014L12.5119 21.5488ZM12.5744 21.4942L13.2341 22.2457L13.2363 22.2438L12.5744 21.4942ZM12.805 21.2876L12.1329 20.5472L12.1325 20.5475L12.805 21.2876ZM13.6177 20.5211L14.3161 21.2368L14.3163 21.2366L13.6177 20.5211ZM16.0789 17.8518L15.307 17.2161L15.307 17.2161L16.0789 17.8518ZM18.5721 14.1734L19.4598 14.6337L19.4599 14.6337L18.5721 14.1734ZM12.5698 19.4477L11.8713 18.7321L11.8711 18.7323L12.5698 19.4477ZM12 19.9904L11.3198 20.7235L12 21.3546L12.6802 20.7235L12 19.9904ZM11.4302 19.4477L12.1289 18.7323L12.1287 18.7321L11.4302 19.4477ZM9.07895 16.8982L9.85088 16.2625L9.85088 16.2625L9.07895 16.8982ZM6.75957 13.4829L5.87181 13.9432L5.87182 13.9432L6.75957 13.4829ZM17.2404 13.4829L16.3527 13.0226L16.3526 13.0226L17.2404 13.4829ZM14.9211 16.8982L15.693 17.5339L15.693 17.5339L14.9211 16.8982ZM12 1.25C7.16751 1.25 3.25 5.16751 3.25 10H5.25C5.25 6.27207 8.27207 3.25 12 3.25V1.25ZM3.25 10C3.25 11.6387 3.81622 13.2375 4.54017 14.6337L6.31569 13.7131C5.66912 12.4661 5.25 11.1945 5.25 10H3.25ZM4.54017 14.6337C5.272 16.0451 6.22745 17.3683 7.14912 18.4875L8.69298 17.2161C7.82465 16.1617 6.96114 14.9579 6.31569 13.7131L4.54017 14.6337ZM7.14912 18.4875C8.07505 19.6118 8.99611 20.5653 9.68373 21.2366L11.0809 19.8056C10.4291 19.1693 9.56071 18.2698 8.69298 17.2161L7.14912 18.4875ZM9.68389 21.2368C10.0287 21.5733 10.3176 21.8417 10.5229 22.028L11.8671 20.5472C11.6778 20.3753 11.4067 20.1235 11.0807 19.8054L9.68389 21.2368ZM10.5229 22.028C10.6255 22.1212 10.7069 22.1937 10.7637 22.2438L12.0875 20.7446C12.0365 20.6995 11.9619 20.6332 11.8671 20.5472L10.5229 22.028ZM10.7659 22.2457C10.7943 22.2707 10.8166 22.2901 10.8322 22.3036L12.144 20.794C12.1306 20.7823 12.1109 20.7651 12.0853 20.7427L10.7659 22.2457ZM10.8237 22.2962C10.8325 22.304 10.8398 22.3103 10.8445 22.3144C10.8456 22.3153 10.8466 22.3162 10.8474 22.3168C10.8482 22.3176 10.8485 22.3178 10.8489 22.3182C10.8497 22.3189 10.8485 22.3178 10.8465 22.3161L12.1635 20.8109C12.1595 20.8074 12.1561 20.8045 12.1545 20.8031C12.1536 20.8024 12.1527 20.8015 12.1522 20.8012C12.1516 20.8007 12.1513 20.8004 12.151 20.8001C12.15 20.7993 12.1509 20.8 12.1525 20.8014L10.8237 22.2962ZM10.8475 22.317L10.8522 22.3211L12.1672 20.8141L12.1625 20.81L10.8475 22.317ZM10.859 22.3269L10.8604 22.3281L12.1618 20.8095L12.1604 20.8083L10.859 22.3269ZM10.8857 22.3491L10.8862 22.3495L12.137 20.7889L12.1365 20.7885L10.8857 22.3491ZM11.0644 22.4636C11.0527 22.4578 11.1335 22.5012 11.2368 22.5307C11.3601 22.5659 11.4952 22.5788 11.6342 22.5617C11.8737 22.5321 12.0341 22.4232 12.0742 22.396C12.1314 22.357 12.1716 22.3207 12.1853 22.3082C12.2034 22.2917 12.2171 22.278 12.224 22.2711C12.2377 22.2571 12.2481 22.2457 12.2511 22.2424C12.2555 22.2376 12.259 22.2336 12.2608 22.2316C12.2668 22.2248 12.2729 22.2177 12.2762 22.214C12.285 22.2038 12.3013 22.1849 12.3316 22.1495C12.393 22.0781 12.5152 21.9355 12.7592 21.6508L11.2408 20.3492C10.9967 20.6339 10.8748 20.776 10.814 20.8468C10.7833 20.8826 10.7691 20.8992 10.7626 20.9067C10.7581 20.9119 10.7604 20.9092 10.7644 20.9047C10.7658 20.9032 10.7689 20.8996 10.773 20.8951C10.7757 20.8921 10.7859 20.8809 10.7996 20.8671C10.8064 20.8602 10.82 20.8465 10.838 20.8301C10.8517 20.8176 10.8919 20.7813 10.9491 20.7424C10.9891 20.7152 11.1495 20.6063 11.389 20.5768C11.528 20.5596 11.6631 20.5725 11.7864 20.6077C11.8897 20.6372 11.9705 20.6806 11.9588 20.6748L11.0644 22.4636ZM11.2408 20.3492L10.7527 20.9186L12.2711 22.2202L12.7592 21.6508L11.2408 20.3492ZM10.8611 22.3286L11.3492 22.747L12.6508 21.2286L12.1627 20.8102L10.8611 22.3286ZM12.6508 22.747L13.1389 22.3286L11.8373 20.8102L11.3492 21.2286L12.6508 22.747ZM13.2473 20.9186L12.7592 20.3492L11.2408 21.6508L11.7289 22.2202L13.2473 20.9186ZM11.2408 21.6508C11.4848 21.9355 11.607 22.0781 11.6684 22.1495C11.6987 22.1849 11.715 22.2038 11.7238 22.214C11.7271 22.2177 11.7332 22.2248 11.7392 22.2316C11.741 22.2336 11.7445 22.2376 11.7489 22.2424C11.7519 22.2457 11.7623 22.2571 11.776 22.2711C11.7829 22.278 11.7966 22.2917 11.8147 22.3082C11.8284 22.3207 11.8686 22.357 11.9258 22.396C11.9659 22.4232 12.1263 22.5321 12.3658 22.5617C12.5048 22.5788 12.6399 22.5659 12.7632 22.5307C12.8665 22.5012 12.9473 22.4578 12.9356 22.4636L12.0412 20.6748C12.0295 20.6806 12.1103 20.6372 12.2136 20.6077C12.3369 20.5725 12.472 20.5596 12.611 20.5768C12.8505 20.6063 13.0109 20.7152 13.0509 20.7424C13.1081 20.7813 13.1483 20.8176 13.162 20.8301C13.18 20.8465 13.1936 20.8602 13.2004 20.8671C13.2141 20.8809 13.2243 20.8921 13.227 20.8951C13.2311 20.8996 13.2342 20.9032 13.2356 20.9047C13.2396 20.9092 13.2419 20.9119 13.2374 20.9067C13.2309 20.8992 13.2167 20.8826 13.186 20.8468C13.1252 20.776 13.0033 20.6339 12.7592 20.3492L11.2408 21.6508ZM13.1138 22.3495L13.1143 22.3491L11.8635 20.7885L11.863 20.7889L13.1138 22.3495ZM13.1396 22.3281L13.141 22.3269L11.8396 20.8083L11.8382 20.8095L13.1396 22.3281ZM13.1478 22.3211L13.1525 22.317L11.8375 20.81L11.8328 20.8141L13.1478 22.3211ZM13.1535 22.3161C13.1515 22.3178 13.1503 22.3189 13.1511 22.3182C13.1515 22.3178 13.1518 22.3176 13.1526 22.3168C13.1534 22.3162 13.1544 22.3153 13.1555 22.3144C13.1602 22.3103 13.1675 22.304 13.1763 22.2962L11.8475 20.8014C11.8491 20.8 11.85 20.7993 11.849 20.8001C11.8487 20.8004 11.8484 20.8007 11.8478 20.8012C11.8473 20.8015 11.8464 20.8024 11.8455 20.8031C11.8439 20.8045 11.8405 20.8074 11.8365 20.8109L13.1535 22.3161ZM13.1678 22.3036C13.1834 22.2901 13.2057 22.2707 13.2341 22.2457L11.9147 20.7427C11.8891 20.7651 11.8694 20.7823 11.856 20.794L13.1678 22.3036ZM13.2363 22.2438C13.2927 22.1939 13.3745 22.1213 13.4775 22.0277L12.1325 20.5475C12.0383 20.6331 11.9639 20.6993 11.9125 20.7446L13.2363 22.2438ZM13.4771 22.028C13.6824 21.8417 13.9713 21.5733 14.3161 21.2368L12.9193 19.8054C12.5933 20.1235 12.3222 20.3753 12.1329 20.5472L13.4771 22.028ZM14.3163 21.2366C15.0039 20.5653 15.9249 19.6118 16.8508 18.4875L15.307 17.2161C14.4393 18.2698 13.5709 19.1693 12.9191 19.8055L14.3163 21.2366ZM16.8508 18.4875C17.7725 17.3683 18.728 16.0451 19.4598 14.6337L17.6844 13.7131C17.0388 14.9579 16.1753 16.1617 15.307 17.2161L16.8508 18.4875ZM19.4599 14.6337C20.1837 13.2375 20.75 11.6387 20.75 10H18.75C18.75 11.1945 18.3309 12.4661 17.6843 13.7131L19.4599 14.6337ZM20.75 10C20.75 5.1675 16.8325 1.25 12 1.25V3.25C15.7279 3.25 18.75 6.27208 18.75 10H20.75ZM11.8711 18.7323C11.6602 18.9382 11.4736 19.1146 11.3198 19.2573L12.6802 20.7235C12.8452 20.5704 13.0442 20.3822 13.2685 20.1631L11.8711 18.7323ZM12.6802 19.2573C12.5264 19.1146 12.3398 18.9382 12.1289 18.7323L10.7315 20.1631C10.9558 20.3822 11.1548 20.5704 11.3198 20.7235L12.6802 19.2573ZM12.1287 18.7321C11.5039 18.1222 10.6749 17.2631 9.85088 16.2625L8.30702 17.5339C9.1893 18.6053 10.0709 19.5182 10.7317 20.1633L12.1287 18.7321ZM9.85088 16.2625C9.02254 15.2567 8.22799 14.1424 7.64732 13.0226L5.87182 13.9432C6.53887 15.2296 7.42535 16.4633 8.30702 17.5339L9.85088 16.2625ZM7.64733 13.0226C7.05877 11.8875 6.75 10.8613 6.75 10H4.75C4.75 11.3055 5.20589 12.6589 5.87181 13.9432L7.64733 13.0226ZM6.75 10C6.75 7.1005 9.1005 4.75 12 4.75V2.75C7.99594 2.75 4.75 5.99594 4.75 10H6.75ZM12 4.75C14.8995 4.75 17.25 7.1005 17.25 10H19.25C19.25 5.99594 16.0041 2.75 12 2.75V4.75ZM17.25 10C17.25 10.8613 16.9413 11.8875 16.3527 13.0226L18.1281 13.9432C18.7941 12.6589 19.25 11.3055 19.25 10H17.25ZM16.3526 13.0226C15.772 14.1424 14.9775 15.2567 14.1492 16.2625L15.693 17.5339C16.5747 16.4633 17.4612 15.2296 18.1282 13.9432L16.3526 13.0226ZM14.1492 16.2625C13.3251 17.2631 12.4961 18.1221 11.8713 18.7321L13.2683 20.1633C13.9291 19.5183 14.8107 18.6053 15.693 17.5339L14.1492 16.2625Z" fill="#1838BD" mask="url(#path-2-inside-1_10821_14372)"/>
</svg>
