<svg width="18" height="18" viewBox="0 0 18 18" fill="none" xmlns="http://www.w3.org/2000/svg">
<path d="M5.25 8H5.75V7.5V5.25C5.75 3.45839 7.20839 2 9 2C10.7916 2 12.25 3.45839 12.25 5.25V5.5H11.75V5.25C11.75 3.73336 10.5166 2.5 9 2.5C7.48336 2.5 6.25 3.73336 6.25 5.25V7.5V8H6.75H13.5C14.0511 8 14.5 8.44889 14.5 9V15C14.5 15.5511 14.0511 16 13.5 16H4.5C3.94889 16 3.5 15.5511 3.5 15V9C3.5 8.44889 3.94889 8 4.5 8H5.25ZM14 8.99988L13.9999 8.5H13.5H4.5H4V9V15V15.5H4.5H13.5015H14.0016L14.0015 14.9999L14 8.99988Z" stroke="#486AE2"/>
</svg>
