<svg width="24" height="24" viewBox="0 0 24 24" fill="none" xmlns="http://www.w3.org/2000/svg">
<path d="M12.8743 9.37406L12.5 9.47128V9.858V14.882L12 15.882L11.5 14.882V9.858V9.47128L11.1257 9.37406C9.61627 8.98201 8.5 7.62126 8.5 6C8.5 4.07014 10.0701 2.5 12 2.5C13.9299 2.5 15.5 4.07014 15.5 6C15.5 7.62126 14.3837 8.98201 12.8743 9.37406Z" stroke="#1838BD"/>
<path d="M19.1562 13.5963C18.4437 13.0104 17.4806 12.5148 16.3465 12.1514L16.6133 11.1865C19.7719 12.1868 21.5 14.0635 21.5 15.9995C21.5 17.4418 20.5585 18.8044 18.8454 19.8323C17.1384 20.8565 14.7314 21.4995 12 21.4995C9.26864 21.4995 6.86159 20.8565 5.15463 19.8323C3.44147 18.8044 2.5 17.4418 2.5 15.9995C2.5 14.0635 4.22814 12.1868 7.38776 11.1855L7.65453 12.1505C6.51992 12.5143 5.55655 13.0101 4.84389 13.5962C4.03889 14.2583 3.5 15.0846 3.5 15.9995C3.5 17.2312 4.53777 18.3606 5.99388 19.1487C7.48821 19.9576 9.57237 20.4995 12 20.4995C14.4276 20.4995 16.5118 19.9576 18.0061 19.1487C19.4622 18.3606 20.5 17.2312 20.5 15.9995C20.5 15.0846 19.9611 14.2583 19.1562 13.5963Z" fill="black" stroke="#1838BD"/>
</svg>
