<svg width="48" height="48" viewBox="0 0 48 48" fill="none" xmlns="http://www.w3.org/2000/svg">
<path d="M15 27.75C15 27.5511 15.079 27.3603 15.2197 27.2197C15.3603 27.079 15.5511 27 15.75 27H20.25C20.4489 27 20.6397 27.079 20.7803 27.2197C20.921 27.3603 21 27.5511 21 27.75C21 27.9489 20.921 28.1397 20.7803 28.2803C20.6397 28.421 20.4489 28.5 20.25 28.5H15.75C15.5511 28.5 15.3603 28.421 15.2197 28.2803C15.079 28.1397 15 27.9489 15 27.75ZM15 23.25C15 23.0511 15.079 22.8603 15.2197 22.7197C15.3603 22.579 15.5511 22.5 15.75 22.5H26.25C26.4489 22.5 26.6397 22.579 26.7803 22.7197C26.921 22.8603 27 23.0511 27 23.25C27 23.4489 26.921 23.6397 26.7803 23.7803C26.6397 23.921 26.4489 24 26.25 24H15.75C15.5511 24 15.3603 23.921 15.2197 23.7803C15.079 23.6397 15 23.4489 15 23.25ZM15 18.75C15 18.5511 15.079 18.3603 15.2197 18.2197C15.3603 18.079 15.5511 18 15.75 18H32.25C32.4489 18 32.6397 18.079 32.7803 18.2197C32.921 18.3603 33 18.5511 33 18.75C33 18.9489 32.921 19.1397 32.7803 19.2803C32.6397 19.421 32.4489 19.5 32.25 19.5H15.75C15.5511 19.5 15.3603 19.421 15.2197 19.2803C15.079 19.1397 15 18.9489 15 18.75Z" fill="#486AE2"/>
</svg>
