<svg width="24" height="24" viewBox="0 0 24 24" fill="none" xmlns="http://www.w3.org/2000/svg">
<path fill-rule="evenodd" clip-rule="evenodd" d="M9.4 2.25H9.367H9.36699C8.27485 2.24999 7.40935 2.24999 6.71173 2.30699C5.99835 2.36527 5.39472 2.48688 4.84355 2.76772C3.94978 3.22312 3.22312 3.94978 2.76772 4.84355C2.48688 5.39472 2.36527 5.99835 2.30699 6.71173C2.24999 7.40935 2.24999 8.27485 2.25 9.36699V9.367V9.4V14.6V14.633V14.633C2.24999 15.7252 2.24999 16.5906 2.30699 17.2883C2.36527 18.0017 2.48688 18.6053 2.76772 19.1565C3.22312 20.0502 3.94978 20.7769 4.84355 21.2323C5.39472 21.5131 5.99835 21.6347 6.71173 21.693C7.40935 21.75 8.27485 21.75 9.36698 21.75H9.4H14.349L14.4426 21.75C15.3314 21.7502 15.9042 21.7503 16.452 21.6188C16.9367 21.5024 17.4 21.3105 17.825 21.05C18.3053 20.7557 18.7103 20.3506 19.3387 19.722L19.4048 19.6558L19.6558 19.4048L19.7219 19.3387L19.722 19.3387C20.3506 18.7103 20.7557 18.3053 21.05 17.825C21.3105 17.4 21.5024 16.9367 21.6188 16.452C21.7503 15.9042 21.7502 15.3314 21.75 14.4426L21.75 14.349V9.4V9.36698C21.75 8.27485 21.75 7.40935 21.693 6.71173C21.6347 5.99835 21.5131 5.39472 21.2323 4.84355C20.7769 3.94978 20.0502 3.22312 19.1565 2.76772C18.6053 2.48688 18.0017 2.36527 17.2883 2.30699C16.5906 2.24999 15.7252 2.24999 14.633 2.25H14.633H14.6H9.4ZM5.52453 4.10423C5.829 3.94909 6.21325 3.85271 6.83388 3.80201C7.46327 3.75058 8.26752 3.75 9.4 3.75H14.6C15.7325 3.75 16.5367 3.75058 17.1661 3.80201C17.7867 3.85271 18.171 3.94909 18.4755 4.10423C19.087 4.41582 19.5842 4.913 19.8958 5.52453C20.0509 5.829 20.1473 6.21325 20.198 6.83388C20.2494 7.46327 20.25 8.26752 20.25 9.4V14.349C20.25 14.7261 20.2493 15.0161 20.2441 15.25H19.2H19.1696H19.1695C18.6354 15.25 18.1896 15.25 17.8253 15.2797C17.4454 15.3107 17.0888 15.3779 16.7515 15.5497C16.2341 15.8134 15.8134 16.2341 15.5497 16.7515C15.3779 17.0888 15.3108 17.4454 15.2797 17.8253C15.25 18.1895 15.25 18.6354 15.25 19.1695V19.2V20.2441C15.0162 20.2493 14.7261 20.25 14.349 20.25H9.4C8.26752 20.25 7.46327 20.2494 6.83388 20.198C6.21325 20.1473 5.829 20.0509 5.52453 19.8958C4.913 19.5842 4.41582 19.087 4.10423 18.4755C3.94909 18.171 3.85271 17.7867 3.80201 17.1661C3.75058 16.5367 3.75 15.7325 3.75 14.6V9.4C3.75 8.26752 3.75058 7.46327 3.80201 6.83388C3.85271 6.21325 3.94909 5.829 4.10423 5.52453C4.41582 4.913 4.913 4.41582 5.52453 4.10423ZM16.75 19.9297C16.8496 19.8819 16.9468 19.829 17.0413 19.7711C17.3516 19.5809 17.6271 19.3122 18.3442 18.5952L18.5952 18.3442C19.3122 17.6271 19.5809 17.3516 19.7711 17.0413C19.829 16.9468 19.8819 16.8496 19.9297 16.75H19.2C18.6276 16.75 18.2434 16.7506 17.9475 16.7747C17.6604 16.7982 17.5231 16.8401 17.4325 16.8862C17.1973 17.0061 17.0061 17.1973 16.8862 17.4325C16.8401 17.523 16.7982 17.6603 16.7748 17.9474C16.7506 18.2433 16.75 18.6275 16.75 19.2V19.9297Z" fill="#1838BD"/>
</svg>
