<svg width="24" height="24" viewBox="0 0 24 24" fill="none" xmlns="http://www.w3.org/2000/svg">
<path fill-rule="evenodd" clip-rule="evenodd" d="M3.25 4C3.25 3.58579 3.58579 3.25 4 3.25H8C8.35751 3.25 8.66532 3.50234 8.73544 3.85291L9.73544 8.85291C9.78461 9.09881 9.70765 9.35301 9.53033 9.53033L6.6696 12.3911C7.25184 13.4537 7.95892 14.3983 8.78033 15.2197C9.60174 16.0411 10.5463 16.7482 11.6089 17.3304L14.4697 14.4697C14.647 14.2924 14.9012 14.2154 15.1471 14.2646L20.1471 15.2646C20.4977 15.3347 20.75 15.6425 20.75 16V16.0078V16.0156V16.0234V16.0312V16.0391V16.0469V16.0547V16.0625V16.0703V16.0781V16.0859V16.0938V16.1016V16.1094V16.1172V16.125V16.1328V16.1406V16.1484V16.1562V16.1641V16.1719V16.1797V16.1875V16.1953V16.2031V16.2109V16.2188V16.2266V16.2344V16.2422V16.25V16.2578V16.2656V16.2734V16.2812V16.2891V16.2969V16.3047V16.3125V16.3203V16.3281V16.3359V16.3438V16.3516V16.3594V16.3672V16.375V16.3828V16.3906V16.3984V16.4062V16.4141V16.4219V16.4297V16.4375V16.4453V16.4531V16.4609V16.4688V16.4766V16.4844V16.4922V16.5V16.5078V16.5156V16.5234V16.5312V16.5391V16.5469V16.5547V16.5625V16.5703V16.5781V16.5859V16.5938V16.6016V16.6094V16.6172V16.625V16.6328V16.6406V16.6484V16.6562V16.6641V16.6719V16.6797V16.6875V16.6953V16.7031V16.7109V16.7188V16.7266V16.7344V16.7422V16.75V16.7578V16.7656V16.7734V16.7812V16.7891V16.7969V16.8047V16.8125V16.8203V16.8281V16.8359V16.8438V16.8516V16.8594V16.8672V16.875V16.8828V16.8906V16.8984V16.9062V16.9141V16.9219V16.9297V16.9375V16.9453V16.9531V16.9609V16.9688V16.9766V16.9844V16.9922V17V17.0078V17.0156V17.0234V17.0312V17.0391V17.0469V17.0547V17.0625V17.0703V17.0781V17.0859V17.0938V17.1016V17.1094V17.1172V17.125V17.1328V17.1406V17.1484V17.1562V17.1641V17.1719V17.1797V17.1875V17.1953V17.2031V17.2109V17.2188V17.2266V17.2344V17.2422V17.25V17.2578V17.2656V17.2734V17.2812V17.2891V17.2969V17.3047V17.3125V17.3203V17.3281V17.3359V17.3438V17.3516V17.3594V17.3672V17.375V17.3828V17.3906V17.3984V17.4062V17.4141V17.4219V17.4297V17.4375V17.4453V17.4531V17.4609V17.4688V17.4766V17.4844V17.4922V17.5V17.5078V17.5156V17.5234V17.5312V17.5391V17.5469V17.5547V17.5625V17.5703V17.5781V17.5859V17.5938V17.6016V17.6094V17.6172V17.625V17.6328V17.6406V17.6484V17.6562V17.6641V17.6719V17.6797V17.6875V17.6953V17.7031V17.7109V17.7188V17.7266V17.7344V17.7422V17.75V17.7578V17.7656V17.7734V17.7812V17.7891V17.7969V17.8047V17.8125V17.8203V17.8281V17.8359V17.8438V17.8516V17.8594V17.8672V17.875V17.8828V17.8906V17.8984V17.9062V17.9141V17.9219V17.9297V17.9375V17.9453V17.9531V17.9609V17.9688V17.9766V17.9844V17.9922V18V18.0078V18.0156V18.0234V18.0312V18.0391V18.0469V18.0547V18.0625V18.0703V18.0781V18.0859V18.0938V18.1016V18.1094V18.1172V18.125V18.1328V18.1406V18.1484V18.1562V18.1641V18.1719V18.1797V18.1875V18.1953V18.2031V18.2109V18.2188V18.2266V18.2344V18.2422V18.25V18.2578V18.2656V18.2734V18.2812V18.2891V18.2969V18.3047V18.3125V18.3203V18.3281V18.3359V18.3438V18.3516V18.3594V18.3672V18.375V18.3828V18.3906V18.3984V18.4062V18.4141V18.4219V18.4297V18.4375V18.4453V18.4531V18.4609V18.4688V18.4766V18.4844V18.4922V18.5V18.5078V18.5156V18.5234V18.5312V18.5391V18.5469V18.5547V18.5625V18.5703V18.5781V18.5859V18.5938V18.6016V18.6094V18.6172V18.625V18.6328V18.6406V18.6484V18.6562V18.6641V18.6719V18.6797V18.6875V18.6953V18.7031V18.7109V18.7188V18.7266V18.7344V18.7422V18.75V18.7578V18.7656V18.7734V18.7812V18.7891V18.7969V18.8047V18.8125V18.8203V18.8281V18.8359V18.8438V18.8516V18.8594V18.8672V18.875V18.8828V18.8906V18.8984V18.9062V18.9141V18.9219V18.9297V18.9375V18.9453V18.9531V18.9609V18.9688V18.9766V18.9844V18.9922V19V19.0078V19.0156V19.0234V19.0312V19.0391V19.0469V19.0547V19.0625V19.0703V19.0781V19.0859V19.0938V19.1016V19.1094V19.1172V19.125V19.1328V19.1406V19.1484V19.1562V19.1641V19.1719V19.1797V19.1875V19.1953V19.2031V19.2109V19.2188V19.2266V19.2344V19.2422V19.25V19.2578V19.2656V19.2734V19.2812V19.2891V19.2969V19.3047V19.3125V19.3203V19.3281V19.3359V19.3438V19.3516V19.3594V19.3672V19.375V19.3828V19.3906V19.3984V19.4062V19.4141V19.4219V19.4297V19.4375V19.4453V19.4531V19.4609V19.4688V19.4766V19.4844V19.4922V19.5V19.5078V19.5156V19.5234V19.5312V19.5391V19.5469V19.5547V19.5625V19.5703V19.5781V19.5859V19.5938V19.6016V19.6094V19.6172V19.625V19.6328V19.6406V19.6484V19.6562V19.6641V19.6719V19.6797V19.6875V19.6953V19.7031V19.7109V19.7188V19.7266V19.7344V19.7422V19.75V19.7578V19.7656V19.7734V19.7812V19.7891V19.7969V19.8047V19.8125V19.8203V19.8281V19.8359V19.8438V19.8516V19.8594V19.8672V19.875V19.8828V19.8906V19.8984V19.9062V19.9141V19.9219V19.9297V19.9375V19.9453V19.9531V19.9609V19.9688V19.9766V19.9844V19.9922V20C20.75 20.4142 20.4142 20.75 20 20.75C14.8496 20.75 10.6413 19.2019 7.71967 16.2803C4.79806 13.3587 3.25 9.15038 3.25 4ZM13.048 18.0127C14.8449 18.7427 16.9184 19.1641 19.25 19.2382V19.2344V19.2266V19.2188V19.2109V19.2031V19.1953V19.1875V19.1797V19.1719V19.1641V19.1562V19.1484V19.1406V19.1328V19.125V19.1172V19.1094V19.1016V19.0938V19.0859V19.0781V19.0703V19.0625V19.0547V19.0469V19.0391V19.0312V19.0234V19.0156V19.0078V19V18.9922V18.9844V18.9766V18.9688V18.9609V18.9531V18.9453V18.9375V18.9297V18.9219V18.9141V18.9062V18.8984V18.8906V18.8828V18.875V18.8672V18.8594V18.8516V18.8438V18.8359V18.8281V18.8203V18.8125V18.8047V18.7969V18.7891V18.7812V18.7734V18.7656V18.7578V18.75V18.7422V18.7344V18.7266V18.7188V18.7109V18.7031V18.6953V18.6875V18.6797V18.6719V18.6641V18.6562V18.6484V18.6406V18.6328V18.625V18.6172V18.6094V18.6016V18.5938V18.5859V18.5781V18.5703V18.5625V18.5547V18.5469V18.5391V18.5312V18.5234V18.5156V18.5078V18.5V18.4922V18.4844V18.4766V18.4688V18.4609V18.4531V18.4453V18.4375V18.4297V18.4219V18.4141V18.4062V18.3984V18.3906V18.3828V18.375V18.3672V18.3594V18.3516V18.3438V18.3359V18.3281V18.3203V18.3125V18.3047V18.2969V18.2891V18.2812V18.2734V18.2656V18.2578V18.25V18.2422V18.2344V18.2266V18.2188V18.2109V18.2031V18.1953V18.1875V18.1797V18.1719V18.1641V18.1562V18.1484V18.1406V18.1328V18.125V18.1172V18.1094V18.1016V18.0938V18.0859V18.0781V18.0703V18.0625V18.0547V18.0469V18.0391V18.0312V18.0234V18.0156V18.0078V18V17.9922V17.9844V17.9766V17.9688V17.9609V17.9531V17.9453V17.9375V17.9297V17.9219V17.9141V17.9062V17.8984V17.8906V17.8828V17.875V17.8672V17.8594V17.8516V17.8438V17.8359V17.8281V17.8203V17.8125V17.8047V17.7969V17.7891V17.7812V17.7734V17.7656V17.7578V17.75V17.7422V17.7344V17.7266V17.7188V17.7109V17.7031V17.6953V17.6875V17.6797V17.6719V17.6641V17.6562V17.6484V17.6406V17.6328V17.625V17.6172V17.6094V17.6016V17.5938V17.5859V17.5781V17.5703V17.5625V17.5547V17.5469V17.5391V17.5312V17.5234V17.5156V17.5078V17.5V17.4922V17.4844V17.4766V17.4688V17.4609V17.4531V17.4453V17.4375V17.4297V17.4219V17.4141V17.4062V17.3984V17.3906V17.3828V17.375V17.3672V17.3594V17.3516V17.3438V17.3359V17.3281V17.3203V17.3125V17.3047V17.2969V17.2891V17.2812V17.2734V17.2656V17.2578V17.25V17.2422V17.2344V17.2266V17.2188V17.2109V17.2031V17.1953V17.1875V17.1797V17.1719V17.1641V17.1562V17.1484V17.1406V17.1328V17.125V17.1172V17.1094V17.1016V17.0938V17.0859V17.0781V17.0703V17.0625V17.0547V17.0469V17.0391V17.0312V17.0234V17.0156V17.0078V17V16.9922V16.9844V16.9766V16.9688V16.9609V16.9531V16.9453V16.9375V16.9297V16.9219V16.9141V16.9062V16.8984V16.8906V16.8828V16.875V16.8672V16.8594V16.8516V16.8438V16.8359V16.8281V16.8203V16.8125V16.8047V16.7969V16.7891V16.7812V16.7734V16.7656V16.7578V16.75V16.7422V16.7344V16.7266V16.7188V16.7109V16.7031V16.6953V16.6875V16.6797V16.6719V16.6641V16.6562V16.6484V16.6406V16.6328V16.625V16.6172V16.6149L15.2465 15.8142L13.048 18.0127ZM5.98733 10.952L8.18585 8.75349L7.38515 4.75H4.7618C4.83586 7.08157 5.2573 9.15507 5.98733 10.952Z" fill="#1838BD"/>
</svg>
