<svg width="18" height="18" viewBox="0 0 18 18" fill="none" xmlns="http://www.w3.org/2000/svg">
<path d="M10.0498 8.55005V4.80005C10.0498 4.60114 9.97079 4.41037 9.83014 4.26972C9.68948 4.12907 9.49872 4.05005 9.29981 4.05005C9.10089 4.05005 8.91013 4.12907 8.76947 4.26972C8.62882 4.41037 8.54981 4.60114 8.54981 4.80005V8.55005H4.7998C4.60089 8.55005 4.41013 8.62907 4.26947 8.76972C4.12882 8.91037 4.0498 9.10114 4.0498 9.30005C4.0498 9.49896 4.12882 9.68973 4.26947 9.83038C4.41013 9.97103 4.60089 10.05 4.7998 10.05H8.54981V13.8C8.54981 13.999 8.62882 14.1897 8.76947 14.3304C8.91013 14.471 9.10089 14.55 9.29981 14.55C9.49872 14.55 9.68948 14.471 9.83014 14.3304C9.97079 14.1897 10.0498 13.999 10.0498 13.8V10.05H13.7998C13.9987 10.05 14.1895 9.97103 14.3301 9.83038C14.4708 9.68973 14.5498 9.49896 14.5498 9.30005C14.5498 9.10114 14.4708 8.91037 14.3301 8.76972C14.1895 8.62907 13.9987 8.55005 13.7998 8.55005H10.0498Z" fill="white"/>
</svg>
