<svg width="25" height="24" viewBox="0 0 25 24" fill="none" xmlns="http://www.w3.org/2000/svg">
<path fill-rule="evenodd" clip-rule="evenodd" d="M9.7 2.25H9.66957H9.66955C9.1354 2.24999 8.68956 2.24998 8.32533 2.27974C7.94545 2.31078 7.58879 2.37789 7.25153 2.54973C6.73408 2.81339 6.31338 3.23408 6.04973 3.75153C5.87789 4.08879 5.81078 4.44545 5.77974 4.82533C5.74998 5.18956 5.74999 5.63541 5.75 6.16956V6.16957L5.75 6.2V7.35643C5.41016 7.41431 5.09575 7.50678 4.79754 7.65873C4.09193 8.01825 3.51825 8.59193 3.15873 9.29754C2.93239 9.74176 2.83803 10.2219 2.79336 10.7685C2.74999 11.2994 2.74999 11.9551 2.75 12.7679V12.7679V12.8V15C2.75 16.8153 4.0399 18.3294 5.75316 18.6756C5.75592 18.8471 5.76109 19.0034 5.77077 19.1454C5.79241 19.4625 5.83905 19.762 5.95933 20.0524C6.23844 20.7262 6.77379 21.2616 7.44762 21.5407C7.73801 21.661 8.03754 21.7076 8.35464 21.7292C8.65923 21.75 9.03024 21.75 9.47466 21.75H9.47474H9.5H15.5H15.5253H15.5253C15.9698 21.75 16.3408 21.75 16.6454 21.7292C16.9625 21.7076 17.262 21.661 17.5524 21.5407C18.2262 21.2616 18.7616 20.7262 19.0407 20.0524C19.161 19.762 19.2076 19.4625 19.2292 19.1454C19.2389 19.0034 19.2441 18.8471 19.2468 18.6756C20.9601 18.3294 22.25 16.8153 22.25 15V12.8V12.7679C22.25 11.955 22.25 11.2994 22.2066 10.7685C22.162 10.2219 22.0676 9.74176 21.8413 9.29754C21.4817 8.59193 20.9081 8.01825 20.2025 7.65873C19.9042 7.50678 19.5898 7.41431 19.25 7.35643V6.2V6.16955C19.25 5.6354 19.25 5.18956 19.2203 4.82533C19.1892 4.44545 19.1221 4.08879 18.9503 3.75153C18.6866 3.23408 18.2659 2.81339 17.7485 2.54973C17.4112 2.37789 17.0546 2.31078 16.6747 2.27974C16.3104 2.24998 15.8646 2.24999 15.3305 2.25H15.3304H15.3H9.7ZM17.75 7.25412V6.2C17.75 5.62757 17.7494 5.24336 17.7252 4.94748C17.7018 4.66036 17.6599 4.52307 17.6138 4.43251C17.4939 4.19731 17.3027 4.00608 17.0675 3.88624C16.9769 3.8401 16.8396 3.79822 16.5525 3.77476C16.2566 3.75058 15.8724 3.75 15.3 3.75H9.7C9.12757 3.75 8.74336 3.75058 8.44748 3.77476C8.16035 3.79822 8.02307 3.8401 7.93251 3.88624C7.69731 4.00608 7.50608 4.19731 7.38624 4.43251C7.3401 4.52307 7.29822 4.66036 7.27476 4.94748C7.25058 5.24336 7.25 5.62757 7.25 6.2V7.25412C7.5586 7.24999 7.89687 7.25 8.2679 7.25H8.3H16.7H16.7321C17.1031 7.25 17.4414 7.24999 17.75 7.25412ZM19.2422 17.1247C20.1202 16.818 20.75 15.9826 20.75 15V12.8C20.75 11.9475 20.7494 11.3533 20.7116 10.8907C20.6745 10.4368 20.6054 10.176 20.5048 9.97852C20.289 9.55516 19.9448 9.21095 19.5215 8.99524C19.324 8.8946 19.0632 8.82547 18.6093 8.78838C18.1467 8.75058 17.5525 8.75 16.7 8.75H8.3C7.44755 8.75 6.85331 8.75058 6.39068 8.78838C5.93681 8.82547 5.67604 8.8946 5.47852 8.99524C5.05516 9.21095 4.71095 9.55516 4.49524 9.97852C4.3946 10.176 4.32547 10.4368 4.28838 10.8907C4.25058 11.3533 4.25 11.9475 4.25 12.8V15C4.25 15.9826 4.87983 16.818 5.7578 17.1247C5.76081 17.0294 5.76498 16.9395 5.77077 16.8546C5.79241 16.5375 5.83905 16.238 5.95933 15.9476C6.23844 15.2738 6.77379 14.7384 7.44762 14.4593C7.73801 14.339 8.03754 14.2924 8.35464 14.2708C8.65925 14.25 9.03029 14.25 9.47475 14.25H9.5H15.5H15.5253C15.9697 14.25 16.3408 14.25 16.6454 14.2708C16.9625 14.2924 17.262 14.339 17.5524 14.4593C18.2262 14.7384 18.7616 15.2738 19.0407 15.9476C19.161 16.238 19.2076 16.5375 19.2292 16.8546C19.235 16.9395 19.2392 17.0294 19.2422 17.1247ZM7.25 18C7.25 17.5238 7.25041 17.2042 7.26729 16.9567C7.28372 16.716 7.31319 16.5988 7.34515 16.5216C7.47202 16.2154 7.71536 15.972 8.02165 15.8452C8.0988 15.8132 8.21602 15.7837 8.45674 15.7673C8.70421 15.7504 9.0238 15.75 9.5 15.75H15.5C15.9762 15.75 16.2958 15.7504 16.5433 15.7673C16.784 15.7837 16.9012 15.8132 16.9784 15.8452C17.2846 15.972 17.528 16.2154 17.6549 16.5216C17.6868 16.5988 17.7163 16.716 17.7327 16.9567C17.7496 17.2042 17.75 17.5238 17.75 18C17.75 18.4762 17.7496 18.7958 17.7327 19.0433C17.7163 19.284 17.6868 19.4012 17.6549 19.4784C17.528 19.7846 17.2846 20.028 16.9784 20.1549C16.9012 20.1868 16.784 20.2163 16.5433 20.2327C16.2958 20.2496 15.9762 20.25 15.5 20.25H9.5C9.0238 20.25 8.70421 20.2496 8.45674 20.2327C8.21602 20.2163 8.0988 20.1868 8.02165 20.1549C7.71536 20.028 7.47202 19.7846 7.34515 19.4784C7.31319 19.4012 7.28372 19.284 7.26729 19.0433C7.25041 18.7958 7.25 18.4762 7.25 18ZM5.75 11C5.75 10.5858 6.08579 10.25 6.5 10.25H7.5C7.91421 10.25 8.25 10.5858 8.25 11C8.25 11.4142 7.91421 11.75 7.5 11.75H6.5C6.08579 11.75 5.75 11.4142 5.75 11Z" fill="white"/>
</svg>
