<svg width="18" height="18" viewBox="0 0 18 18" fill="none" xmlns="http://www.w3.org/2000/svg">
<path opacity="0.4" d="M9.11895 8.1525C9.04395 8.145 8.95395 8.145 8.87145 8.1525C7.08645 8.0925 5.66895 6.63 5.66895 4.83C5.66895 2.9925 7.15395 1.5 8.99895 1.5C10.8365 1.5 12.329 2.9925 12.329 4.83C12.3215 6.63 10.904 8.0925 9.11895 8.1525Z" stroke="#151622" stroke-width="1.5" stroke-linecap="round" stroke-linejoin="round"/>
<path d="M5.36906 10.92C3.55406 12.135 3.55406 14.115 5.36906 15.3225C7.43156 16.7025 10.8141 16.7025 12.8766 15.3225C14.6916 14.1075 14.6916 12.1275 12.8766 10.92C10.8216 9.5475 7.43906 9.5475 5.36906 10.92Z" stroke="#151622" stroke-width="1.5" stroke-linecap="round" stroke-linejoin="round"/>
</svg>
