<svg width="16" height="16" viewBox="0 0 16 16" fill="none" xmlns="http://www.w3.org/2000/svg">
<path d="M10.793 1.33301H5.20634C2.77967 1.33301 1.33301 2.77967 1.33301 5.20634V10.7863C1.33301 13.2197 2.77967 14.6663 5.20634 14.6663H10.7863C13.213 14.6663 14.6597 13.2197 14.6597 10.793V5.20634C14.6663 2.77967 13.2197 1.33301 10.793 1.33301ZM5.64634 7.31967C5.83967 7.12634 6.15967 7.12634 6.35301 7.31967L7.49967 8.46634V4.33967C7.49967 4.06634 7.72634 3.83967 7.99967 3.83967C8.27301 3.83967 8.49967 4.06634 8.49967 4.33967V8.46634L9.64634 7.31967C9.83967 7.12634 10.1597 7.12634 10.353 7.31967C10.5463 7.51301 10.5463 7.83301 10.353 8.02634L8.35301 10.0263C8.30634 10.073 8.25301 10.1063 8.19301 10.133C8.13301 10.1597 8.06634 10.173 7.99967 10.173C7.93301 10.173 7.87301 10.1597 7.80634 10.133C7.74634 10.1063 7.69301 10.073 7.64634 10.0263L5.64634 8.02634C5.45301 7.83301 5.45301 7.51967 5.64634 7.31967ZM12.1597 11.4797C10.8197 11.9263 9.41301 12.153 7.99967 12.153C6.58634 12.153 5.17967 11.9263 3.83967 11.4797C3.57967 11.393 3.43967 11.1063 3.52634 10.8463C3.61301 10.5863 3.89301 10.4397 4.15967 10.533C6.63967 11.3597 9.36634 11.3597 11.8463 10.533C12.1063 10.4463 12.393 10.5863 12.4797 10.8463C12.5597 11.113 12.4197 11.393 12.1597 11.4797Z" fill="#1838BD"/>
</svg>
