<svg width="14" height="14" viewBox="0 0 14 14" fill="none" xmlns="http://www.w3.org/2000/svg">
<path d="M9.7935 0.333008H4.20683C1.78016 0.333008 0.333496 1.77967 0.333496 4.20634V9.78634C0.333496 12.2197 1.78016 13.6663 4.20683 13.6663H9.78683C12.2135 13.6663 13.6602 12.2197 13.6602 9.79301V4.20634C13.6668 1.77967 12.2202 0.333008 9.7935 0.333008ZM4.64683 6.31967C4.84016 6.12634 5.16016 6.12634 5.3535 6.31967L6.50016 7.46634V3.33967C6.50016 3.06634 6.72683 2.83967 7.00016 2.83967C7.2735 2.83967 7.50016 3.06634 7.50016 3.33967V7.46634L8.64683 6.31967C8.84016 6.12634 9.16016 6.12634 9.3535 6.31967C9.54683 6.51301 9.54683 6.83301 9.3535 7.02634L7.3535 9.02634C7.30683 9.07301 7.2535 9.10634 7.1935 9.13301C7.1335 9.15967 7.06683 9.17301 7.00016 9.17301C6.9335 9.17301 6.8735 9.15967 6.80683 9.13301C6.74683 9.10634 6.6935 9.07301 6.64683 9.02634L4.64683 7.02634C4.4535 6.83301 4.4535 6.51967 4.64683 6.31967ZM11.1602 10.4797C9.82016 10.9263 8.4135 11.153 7.00016 11.153C5.58683 11.153 4.18016 10.9263 2.84016 10.4797C2.58016 10.393 2.44016 10.1063 2.52683 9.84634C2.6135 9.58634 2.8935 9.43968 3.16016 9.53301C5.64016 10.3597 8.36683 10.3597 10.8468 9.53301C11.1068 9.44634 11.3935 9.58634 11.4802 9.84634C11.5602 10.113 11.4202 10.393 11.1602 10.4797Z" fill="#1838BD"/>
</svg>
