<svg width="24" height="24" viewBox="0 0 24 24" fill="none" xmlns="http://www.w3.org/2000/svg">
<path fill-rule="evenodd" clip-rule="evenodd" d="M2.62356 2.35132C2.85479 2.21713 3.13998 2.21617 3.3721 2.34882L6.5 4.13619L9.6279 2.34882C9.85847 2.21706 10.1415 2.21706 10.3721 2.34882L13.5 4.13619L16.6279 2.34882C16.86 2.21617 17.1452 2.21713 17.3764 2.35132C17.6077 2.48551 17.75 2.73265 17.75 3V11.25H21C21.4142 11.25 21.75 11.5858 21.75 12V19C21.75 20.5188 20.5188 21.75 19 21.75H7.8H7.76788C6.95505 21.75 6.29944 21.75 5.76853 21.7066C5.2219 21.662 4.74175 21.5676 4.29754 21.3413C3.59193 20.9817 3.01825 20.4081 2.65873 19.7025C2.43239 19.2582 2.33803 18.7781 2.29336 18.2315C2.24999 17.7006 2.24999 17.045 2.25 16.2321V16.2321V16.2V3C2.25 2.73265 2.39232 2.48551 2.62356 2.35132ZM19 20.25C19.6904 20.25 20.25 19.6904 20.25 19V12.75H17.75V19C17.75 19.6904 18.3096 20.25 19 20.25ZM16.5499 20.25H7.8C6.94755 20.25 6.35331 20.2494 5.89068 20.2116C5.4368 20.1745 5.17604 20.1054 4.97852 20.0048C4.55516 19.789 4.21095 19.4448 3.99524 19.0215C3.8946 18.824 3.82547 18.5632 3.78838 18.1093C3.75058 17.6467 3.75 17.0525 3.75 16.2V4.29238L6.1279 5.65118C6.35847 5.78294 6.64153 5.78294 6.8721 5.65118L10 3.86381L13.1279 5.65118C13.3585 5.78294 13.6415 5.78294 13.8721 5.65118L16.25 4.29239V12V19C16.25 19.4501 16.3581 19.875 16.5499 20.25ZM6.25 9C6.25 8.58579 6.58579 8.25 7 8.25H11C11.4142 8.25 11.75 8.58579 11.75 9C11.75 9.41421 11.4142 9.75 11 9.75H7C6.58579 9.75 6.25 9.41421 6.25 9ZM10 12.25C9.58579 12.25 9.25 12.5858 9.25 13C9.25 13.4142 9.58579 13.75 10 13.75H13C13.4142 13.75 13.75 13.4142 13.75 13C13.75 12.5858 13.4142 12.25 13 12.25H10ZM9.25 17C9.25 16.5858 9.58579 16.25 10 16.25H13C13.4142 16.25 13.75 16.5858 13.75 17C13.75 17.4142 13.4142 17.75 13 17.75H10C9.58579 17.75 9.25 17.4142 9.25 17ZM8 13C8 13.5523 7.55228 14 7 14C6.44772 14 6 13.5523 6 13C6 12.4477 6.44772 12 7 12C7.55228 12 8 12.4477 8 13ZM7 18C7.55228 18 8 17.5523 8 17C8 16.4477 7.55228 16 7 16C6.44772 16 6 16.4477 6 17C6 17.5523 6.44772 18 7 18Z" fill="#1838BD"/>
</svg>
