<svg width="18" height="18" viewBox="0 0 18 18" fill="none" xmlns="http://www.w3.org/2000/svg">
<path d="M15.3137 8.6638C15.3006 8.6638 15.2849 8.6586 15.2706 8.64431C15.2564 8.63002 15.2512 8.61436 15.2512 8.6013V6.11133C15.2512 4.90519 14.2698 3.92383 13.0637 3.92383H2.68359C2.67054 3.92383 2.65488 3.91863 2.64059 3.90434C2.62629 3.89004 2.62109 3.87439 2.62109 3.86133C2.62109 3.84827 2.62629 3.83261 2.64059 3.81832C2.65488 3.80403 2.67054 3.79883 2.68359 3.79883H13.0637C14.34 3.79883 15.3762 4.83497 15.3762 6.11133V8.6013C15.3762 8.63582 15.3494 8.6638 15.3137 8.6638Z" fill="#1838BD" stroke="#1838BD"/>
<path d="M5.0536 6.80358C4.9111 6.80358 4.7686 6.75105 4.6561 6.63855L2.2861 4.26858C2.1811 4.16358 2.12109 4.02105 2.12109 3.87105C2.12109 3.72105 2.1811 3.57858 2.2861 3.47358L4.6561 1.10355C4.8736 0.886055 5.2336 0.886055 5.4511 1.10355C5.6686 1.32105 5.6686 1.68109 5.4511 1.89859L3.47862 3.87105L5.4511 5.84355C5.6686 6.06105 5.6686 6.42105 5.4511 6.63855C5.3386 6.74355 5.1961 6.80358 5.0536 6.80358Z" fill="#1838BD"/>
<path d="M15.3137 14.6921H4.93359C3.3811 14.6921 2.12109 13.4321 2.12109 11.8796V9.38965C2.12109 9.08215 2.3761 8.82715 2.68359 8.82715C2.99109 8.82715 3.24609 9.08215 3.24609 9.38965V11.8796C3.24609 12.8096 4.00359 13.5671 4.93359 13.5671H15.3137C15.6212 13.5671 15.8762 13.8221 15.8762 14.1296C15.8762 14.4371 15.6212 14.6921 15.3137 14.6921Z" fill="#1838BD"/>
<path d="M12.9444 17.0633C12.8019 17.0633 12.6594 17.0108 12.5469 16.8983C12.3294 16.6808 12.3294 16.3207 12.5469 16.1032L14.5194 14.1308L12.5469 12.1583C12.3294 11.9408 12.3294 11.5808 12.5469 11.3633C12.7644 11.1458 13.1244 11.1458 13.3419 11.3633L15.7119 13.7333C15.8169 13.8383 15.8769 13.9808 15.8769 14.1308C15.8769 14.2808 15.8169 14.4233 15.7119 14.5283L13.3419 16.8983C13.2369 17.0108 13.0944 17.0633 12.9444 17.0633Z" fill="#1838BD"/>
</svg>
