<svg width="18" height="18" viewBox="0 0 18 18" fill="none" xmlns="http://www.w3.org/2000/svg">
<path d="M8.99858 17.063C5.0986 17.063 1.93359 13.8905 1.93359 9.99795C1.93359 8.59545 2.3461 7.23797 3.1261 6.06797C3.2986 5.81297 3.6511 5.73797 3.9061 5.91048C4.1611 6.08297 4.2361 6.43547 4.0636 6.69047C3.4111 7.66545 3.0661 8.81295 3.0661 9.99045C3.0661 13.268 5.7286 15.9305 9.00608 15.9305C12.2836 15.9305 14.9461 13.268 14.9461 9.99045C14.9461 6.71297 12.2761 4.05047 8.99858 4.05047C8.30858 4.05047 7.63358 4.14797 6.99609 4.34297C6.69609 4.43297 6.3811 4.26797 6.2911 3.96797C6.2011 3.66797 6.3661 3.35297 6.6661 3.26297C7.4161 3.03797 8.19608 2.91797 8.99858 2.91797C12.8986 2.91797 16.0636 6.09048 16.0636 9.98295C16.0636 13.8755 12.8986 17.063 8.99858 17.063Z" fill="white"/>
<path d="M5.90277 4.55113C5.77527 4.55113 5.64027 4.50613 5.53527 4.41613C5.29527 4.20613 5.27277 3.85363 5.47527 3.62113L7.6428 1.13113C7.8453 0.898626 8.2053 0.868626 8.4378 1.07863C8.6703 1.28113 8.6928 1.64113 8.4903 1.87363L6.32277 4.35613C6.21027 4.48363 6.05277 4.55113 5.90277 4.55113Z" fill="white"/>
<path d="M8.4297 6.39613C8.3172 6.39613 8.1972 6.35863 8.0997 6.29113L5.56469 4.43863C5.31719 4.25863 5.26469 3.90613 5.44469 3.65863C5.62469 3.40363 5.97719 3.35113 6.23219 3.53113L8.7597 5.37613C9.0072 5.55613 9.0672 5.90863 8.8797 6.16363C8.7747 6.32113 8.6022 6.39613 8.4297 6.39613Z" fill="white"/>
</svg>
