<svg width="22" height="20" viewBox="0 0 22 20" fill="none" xmlns="http://www.w3.org/2000/svg">
<path fill-rule="evenodd" clip-rule="evenodd" d="M6.80005 0.25H6.76794H6.76793C5.9551 0.249993 5.29949 0.249987 4.76858 0.293364C4.22194 0.338026 3.7418 0.432386 3.29759 0.658726C2.59198 1.01825 2.0183 1.59193 1.65877 2.29754C1.43243 2.74175 1.33807 3.2219 1.29341 3.76853C1.25004 4.29944 1.25004 4.95506 1.25005 5.7679L1.25005 5.8V6C1.25005 6.41421 1.58584 6.75 2.00005 6.75C2.41426 6.75 2.75005 6.41421 2.75005 6V5.8C2.75005 4.94755 2.75063 4.35331 2.78843 3.89068C2.82551 3.43681 2.89464 3.17604 2.99528 2.97852C3.211 2.55516 3.55521 2.21095 3.97857 1.99524C4.17609 1.8946 4.43685 1.82547 4.89073 1.78838C5.35336 1.75058 5.9476 1.75 6.80005 1.75H7.00005C7.41426 1.75 7.75005 1.41421 7.75005 1C7.75005 0.585787 7.41426 0.25 7.00005 0.25H6.80005ZM15.2 1.75C16.0525 1.75 16.6467 1.75058 17.1094 1.78838C17.5632 1.82547 17.824 1.8946 18.0215 1.99524C18.4449 2.21095 18.7891 2.55516 19.0048 2.97852C19.1055 3.17604 19.1746 3.43681 19.2117 3.89068C19.2495 4.35331 19.25 4.94755 19.25 5.8V6C19.25 6.41421 19.5858 6.75 20 6.75C20.4143 6.75 20.75 6.41421 20.75 6V5.8V5.76788C20.7501 4.95505 20.7501 4.29944 20.7067 3.76853C20.662 3.2219 20.5677 2.74175 20.3413 2.29754C19.9818 1.59193 19.4081 1.01825 18.7025 0.658726C18.2583 0.432386 17.7782 0.338026 17.2315 0.293364C16.7006 0.249987 16.045 0.249993 15.2322 0.25H15.2322H15.2H15C14.5858 0.25 14.25 0.585787 14.25 1C14.25 1.41421 14.5858 1.75 15 1.75H15.2ZM2.75005 14C2.75005 13.5858 2.41426 13.25 2.00005 13.25C1.58584 13.25 1.25005 13.5858 1.25005 14V14.2L1.25005 14.2321C1.25004 15.0449 1.25004 15.7006 1.29341 16.2315C1.33807 16.7781 1.43243 17.2582 1.65877 17.7025C2.0183 18.4081 2.59198 18.9817 3.29759 19.3413C3.7418 19.5676 4.22194 19.662 4.76858 19.7066C5.29949 19.75 5.9551 19.75 6.76793 19.75H6.80005H7.00005C7.41426 19.75 7.75005 19.4142 7.75005 19C7.75005 18.5858 7.41426 18.25 7.00005 18.25H6.80005C5.9476 18.25 5.35336 18.2494 4.89073 18.2116C4.43685 18.1745 4.17609 18.1054 3.97857 18.0048C3.55521 17.789 3.211 17.4448 2.99528 17.0215C2.89464 16.824 2.82551 16.5632 2.78843 16.1093C2.75063 15.6467 2.75005 15.0525 2.75005 14.2V14ZM20.75 14C20.75 13.5858 20.4143 13.25 20 13.25C19.5858 13.25 19.25 13.5858 19.25 14V14.2C19.25 15.0525 19.2495 15.6467 19.2117 16.1093C19.1746 16.5632 19.1055 16.824 19.0048 17.0215C18.7891 17.4448 18.4449 17.789 18.0215 18.0048C17.824 18.1054 17.5632 18.1745 17.1094 18.2116C16.6467 18.2494 16.0525 18.25 15.2 18.25H15C14.5858 18.25 14.25 18.5858 14.25 19C14.25 19.4142 14.5858 19.75 15 19.75H15.2H15.2322C16.045 19.75 16.7006 19.75 17.2315 19.7066C17.7782 19.662 18.2583 19.5676 18.7025 19.3413C19.4081 18.9817 19.9818 18.4081 20.3413 17.7025C20.5677 17.2582 20.662 16.7781 20.7067 16.2315C20.7501 15.7006 20.7501 15.045 20.75 14.2321V14.2V14ZM1 9.25001C0.585786 9.25001 0.25 9.5858 0.25 10C0.25 10.4142 0.585786 10.75 1 10.75H21C21.4142 10.75 21.75 10.4142 21.75 10C21.75 9.5858 21.4142 9.25001 21 9.25001H1Z" fill="#486AE2"/>
</svg>
