<svg width="16" height="16" viewBox="0 0 16 16" fill="none" xmlns="http://www.w3.org/2000/svg">
<path d="M10.993 10.3333V9.16667L9.33301 10.8333L10.993 12.5V11.3333H14.6663V10.3333H10.993ZM13.0063 13.1667H9.33301V14.1667H13.0063V15.3333L14.6663 13.6667L13.0063 12V13.1667ZM6.33301 3.66667C7.06634 3.66667 7.66634 3.06667 7.66634 2.33333C7.66634 1.6 7.06634 1 6.33301 1C5.59967 1 4.99967 1.6 4.99967 2.33333C4.99967 3.06667 5.59967 3.66667 6.33301 3.66667ZM3.83301 5.93333L1.99967 15.3333H3.39967L4.56634 10L5.99967 11.3333V15.3333H7.33301V10.3L5.96634 8.93333L6.36634 6.93333C7.23301 8 8.53301 8.66667 9.99967 8.66667V7.33333C8.76634 7.33333 7.69967 6.66667 7.09967 5.7L6.46634 4.63333C6.23301 4.23333 5.79967 4 5.33301 4C5.16634 4 4.99967 4.03333 4.83301 4.1L1.33301 5.53333V8.66667H2.66634V6.43333L3.83301 5.93333Z" fill="#1838BD"/>
</svg>
