<svg width="14" height="15" viewBox="0 0 14 15" fill="none" xmlns="http://www.w3.org/2000/svg">
<path d="M9.99301 9.33333V8.16667L8.33301 9.83333L9.99301 11.5V10.3333H13.6663V9.33333H9.99301ZM12.0063 12.1667H8.33301V13.1667H12.0063V14.3333L13.6663 12.6667L12.0063 11V12.1667ZM5.33301 2.66667C6.06634 2.66667 6.66634 2.06667 6.66634 1.33333C6.66634 0.6 6.06634 0 5.33301 0C4.59967 0 3.99967 0.6 3.99967 1.33333C3.99967 2.06667 4.59967 2.66667 5.33301 2.66667ZM2.83301 4.93333L0.999674 14.3333H2.39967L3.56634 9L4.99967 10.3333V14.3333H6.33301V9.3L4.96634 7.93333L5.36634 5.93333C6.23301 7 7.53301 7.66667 8.99967 7.66667V6.33333C7.76634 6.33333 6.69967 5.66667 6.09967 4.7L5.46634 3.63333C5.23301 3.23333 4.79967 3 4.33301 3C4.16634 3 3.99967 3.03333 3.83301 3.1L0.333008 4.53333V7.66667H1.66634V5.43333L2.83301 4.93333Z" fill="#1838BD"/>
</svg>
