<svg width="24" height="24" viewBox="0 0 24 24" fill="none" xmlns="http://www.w3.org/2000/svg">
<path d="M20.875 19.5C20.875 20.2594 20.2594 20.875 19.5 20.875H11.5C10.7406 20.875 10.125 20.2594 10.125 19.5V11.5C10.125 10.7406 10.7406 10.125 11.5 10.125H19.5C20.2594 10.125 20.875 10.7406 20.875 11.5V19.5ZM6.05806 19.0581L5.125 19.9911V7.5C5.125 7.15482 4.84518 6.875 4.5 6.875C4.15482 6.875 3.875 7.15482 3.875 7.5V19.9911L2.94194 19.0581C2.69786 18.814 2.30214 18.814 2.05806 19.0581C1.81398 19.3021 1.81398 19.6979 2.05806 19.9419L4.05806 21.9419C4.30214 22.186 4.69786 22.186 4.94194 21.9419L6.94194 19.9419C7.18602 19.6979 7.18602 19.3021 6.94194 19.0581C6.69786 18.814 6.30214 18.814 6.05806 19.0581ZM19.0581 2.94194L19.9911 3.875H7.5C7.15482 3.875 6.875 4.15482 6.875 4.5C6.875 4.84518 7.15482 5.125 7.5 5.125H19.9911L19.0581 6.05806C18.814 6.30214 18.814 6.69786 19.0581 6.94194C19.3021 7.18602 19.6979 7.18602 19.9419 6.94194L21.9419 4.94194C22.186 4.69786 22.186 4.30214 21.9419 4.05806L19.9419 2.05806C19.6979 1.81398 19.3021 1.81398 19.0581 2.05806C18.814 2.30214 18.814 2.69786 19.0581 2.94194ZM11.5 22.125H19.5C20.9497 22.125 22.125 20.9497 22.125 19.5V11.5C22.125 10.0503 20.9497 8.875 19.5 8.875H11.5C10.0503 8.875 8.875 10.0503 8.875 11.5V19.5C8.875 20.9497 10.0503 22.125 11.5 22.125Z" fill="#1838BD" stroke="#1838BD" stroke-width="0.25"/>
</svg>
