<svg width="24" height="24" viewBox="0 0 24 24" fill="none" xmlns="http://www.w3.org/2000/svg">
<path fill-rule="evenodd" clip-rule="evenodd" d="M3.88534 5.2371C3.20538 5.86848 2.75 6.89295 2.75 8.5V15.5C2.75 17.107 3.20538 18.1315 3.88534 18.7629C4.57535 19.4036 5.61497 19.75 7 19.75H17C18.385 19.75 19.4246 19.4036 20.1147 18.7629C20.7946 18.1315 21.25 17.107 21.25 15.5V10.5C21.25 10.0858 21.5858 9.75 22 9.75C22.4142 9.75 22.75 10.0858 22.75 10.5V15.5C22.75 17.393 22.2054 18.8685 21.1353 19.8621C20.0754 20.8464 18.615 21.25 17 21.25H7C5.38503 21.25 3.92465 20.8464 2.86466 19.8621C1.79462 18.8685 1.25 17.393 1.25 15.5V8.5C1.25 6.60705 1.79462 5.13152 2.86466 4.1379C3.92465 3.15363 5.38503 2.75 7 2.75H14C14.4142 2.75 14.75 3.08579 14.75 3.5C14.75 3.91421 14.4142 4.25 14 4.25H7C5.61497 4.25 4.57535 4.59637 3.88534 5.2371Z" fill="#1838BD"/>
<path opacity="0.4" fill-rule="evenodd" clip-rule="evenodd" d="M6.41401 8.53196C6.67252 8.20832 7.14444 8.15551 7.46809 8.41401L10.5972 10.9133C10.5973 10.9134 10.597 10.9131 10.5972 10.9133C11.3538 11.5152 12.6562 11.5155 13.4127 10.9134L14.5927 9.97341C14.9167 9.71532 15.3886 9.76874 15.6466 10.0927C15.9047 10.4167 15.8513 10.8886 15.5273 11.1466L14.3473 12.0866C13.0439 13.1243 10.9663 13.1244 9.6629 12.0868L6.53196 9.58604C6.20832 9.32754 6.15551 8.85561 6.41401 8.53196Z" fill="#1838BD"/>
<path opacity="0.4" fill-rule="evenodd" clip-rule="evenodd" d="M16.25 5.5C16.25 3.70507 17.7051 2.25 19.5 2.25C21.2949 2.25 22.75 3.70507 22.75 5.5C22.75 7.29493 21.2949 8.75 19.5 8.75C17.7051 8.75 16.25 7.29493 16.25 5.5ZM19.5 3.75C18.5335 3.75 17.75 4.53351 17.75 5.5C17.75 6.46649 18.5335 7.25 19.5 7.25C20.4665 7.25 21.25 6.46649 21.25 5.5C21.25 4.53351 20.4665 3.75 19.5 3.75Z" fill="#1838BD"/>
</svg>
