<svg width="12" height="12" viewBox="0 0 12 12" fill="none" xmlns="http://www.w3.org/2000/svg">
<path d="M3.11347 5.50005H8.88697C9.31797 5.50005 9.54697 4.99005 9.26047 4.66755L6.37397 1.42005C6.32715 1.3672 6.26965 1.32489 6.20526 1.29591C6.14088 1.26694 6.07108 1.25195 6.00047 1.25195C5.92987 1.25195 5.86007 1.26694 5.79568 1.29591C5.7313 1.32489 5.67379 1.3672 5.62697 1.42005L2.73947 4.66755C2.45297 4.99005 2.68197 5.50005 3.11347 5.50005ZM5.62647 10.5795C5.67329 10.6324 5.7308 10.6747 5.79518 10.7037C5.85957 10.7327 5.92937 10.7476 5.99997 10.7476C6.07058 10.7476 6.14038 10.7327 6.20476 10.7037C6.26915 10.6747 6.32665 10.6324 6.37347 10.5795L9.25997 7.33205C9.54697 7.01005 9.31797 6.50005 8.88647 6.50005H3.11347C2.68247 6.50005 2.45347 7.01005 2.73997 7.33255L5.62647 10.5795Z" fill="#D2D2E0"/>
<path d="M5.6263 1.42042C5.82519 1.19666 6.17481 1.19666 6.3737 1.42042L9.26028 4.66782C9.54691 4.99027 9.318 5.5 8.88658 5.5H3.11342C2.682 5.5 2.45309 4.99027 2.73972 4.66782L5.6263 1.42042Z" fill="#486AE2"/>
</svg>
