<svg width="40" height="40" viewBox="0 0 40 40" fill="none" xmlns="http://www.w3.org/2000/svg">
<rect width="40" height="40" rx="8" fill="#F1F3FF"/>
<path fill-rule="evenodd" clip-rule="evenodd" d="M11.3131 20.1996C11.4791 19.8201 11.9213 19.647 12.3008 19.8131L19.4992 22.9624C19.8186 23.1021 20.1818 23.1021 20.5012 22.9624L27.6996 19.8131C28.0791 19.647 28.5213 19.8201 28.6873 20.1996C28.8533 20.5791 28.6803 21.0213 28.3008 21.1873L21.1024 24.3366C20.3998 24.644 19.6006 24.644 18.8979 24.3366L11.6996 21.1873C11.3201 21.0213 11.147 20.5791 11.3131 20.1996Z" fill="#1838BD"/>
<path fill-rule="evenodd" clip-rule="evenodd" d="M18.8718 10.6856C19.5895 10.3626 20.4111 10.3626 21.1288 10.6856L29.2948 14.3603C30.2776 14.8025 30.2776 16.1979 29.2948 16.6401L21.1288 20.3148C20.4111 20.6378 19.5895 20.6378 18.8718 20.3148L10.7058 16.6401C9.72307 16.1979 9.72307 14.8025 10.7058 14.3603L18.8718 10.6856ZM20.5133 12.0535C20.1871 11.9067 19.8136 11.9067 19.4874 12.0535L11.828 15.5002L19.4874 18.9469C19.8136 19.0937 20.1871 19.0937 20.5133 18.9469L28.1727 15.5002L20.5133 12.0535Z" fill="#1838BD"/>
<path fill-rule="evenodd" clip-rule="evenodd" d="M12.3108 24.7048C12.474 24.324 12.9149 24.1477 13.2956 24.3108L19.5078 26.9732C19.8222 27.1079 20.1782 27.1079 20.4926 26.9732L26.7048 24.3108C27.0855 24.1477 27.5264 24.324 27.6896 24.7048C27.8527 25.0855 27.6764 25.5264 27.2956 25.6896L21.0835 28.3519C20.3917 28.6484 19.6087 28.6484 18.9169 28.3519L12.7048 25.6896C12.324 25.5264 12.1477 25.0855 12.3108 24.7048Z" fill="#1838BD"/>
</svg>
