<svg width="40" height="40" viewBox="0 0 40 40" fill="none" xmlns="http://www.w3.org/2000/svg">
<rect width="40" height="40" rx="8" fill="#F1F3FF"/>
<path d="M21.9366 20.9466L21.9364 20.9465L17.9063 19.5265L17.9063 19.5265L17.9037 19.5256C17.5482 19.4025 17.1832 19.2254 16.9053 18.9148C16.6377 18.6155 16.4102 18.1466 16.4102 17.3581C16.4102 16.0799 17.4105 15.0781 18.6002 15.0781H21.1102C22.457 15.0781 23.5802 16.2169 23.5802 17.6581C23.5802 17.792 23.4641 17.9081 23.3302 17.9081C23.1963 17.9081 23.0802 17.792 23.0802 17.6581C23.0802 16.5467 22.2298 15.5781 21.1102 15.5781H18.6002C17.6405 15.5781 16.9102 16.4167 16.9102 17.3581C16.9102 17.8411 16.994 18.2385 17.2409 18.5423C17.4803 18.8366 17.8126 18.9609 18.0638 19.0496L18.064 19.0497L22.094 20.4697L22.094 20.4697L22.0966 20.4706C22.4522 20.5937 22.8171 20.7708 23.095 21.0814C23.3625 21.3805 23.5899 21.849 23.5902 22.6364C23.581 23.9107 22.5854 24.9181 21.4002 24.9181H18.8902C17.5434 24.9181 16.4202 23.7793 16.4202 22.3381C16.4202 22.2042 16.5363 22.0881 16.6702 22.0881C16.804 22.0881 16.9202 22.2042 16.9202 22.3381C16.9202 23.4495 17.7706 24.4181 18.8902 24.4181H21.4002C22.3598 24.4181 23.0902 23.5795 23.0902 22.6381C23.0902 22.1551 23.0064 21.7577 22.7594 21.454C22.5201 21.1596 22.1878 21.0353 21.9366 20.9466Z" stroke="#1838BD"/>
<path d="M20 26.25C19.8661 26.25 19.75 26.1339 19.75 26V14C19.75 13.8661 19.8661 13.75 20 13.75C20.1339 13.75 20.25 13.8661 20.25 14V26C20.25 26.1339 20.1339 26.25 20 26.25Z" stroke="#1838BD"/>
<mask id="path-4-inside-1_9723_39791" fill="white">
<path d="M23 30.75H17C11.57 30.75 9.25 28.43 9.25 23V17C9.25 11.57 11.57 9.25 17 9.25H23C28.43 9.25 30.75 11.57 30.75 17V23C30.75 28.43 28.43 30.75 23 30.75ZM17 10.75C12.39 10.75 10.75 12.39 10.75 17V23C10.75 27.61 12.39 29.25 17 29.25H23C27.61 29.25 29.25 27.61 29.25 23V17C29.25 12.39 27.61 10.75 23 10.75H17Z"/>
</mask>
<path d="M23 29.25H17V32.25H23V29.25ZM17 29.25C14.4572 29.25 12.9998 28.701 12.1494 27.8506C11.299 27.0002 10.75 25.5428 10.75 23H7.75C7.75 25.8872 8.36095 28.3048 10.0281 29.9719C11.6952 31.639 14.1128 32.25 17 32.25V29.25ZM10.75 23V17H7.75V23H10.75ZM10.75 17C10.75 14.4572 11.299 12.9998 12.1494 12.1494C12.9998 11.299 14.4572 10.75 17 10.75V7.75C14.1128 7.75 11.6952 8.36095 10.0281 10.0281C8.36095 11.6952 7.75 14.1128 7.75 17H10.75ZM17 10.75H23V7.75H17V10.75ZM23 10.75C25.5428 10.75 27.0002 11.299 27.8506 12.1494C28.701 12.9998 29.25 14.4572 29.25 17H32.25C32.25 14.1128 31.639 11.6952 29.9719 10.0281C28.3048 8.36095 25.8872 7.75 23 7.75V10.75ZM29.25 17V23H32.25V17H29.25ZM29.25 23C29.25 25.5428 28.701 27.0002 27.8506 27.8506C27.0002 28.701 25.5428 29.25 23 29.25V32.25C25.8872 32.25 28.3048 31.639 29.9719 29.9719C31.639 28.3048 32.25 25.8872 32.25 23H29.25ZM17 9.25C14.5892 9.25 12.508 9.66321 11.0856 11.0856C9.66321 12.508 9.25 14.5892 9.25 17H12.25C12.25 14.8008 12.6568 13.757 13.2069 13.2069C13.757 12.6568 14.8008 12.25 17 12.25V9.25ZM9.25 17V23H12.25V17H9.25ZM9.25 23C9.25 25.4108 9.66321 27.492 11.0856 28.9144C12.508 30.3368 14.5892 30.75 17 30.75V27.75C14.8008 27.75 13.757 27.3432 13.2069 26.7931C12.6568 26.243 12.25 25.1992 12.25 23H9.25ZM17 30.75H23V27.75H17V30.75ZM23 30.75C25.4108 30.75 27.492 30.3368 28.9144 28.9144C30.3368 27.492 30.75 25.4108 30.75 23H27.75C27.75 25.1992 27.3432 26.243 26.7931 26.7931C26.243 27.3432 25.1992 27.75 23 27.75V30.75ZM30.75 23V17H27.75V23H30.75ZM30.75 17C30.75 14.5892 30.3368 12.508 28.9144 11.0856C27.492 9.66321 25.4108 9.25 23 9.25V12.25C25.1992 12.25 26.243 12.6568 26.7931 13.2069C27.3432 13.757 27.75 14.8008 27.75 17H30.75ZM23 9.25H17V12.25H23V9.25Z" fill="#1838BD" mask="url(#path-4-inside-1_9723_39791)"/>
</svg>
