<svg width="16" height="16" viewBox="0 0 16 16" fill="none" xmlns="http://www.w3.org/2000/svg">
<path d="M14.0465 3.48671C12.9732 3.38004 11.8998 3.30004 10.8198 3.24004V3.23337L10.6732 2.36671C10.5732 1.75337 10.4265 0.833374 8.86651 0.833374H7.11984C5.56649 0.833374 5.41982 1.71337 5.31315 2.36004L5.17315 3.21337C4.55315 3.25337 3.93315 3.29337 3.31315 3.35337L1.95315 3.48671C1.67315 3.51337 1.47315 3.76004 1.49982 4.03337C1.52649 4.30671 1.76649 4.50671 2.04649 4.48004L3.40649 4.34671C6.89984 4.00004 10.4198 4.13337 13.9532 4.48671C13.9732 4.48671 13.9865 4.48671 14.0065 4.48671C14.2598 4.48671 14.4798 4.29337 14.5065 4.03337C14.5265 3.76004 14.3265 3.51337 14.0465 3.48671Z" fill="white"/>
<path opacity="0.3991" d="M12.8198 5.42663C12.6598 5.25996 12.4398 5.16663 12.2131 5.16663H3.78646C3.55979 5.16663 3.33313 5.25996 3.17979 5.42663C3.02646 5.59329 2.93979 5.81996 2.95313 6.05329L3.36646 12.8933C3.43979 13.9066 3.53313 15.1733 5.85979 15.1733H10.1398C12.4664 15.1733 12.5598 13.9133 12.6331 12.8933L13.0464 6.05996C13.0598 5.81996 12.9731 5.59329 12.8198 5.42663Z" fill="white"/>
<path fill-rule="evenodd" clip-rule="evenodd" d="M6.38672 11.3334C6.38672 11.0572 6.61057 10.8334 6.88673 10.8334H9.10673C9.38287 10.8334 9.60673 11.0572 9.60673 11.3334C9.60673 11.6095 9.38287 11.8334 9.10673 11.8334H6.88673C6.61057 11.8334 6.38672 11.6095 6.38672 11.3334Z" fill="white"/>
<path fill-rule="evenodd" clip-rule="evenodd" d="M5.83337 8.66663C5.83337 8.39049 6.05723 8.16663 6.33337 8.16663H9.66671C9.94284 8.16663 10.1667 8.39049 10.1667 8.66663C10.1667 8.94276 9.94284 9.16663 9.66671 9.16663H6.33337C6.05723 9.16663 5.83337 8.94276 5.83337 8.66663Z" fill="white"/>
</svg>
