<svg width="18" height="18" viewBox="0 0 18 18" fill="none" xmlns="http://www.w3.org/2000/svg">
<path d="M9.75 11.0625H1.5C1.1925 11.0625 0.9375 10.8075 0.9375 10.5V4.5C0.9375 2.535 2.535 0.9375 4.5 0.9375H11.25C11.5575 0.9375 11.8125 1.1925 11.8125 1.5V9C11.8125 10.14 10.89 11.0625 9.75 11.0625ZM2.0625 9.9375H9.75C10.2675 9.9375 10.6875 9.5175 10.6875 9V2.0625H4.5C3.1575 2.0625 2.0625 3.1575 2.0625 4.5V9.9375Z" fill="#486AE2"/>
<path d="M14.25 15.5625H13.5C13.1925 15.5625 12.9375 15.3075 12.9375 15C12.9375 14.4825 12.5175 14.0625 12 14.0625C11.4825 14.0625 11.0625 14.4825 11.0625 15C11.0625 15.3075 10.8075 15.5625 10.5 15.5625H7.5C7.1925 15.5625 6.9375 15.3075 6.9375 15C6.9375 14.4825 6.5175 14.0625 6 14.0625C5.4825 14.0625 5.0625 14.4825 5.0625 15C5.0625 15.3075 4.8075 15.5625 4.5 15.5625H3.75C2.1975 15.5625 0.9375 14.3025 0.9375 12.75V10.5C0.9375 10.1925 1.1925 9.9375 1.5 9.9375H9.75C10.2675 9.9375 10.6875 9.5175 10.6875 9V3.75C10.6875 3.4425 10.9425 3.1875 11.25 3.1875H12.63C13.3725 3.1875 14.055 3.58501 14.4225 4.23001L15.705 6.4725C15.8025 6.645 15.8025 6.8625 15.705 7.035C15.6075 7.2075 15.42 7.3125 15.2175 7.3125H14.25C14.145 7.3125 14.0625 7.395 14.0625 7.5V9.75C14.0625 9.855 14.145 9.9375 14.25 9.9375H16.5C16.8075 9.9375 17.0625 10.1925 17.0625 10.5V12.75C17.0625 14.3025 15.8025 15.5625 14.25 15.5625ZM13.9875 14.4375H14.25C15.18 14.4375 15.9375 13.68 15.9375 12.75V11.0625H14.25C13.53 11.0625 12.9375 10.47 12.9375 9.75V7.5C12.9375 6.78 13.5225 6.1875 14.25 6.1875L13.4475 4.785C13.2825 4.4925 12.9675 4.3125 12.63 4.3125H11.8125V9C11.8125 10.14 10.89 11.0625 9.75 11.0625H2.0625V12.75C2.0625 13.68 2.82 14.4375 3.75 14.4375H4.01251C4.26001 13.575 5.055 12.9375 6 12.9375C6.945 12.9375 7.74 13.575 7.9875 14.4375H10.02C10.2675 13.575 11.0625 12.9375 12.0075 12.9375C12.9525 12.9375 13.74 13.575 13.9875 14.4375Z" fill="#486AE2"/>
<path d="M6 17.0625C4.86 17.0625 3.9375 16.14 3.9375 15C3.9375 13.86 4.86 12.9375 6 12.9375C7.14 12.9375 8.0625 13.86 8.0625 15C8.0625 16.14 7.14 17.0625 6 17.0625ZM6 14.0625C5.4825 14.0625 5.0625 14.4825 5.0625 15C5.0625 15.5175 5.4825 15.9375 6 15.9375C6.5175 15.9375 6.9375 15.5175 6.9375 15C6.9375 14.4825 6.5175 14.0625 6 14.0625Z" fill="#486AE2"/>
<path d="M12 17.0625C10.86 17.0625 9.9375 16.14 9.9375 15C9.9375 13.86 10.86 12.9375 12 12.9375C13.14 12.9375 14.0625 13.86 14.0625 15C14.0625 16.14 13.14 17.0625 12 17.0625ZM12 14.0625C11.4825 14.0625 11.0625 14.4825 11.0625 15C11.0625 15.5175 11.4825 15.9375 12 15.9375C12.5175 15.9375 12.9375 15.5175 12.9375 15C12.9375 14.4825 12.5175 14.0625 12 14.0625Z" fill="#486AE2"/>
<path d="M16.5 11.0625H14.25C13.53 11.0625 12.9375 10.47 12.9375 9.75V7.5C12.9375 6.78 13.53 6.1875 14.25 6.1875H15.2175C15.42 6.1875 15.6075 6.2925 15.705 6.4725L16.9875 8.7225C17.0325 8.805 17.0625 8.9025 17.0625 9V10.5C17.0625 10.8075 16.8075 11.0625 16.5 11.0625ZM14.25 7.3125C14.145 7.3125 14.0625 7.395 14.0625 7.5V9.75C14.0625 9.855 14.145 9.9375 14.25 9.9375H15.9375V9.15L14.8875 7.3125H14.25Z" fill="#486AE2"/>
</svg>
