<svg width="24" height="24" viewBox="0 0 24 24" fill="none" xmlns="http://www.w3.org/2000/svg">
<path d="M21.0801 8.58003V15.42C21.0801 16.54 20.4801 17.58 19.5101 18.15L13.5701 21.58C12.6001 22.14 11.4001 22.14 10.4201 21.58L4.48016 18.15C3.51016 17.59 2.91016 16.55 2.91016 15.42V8.58003C2.91016 7.46003 3.51016 6.41999 4.48016 5.84999L10.4201 2.42C11.3901 1.86 12.5901 1.86 13.5701 2.42L19.5101 5.84999C20.4801 6.41999 21.0801 7.45003 21.0801 8.58003Z" stroke="#1838BD" stroke-width="1.5" stroke-linecap="round" stroke-linejoin="round"/>
<path d="M11.9999 10.9999C13.2868 10.9999 14.3299 9.95662 14.3299 8.66979C14.3299 7.38297 13.2868 6.33984 11.9999 6.33984C10.7131 6.33984 9.66992 7.38297 9.66992 8.66979C9.66992 9.95662 10.7131 10.9999 11.9999 10.9999Z" stroke="#1838BD" stroke-width="1.5" stroke-linecap="round" stroke-linejoin="round"/>
<path d="M16 16.6599C16 14.8599 14.21 13.3999 12 13.3999C9.79 13.3999 8 14.8599 8 16.6599" stroke="#1838BD" stroke-width="1.5" stroke-linecap="round" stroke-linejoin="round"/>
</svg>
