<svg width="12" height="14" viewBox="0 0 12 14" fill="none" xmlns="http://www.w3.org/2000/svg">
<path d="M10.6667 0.333008H5.33333C4.97971 0.333008 4.64057 0.473484 4.39052 0.723532C4.14048 0.973581 4 1.31272 4 1.66634V5.66634H1.33333C0.598 5.66634 0 6.26434 0 6.99967V12.9997C0 13.1765 0.0702379 13.3461 0.195262 13.4711C0.320286 13.5961 0.489856 13.6663 0.666667 13.6663H11.3333C11.5101 13.6663 11.6797 13.5961 11.8047 13.4711C11.9298 13.3461 12 13.1765 12 12.9997V1.66634C12 1.31272 11.8595 0.973581 11.6095 0.723532C11.3594 0.473484 11.0203 0.333008 10.6667 0.333008ZM1.33333 12.333V6.99967H5.33333V12.333H1.33333ZM7.33333 4.33301H6V2.99967H7.33333V4.33301ZM10 9.66634H8.66667V8.33301H10V9.66634ZM10 6.99967H8.66667V5.66634H10V6.99967ZM10 4.33301H8.66667V2.99967H10V4.33301Z" fill="#1838BD"/>
</svg>
