<svg width="24" height="24" viewBox="0 0 24 24" fill="none" xmlns="http://www.w3.org/2000/svg">
<path fill-rule="evenodd" clip-rule="evenodd" d="M7.8 2.25H7.7679C6.95506 2.24999 6.29944 2.24999 5.76853 2.29336C5.2219 2.33803 4.74175 2.43239 4.29754 2.65873C3.59193 3.01825 3.01825 3.59193 2.65873 4.29754C2.43239 4.74175 2.33803 5.2219 2.29336 5.76853C2.24999 6.29944 2.24999 6.95506 2.25 7.76789V7.8V16.2V16.2321C2.24999 17.0449 2.24999 17.7006 2.29336 18.2315C2.33803 18.7781 2.43239 19.2582 2.65873 19.7025C3.01825 20.4081 3.59193 20.9817 4.29754 21.3413C4.74175 21.5676 5.2219 21.662 5.76853 21.7066C6.29944 21.75 6.95505 21.75 7.76788 21.75H7.8H16.2H16.2321C17.045 21.75 17.7006 21.75 18.2315 21.7066C18.7781 21.662 19.2582 21.5676 19.7025 21.3413C20.4081 20.9817 20.9817 20.4081 21.3413 19.7025C21.5676 19.2582 21.662 18.7781 21.7066 18.2315C21.75 17.7006 21.75 17.045 21.75 16.2321V16.2V7.8V7.76788C21.75 6.95505 21.75 6.29944 21.7066 5.76853C21.662 5.2219 21.5676 4.74175 21.3413 4.29754C20.9817 3.59193 20.4081 3.01825 19.7025 2.65873C19.2582 2.43239 18.7781 2.33803 18.2315 2.29336C17.7006 2.24999 17.0449 2.24999 16.2321 2.25H16.2H7.8ZM4.97852 3.99524C5.17604 3.8946 5.4368 3.82546 5.89068 3.78838C6.35331 3.75058 6.94755 3.75 7.8 3.75H16.2C17.0525 3.75 17.6467 3.75058 18.1093 3.78838C18.5632 3.82546 18.824 3.8946 19.0215 3.99524C19.4448 4.21095 19.789 4.55516 20.0048 4.97852C20.1054 5.17604 20.1745 5.4368 20.2116 5.89068C20.2494 6.35331 20.25 6.94755 20.25 7.8V16.2C20.25 17.0525 20.2494 17.6467 20.2116 18.1093C20.1745 18.5632 20.1054 18.824 20.0048 19.0215C19.789 19.4448 19.4448 19.789 19.0215 20.0048C18.824 20.1054 18.5632 20.1745 18.1093 20.2116C17.6467 20.2494 17.0525 20.25 16.2 20.25H7.8C6.94755 20.25 6.35331 20.2494 5.89068 20.2116C5.4368 20.1745 5.17604 20.1054 4.97852 20.0048C4.55516 19.789 4.21095 19.4448 3.99524 19.0215C3.8946 18.824 3.82546 18.5632 3.78838 18.1093C3.75058 17.6467 3.75 17.0525 3.75 16.2V7.8C3.75 6.94755 3.75058 6.35331 3.78838 5.89068C3.82546 5.4368 3.8946 5.17604 3.99524 4.97852C4.21095 4.55516 4.55516 4.21095 4.97852 3.99524ZM10 16.25C9.58579 16.25 9.25 16.5858 9.25 17C9.25 17.4142 9.58579 17.75 10 17.75H14C14.4142 17.75 14.75 17.4142 14.75 17C14.75 16.5858 14.4142 16.25 14 16.25H10ZM12 7.75C9.84479 7.75 8.33637 8.50444 7.46324 9.11762C7.17903 9.31722 7.05633 9.75705 7.32142 10.2342L8.08411 11.6071C8.30457 12.0039 8.72285 12.25 9.17681 12.25H10.5986L9.37596 10.416C9.1462 10.0714 9.23933 9.60573 9.58397 9.37596C9.92862 9.1462 10.3943 9.23933 10.624 9.58397L12.4014 12.25H14.8232C15.2772 12.25 15.6954 12.0039 15.9159 11.6071L16.6786 10.2342C16.9437 9.75705 16.821 9.31722 16.5368 9.11762C15.6636 8.50444 14.1552 7.75 12 7.75ZM12.0116 13.75H14.8232C15.8219 13.75 16.7421 13.2085 17.2271 12.3355L17.9898 10.9627C18.5272 9.99531 18.4669 8.64019 17.3988 7.89009C16.3301 7.13953 14.5266 6.25 12 6.25C9.47337 6.25 7.66993 7.13953 6.60117 7.89009C5.53307 8.64019 5.47276 9.99531 6.01018 10.9627L6.77287 12.3355C7.25789 13.2085 8.1781 13.75 9.17681 13.75H11.9898C11.997 13.7501 12.0043 13.7501 12.0116 13.75Z" fill="#1838BD"/>
</svg>
