<svg width="25" height="24" viewBox="0 0 25 24" fill="none" xmlns="http://www.w3.org/2000/svg">
<path d="M14.6992 12.4492H9.69922C9.28922 12.4492 8.94922 12.1092 8.94922 11.6992C8.94922 11.2892 9.28922 10.9492 9.69922 10.9492H14.6992C15.1092 10.9492 15.4492 11.2892 15.4492 11.6992C15.4492 12.1092 15.1092 12.4492 14.6992 12.4492Z" fill="#151622"/>
<path d="M12.1992 14.9492C11.7892 14.9492 11.4492 14.6092 11.4492 14.1992V9.19922C11.4492 8.78922 11.7892 8.44922 12.1992 8.44922C12.6092 8.44922 12.9492 8.78922 12.9492 9.19922V14.1992C12.9492 14.6092 12.6092 14.9492 12.1992 14.9492Z" fill="#151622"/>
<path d="M12 21.75C6.35 21.75 1.75 17.15 1.75 11.5C1.75 5.85 6.35 1.25 12 1.25C17.65 1.25 22.25 5.85 22.25 11.5C22.25 17.15 17.65 21.75 12 21.75ZM12 2.75C7.17 2.75 3.25 6.68 3.25 11.5C3.25 16.32 7.17 20.25 12 20.25C16.83 20.25 20.75 16.32 20.75 11.5C20.75 6.68 16.83 2.75 12 2.75Z" fill="#151622"/>
<path d="M22.4995 22.7514C22.3095 22.7514 22.1195 22.6814 21.9695 22.5314L19.9695 20.5314C19.6795 20.2414 19.6795 19.7614 19.9695 19.4714C20.2595 19.1814 20.7395 19.1814 21.0295 19.4714L23.0295 21.4714C23.3195 21.7614 23.3195 22.2414 23.0295 22.5314C22.8795 22.6814 22.6895 22.7514 22.4995 22.7514Z" fill="#151622"/>
</svg>
