<svg width="25" height="24" viewBox="0 0 25 24" fill="none" xmlns="http://www.w3.org/2000/svg">
<path d="M14.5 12.4492H9.5C9.09 12.4492 8.75 12.1092 8.75 11.6992C8.75 11.2892 9.09 10.9492 9.5 10.9492H14.5C14.91 10.9492 15.25 11.2892 15.25 11.6992C15.25 12.1092 14.91 12.4492 14.5 12.4492Z" fill="#151622"/>
<path d="M12 21.75C6.35 21.75 1.75 17.15 1.75 11.5C1.75 5.85 6.35 1.25 12 1.25C17.65 1.25 22.25 5.85 22.25 11.5C22.25 17.15 17.65 21.75 12 21.75ZM12 2.75C7.17 2.75 3.25 6.68 3.25 11.5C3.25 16.32 7.17 20.25 12 20.25C16.83 20.25 20.75 16.32 20.75 11.5C20.75 6.68 16.83 2.75 12 2.75Z" fill="#151622"/>
<path d="M22.4995 22.7514C22.3095 22.7514 22.1195 22.6814 21.9695 22.5314L19.9695 20.5314C19.6795 20.2414 19.6795 19.7614 19.9695 19.4714C20.2595 19.1814 20.7395 19.1814 21.0295 19.4714L23.0295 21.4714C23.3195 21.7614 23.3195 22.2414 23.0295 22.5314C22.8795 22.6814 22.6895 22.7514 22.4995 22.7514Z" fill="#151622"/>
</svg>
